<?xml version="1.0" encoding="utf-8"?>
<!-- Generator: Adobe Illustrator 21.1.0, SVG Export Plug-In . SVG Version: 6.00 Build 0)  -->
<svg version="1.1" id="Layer_1" xmlns="http://www.w3.org/2000/svg" xmlns:xlink="http://www.w3.org/1999/xlink" x="0px" y="0px"
	 viewBox="0 0 497 147" style="enable-background:new 0 0 497 147;" xml:space="preserve">
<style type="text/css">
	.st0{fill:#FFFFFF;}
	.st1{fill:#FF534E;}
	.st2{fill:#05B59E;}
	.st3{fill:#85AD51;}
</style>
<g>
	<path class="st0" d="M87.7,43.5c0.3-0.1,3.5-0.3,3.5-0.3s-0.1-0.4-0.3-0.6c-0.2-0.2-2.2-1.5-2.9-1.5s-5.3,0.8-5.6,1
		c-0.3,0.2-1.2,1-1.3,1.2c-0.1,0.2-0.4,0.5-0.2,0.9c2,0.3,5.4,1.2,6.5,1.2c1.1,0,2.7-0.5,2.7-0.5s-0.1-0.2-0.3-0.3
		c-0.2-0.1-2.5-0.5-2.5-0.5S87.4,43.6,87.7,43.5 M114.2,57.7l-4-2.2c0,0-1.8-0.4-2.6-0.6c-0.8-0.2-2.4-1-2.4-1s0,0.4,0,0.5
		c0.1,0.1,1.7,2.1,1.7,2.1s2.3,1.5,3.2,2c0.9,0.6,3.3,3.1,3.3,3.1l-9.4,5.3l-3.1-2.4l-2.9-3.9l-1.2-0.9l-0.8,0.1l2.7,6.1l2.5,2.6
		l-15.4,8.8c0,0,0-1.4,0-2.1c0-0.7-1.1-7-1.1-7l0-3.6l-0.5-0.5c0,0-1.2,3-1.4,4.8c-0.2,1.8-0.6,7.3-0.6,7.3L64.5,66.2
		c0,0,1.8-3.5,2.7-4.5c0.9-1,5.1-5.5,5.1-5.5S71.9,56,71.6,56c-0.4,0.1-1.7,0.8-1.7,0.8s-4.3,2.8-5.7,4.1c-1.5,1.3-3,3.4-3,3.4
		l-5.3-3v-4.5c0,0,13.1-6.3,16.3-8.6c3.2-2.3,8-7.2,8.7-7.5c0.8-0.4,6.8-1,6.8-1s1.6-0.1,2.8,0.5c0.8,0.5,8.5,4.8,8.5,4.8L114.2,55
		V57.7z M103.7,22.1c-1,4.5-4.9,6.2-7.7,6.2c0,2.4-2,5.1-5.2,5.1h-4.7c-0.2,0.4,4.7,2.1,4.5,2.6c-0.4,1.1-0.6,2.3-0.7,2.6l-1.8-0.4
		l-5.5,0.5c-0.4-0.9-0.8-4.2-1.2-5.2c-1.2-0.2-2.3-0.7-3-1.5c-0.5-0.6-0.9-1.3-0.9-2c-2.5,0-4.2-1.2-4.2-3.6c-0.3,0-1.3,0.1-1.7,0.1
		c-3,0-6.3-1.3-7.5-3.3L85,11.5L103.7,22.1z M117.4,62.8V26L85,7.6L52.6,26v36.8L85,81.2L117.4,62.8z"/>
</g>
<g>
	<path class="st0" d="M45,107.1c0-3.6,2.6-6,5.8-6c1.9,0,3.3,0.8,4.3,2.1l-0.8,0.5c-0.7-1-2-1.7-3.4-1.7c-2.7,0-4.8,2.1-4.8,5.1
		c0,3,2.1,5.1,4.8,5.1c1.4,0,2.7-0.7,3.4-1.7l0.8,0.5c-1,1.3-2.4,2.1-4.3,2.1C47.6,113.1,45,110.7,45,107.1z"/>
	<path class="st0" d="M62.3,101.1c3.4,0,5.6,2.6,5.6,6c0,3.4-2.2,6-5.6,6c-3.4,0-5.6-2.6-5.6-6C56.7,103.8,58.9,101.1,62.3,101.1z
		 M62.3,102.1c-2.8,0-4.6,2.1-4.6,5.1c0,2.9,1.8,5.1,4.6,5.1c2.8,0,4.6-2.2,4.6-5.1C66.9,104.2,65.1,102.1,62.3,102.1z"/>
	<path class="st0" d="M72.9,102.2h-3.8v-0.9h8.6v0.9h-3.8v10.7h-1V102.2z"/>
	<path class="st0" d="M84.5,101.1c3.4,0,5.6,2.6,5.6,6c0,3.4-2.2,6-5.6,6c-3.4,0-5.6-2.6-5.6-6C78.8,103.8,81,101.1,84.5,101.1z
		 M84.5,102.1c-2.8,0-4.6,2.1-4.6,5.1c0,2.9,1.8,5.1,4.6,5.1c2.8,0,4.6-2.2,4.6-5.1C89,104.2,87.2,102.1,84.5,102.1z"/>
	<path class="st0" d="M92.5,101.3h4.3c2.2,0,3.5,1.6,3.5,3.4c0,1.8-1.3,3.4-3.5,3.4h-3.4v4.8h-1V101.3z M96.8,102.2h-3.3v5h3.3
		c1.5,0,2.6-1,2.6-2.5C99.3,103.3,98.3,102.2,96.8,102.2z"/>
	<path class="st0" d="M108.4,110.1h-6.2l-1.2,2.9h-1.1l4.7-11.6h1.2l4.7,11.6h-1.1L108.4,110.1z M102.5,109.2h5.5l-2.8-6.9
		L102.5,109.2z"/>
	<path class="st0" d="M116.5,107.7l-4,5.2h-1.3l4.7-5.9l-4.4-5.7h1.3l3.8,4.9l3.8-4.9h1.3l-4.4,5.6l4.7,6h-1.2L116.5,107.7z"/>
	<path class="st0" d="M123.6,101.3h1v11.6h-1V101.3z"/>
</g>
<rect x="35" y="134" class="st1" width="100" height="4"/>
<g>
	<path class="st0" d="M231.9,112.3l7-9.8h-7v-0.9h8.2v0.9l-7,9.8h7.1v0.9h-8.4V112.3z"/>
	<path class="st0" d="M242.6,101.6h1v11.6h-1V101.6z"/>
	<path class="st0" d="M248.7,107.7l-1.3,1.4v4.1h-1v-11.6h1v6.3l5.6-6.3h1.3l-4.9,5.5l5.4,6.1h-1.3L248.7,107.7z"/>
	<path class="st0" d="M263.9,110.4h-6.2l-1.2,2.9h-1.1l4.7-11.6h1.2l4.7,11.6h-1.1L263.9,110.4z M258.1,109.4h5.5l-2.8-6.9
		L258.1,109.4z"/>
</g>
<g>
	<path class="st0" d="M271.1,36.9c0.1,0.8-1.3,2.8-3.5,3.4c-3.6,1-8.5,2.3-10.8,2.8c-1.6-1-5-2.3-5.6-2.5c0,0.4,0.1,0.4-0.2,0.8
		c0.6,0.3,4.9,3.6,5.3,4c0.5,0.4,1.1,6.1,1.4,6.7c0.7,0.9,3,2.3,3,2.4c0.3,1.1,2.9,3.8,2.3,4.5c-0.1-0.2-0.3-0.4-0.6-0.5
		c0,0.4-0.4,0.5-0.8,0.2c0.7-0.1-0.3-1.2-1.5-3.6c0,0-0.2,0.1-0.3,0.1c-0.1-0.1-3-2.7-3.1-2.7c-0.1-0.1-0.3,0-0.4-0.1
		c-0.4-1.1,0-4.8-0.7-6c0,0-0.4,0-0.5,0c-1.5-1.2-3.6-3-5.1-3.7c-0.1,0.1-0.2,0.3-0.3,0.3c0.7,0.9,4.7,6.3,4.6,7.1
		c0,0-0.3,0.2-0.3,0.3c-0.7,2.6-1.5,6.3-1.3,6.8c0.3,0.6,1.6,3.7,2.3,4.3c0.1,0.1-0.1,0.3,0,0.4c2.2,3.1,3.7,3.5,4.1,3.7
		c-0.1,0.1-0.2,0.3-0.3,0.4c0.1,0.3-0.1,0.9-0.6,0.8c0.3-0.4,0.2-0.7-0.3-0.8c-1.5-0.3-3.2-2.5-6-8.6c-0.1-0.1-0.4-0.2-0.4-0.3
		c0-2.6,1.7-6.8,1.7-6.9c0,0-2.2-3.1-3.5-4.7c0,0.1,0,0.1-0.1,0.1c0,0.2,0.4,2.1,0.3,2.2c-0.1,0.1-0.2,0.3-0.2,0.4
		c0.1,0.2,0.3,2.1,0.3,2.7c0,0.1-0.1,0.2-0.1,0.2c0,0-0.1,0.1-0.1,0.1c0,0.2,0.2,2.3,0.2,2.3c0,0-0.1,0.1-0.1,0.1
		c0,0.1,0.2,2.3,0.1,2.3c0,0.1-0.2,0.1-0.2,0.1c0,0.1,0.1,1.7,0.1,1.7c0,0-0.3,0.1-0.3,0.1c0,0.1-0.1,0.8-0.1,0.9
		c0,0.1-0.4,0.1-0.4,0.2c0,0.1,0,0.6,0,0.7c0,0-0.2,0-0.3,0c-0.1,0-0.4,0.2-0.5,0.2h0h0h0c-0.1,0-0.4-0.2-0.5-0.2
		c-0.1,0-0.2,0.1-0.3,0c-0.1-0.1,0-0.6,0-0.7c0-0.1-0.3-0.1-0.4-0.2c0-0.1-0.1-0.8-0.1-0.9c0,0-0.3,0-0.3-0.1c0,0,0.1-1.6,0.1-1.7
		c0,0-0.2,0-0.2-0.1c0,0,0.1-2.2,0.1-2.3c0,0-0.1,0-0.1-0.1c0,0,0.2-2.1,0.2-2.3c0,0,0,0-0.1-0.1c-0.1,0-0.1-0.1-0.1-0.2
		c0-0.5,0.2-2.4,0.3-2.7c0-0.1,0-0.3-0.2-0.4c-0.1-0.1,0.3-2,0.3-2.2c0,0-0.1,0-0.1-0.1c-1.4,1.6-3.5,4.6-3.5,4.7
		c0,0.1,1.7,4.3,1.7,6.9c0,0.1-0.3,0.1-0.4,0.3c-2.8,6.1-4.5,8.2-6,8.6c-0.6,0.1-0.7,0.5-0.3,0.8c-0.5,0.1-0.7-0.5-0.6-0.8
		c-0.1-0.1-0.2-0.3-0.3-0.4c0.4-0.2,1.9-0.5,4.1-3.7c0-0.1-0.1-0.3-0.1-0.4c0.6-0.6,2-3.7,2.3-4.3c0.2-0.6-0.6-4.2-1.3-6.8
		c0,0-0.3-0.2-0.3-0.3c-0.1-0.8,3.9-6.2,4.6-7.1c0,0-0.2-0.2-0.3-0.3c-1.4,0.7-3.6,2.5-5.1,3.7c-0.1,0.1-0.4,0-0.5,0
		c-0.7,1.3-0.3,4.9-0.7,6c0,0.1-0.2,0-0.3,0.1c-0.1,0.1-3,2.7-3.1,2.7c0,0-0.2-0.1-0.3-0.1c-1.2,2.4-2.2,3.5-1.5,3.6
		c-0.4,0.3-0.7,0.1-0.8-0.2c-0.2,0.1-0.5,0.3-0.6,0.5c-0.6-0.7,1.9-3.4,2.3-4.5c0-0.1,2.3-1.5,3-2.4c0.3-0.6,0.9-6.3,1.4-6.7
		c0.4-0.4,4.7-3.7,5.3-4c-0.2-0.4-0.2-0.4-0.2-0.8c-0.6,0.2-3.9,1.5-5.6,2.5c-2.2-0.5-7.1-1.8-10.8-2.8c-2.2-0.6-3.6-2.6-3.5-3.4
		c0.1-0.8,2-1.2,4.2-1.1c1.8,0.1,11,3.7,14.2,3.7h1.6c0-0.2,0.1-0.4,0.1-0.4c-1-0.2-4.8-4-4.8-4c-0.2-1.7-2-4.4-2.1-4.6l0.1-0.2
		c-0.8-0.4-6.9-2-6.9-4.7c0-0.3,0.1-0.6,0.3-0.8c0,0.2,0.1,0.6,0.3,0.7c0,0,0.1,0,0.2,0c1.6,2.7,6.7,4.2,6.7,4.2
		c0.1,0,0.7,0.3,2.2,4.6c0.1,0.1,0.2,0.1,0.3,0.1c0.1,0.1,3.2,3.1,4,3c0.4-0.8,1.5-0.7,1.3-1.4c-1.5-0.1-1.5-0.7-1.1-1.5
		c-0.3-0.4-0.6-0.8-0.8-1.1c-0.2,0-0.9,0-0.9-0.1c0,0,0,0,0,0c0,0,0.6-0.3,0.7-0.3c-0.1-0.2-0.2-0.3-0.3-0.5c-0.2,0-1.2,0-1.2-0.1
		c0,0,0,0,0,0c0,0,0.8-0.3,0.9-0.3c-0.1-0.1-0.2-0.2-0.2-0.4c0,0-1.2-0.1-1.2-0.1c0,0,0,0,0,0c0,0,0.8-0.3,0.9-0.3
		c-0.1-0.1-0.1-0.2-0.2-0.3c-0.6,0.1-1.1,0-1.1,0c0,0,0,0,0,0c0,0,0.8-0.3,0.9-0.3c-0.1-0.1-0.2-0.2-0.3-0.3c0,0-1,0.1-1,0.1
		c0,0,0.6-0.4,0.7-0.4c-0.1-0.1-0.1-0.2-0.2-0.2c0,0-0.8,0.1-0.8,0.1c0,0,0.4-0.4,0.5-0.4c-0.1-0.1-0.2-0.2-0.3-0.2
		c0,0-0.7,0.2-0.7,0.1c0,0,0.3-0.3,0.4-0.3c-0.1-0.1-0.3-0.2-0.4-0.3c-0.1,0-0.4,0.2-0.4,0.1c0,0,0.2-0.2,0.2-0.3
		c-0.1-0.1-0.6-0.4-0.6-0.4c0.1,0,0.5,0,0.8,0.2c0,0,0.2-0.2,0.2-0.2c0,0,0,0.3,0,0.3c0.2,0.1,0.3,0.2,0.5,0.3c0,0,0.2-0.3,0.2-0.3
		c0,0,0,0.4,0,0.4c0.1,0.1,0.2,0.2,0.4,0.3c0.1-0.1,0.3-0.4,0.3-0.4c0,0,0,0.6-0.1,0.6c0.1,0.1,0.1,0.1,0.2,0.2
		c0.1-0.1,0.3-0.4,0.4-0.4c0,0-0.1,0.6-0.1,0.7c0.1,0.1,0.2,0.2,0.3,0.3c0.1-0.1,0.4-0.5,0.4-0.5c0,0-0.1,0.6-0.2,0.8
		c0.1,0.1,0.2,0.2,0.3,0.3c0.1-0.2,0.6-0.7,0.6-0.7c0,0-0.3,0.9-0.4,1c0.1,0.1,0.2,0.3,0.3,0.4c0.2-0.2,0.5-0.6,0.5-0.6
		c0,0-0.2,0.7-0.3,1c0.1,0.2,0.2,0.4,0.3,0.5c0.2-0.3,0.4-0.7,0.4-0.7c0,0-0.1,0.8-0.2,1.1c0.1,0.2,0.6,0.8,1,1
		c0.3,0.2,0.8-0.1,0.8-0.5c-0.6-0.1-1.1-0.4-1.1-0.9c0-0.4,0.4-0.6,0.7-0.6v0.5c0,0.3,0.1,0.6,0.4,0.6c0,0,0-6.3,0-7.2
		c0-0.7-0.2-1.9-0.2-2.2c-0.1-0.2-0.1-0.4,0-0.5c0.1-0.1,0.2-0.1,0.4-0.2c0,0,0.3-0.4,0.3-0.4h0c0,0,0.3,0.4,0.3,0.4
		c0.2,0,0.3,0.1,0.4,0.2c0.1,0.1,0,0.3,0,0.5c-0.1,0.3-0.2,1.6-0.2,2.2v7.2c0.3,0,0.4-0.2,0.4-0.6v-0.5c0.2,0,0.7,0.2,0.7,0.6
		c0,0.4-0.5,0.8-1.1,0.9c0,0.4,0.6,0.7,0.8,0.5c0.3-0.2,0.8-0.8,1-1c-0.1-0.3-0.2-1.1-0.2-1.1c0,0,0.2,0.4,0.4,0.7
		c0.1-0.2,0.2-0.3,0.3-0.5c-0.1-0.3-0.3-1-0.3-1c0,0,0.4,0.4,0.5,0.6c0.1-0.1,0.2-0.3,0.3-0.4c-0.1-0.2-0.4-1-0.4-1
		c0,0,0.5,0.5,0.6,0.7c0.1-0.1,0.2-0.2,0.3-0.3c-0.1-0.1-0.2-0.7-0.2-0.8c0,0,0.3,0.3,0.4,0.5c0.1-0.1,0.2-0.2,0.3-0.3
		c0-0.1-0.1-0.7-0.1-0.7c0,0,0.3,0.3,0.4,0.4c0.1-0.1,0.1-0.2,0.2-0.2c0-0.1-0.1-0.6-0.1-0.6c0,0,0.2,0.3,0.3,0.4
		c0.1-0.1,0.2-0.2,0.4-0.3c0,0,0-0.4,0-0.4c0,0,0.2,0.2,0.2,0.3c0.2-0.1,0.3-0.2,0.5-0.3c0,0,0-0.3,0-0.3c0,0,0.2,0.2,0.2,0.2
		c0.3-0.1,0.7-0.2,0.8-0.2c0,0-0.5,0.3-0.6,0.4c0,0,0.2,0.3,0.2,0.3c0,0-0.3-0.1-0.4-0.1c-0.2,0.1-0.3,0.2-0.4,0.3
		c0.1,0.1,0.4,0.3,0.4,0.3c0,0-0.7-0.1-0.7-0.1c-0.1,0.1-0.2,0.1-0.3,0.2c0.1,0,0.5,0.4,0.5,0.4c0,0-0.8-0.1-0.8-0.1
		c-0.1,0.1-0.1,0.2-0.2,0.2c0.1,0,0.7,0.4,0.7,0.4c0,0-1-0.1-1-0.1c-0.1,0.1-0.2,0.2-0.3,0.3c0.1,0,0.9,0.3,0.9,0.3c0,0,0,0,0,0
		c0,0-0.5,0.1-1.1,0c-0.1,0.1-0.1,0.2-0.2,0.3c0.1,0,0.9,0.3,0.9,0.3c0,0,0,0,0,0c0,0-1.2,0.1-1.2,0.1c-0.1,0.1-0.2,0.2-0.2,0.4
		c0.1,0,0.9,0.3,0.9,0.3c0,0,0,0,0,0c0,0-1,0.1-1.2,0.1c-0.1,0.2-0.2,0.3-0.3,0.5c0.1,0,0.7,0.3,0.7,0.3c0,0,0,0,0,0
		c0,0-0.7,0.1-0.9,0.1c-0.2,0.3-0.5,0.7-0.8,1.1c0.4,0.8,0.4,1.4-1.1,1.5c-0.2,0.7,1,0.6,1.3,1.4c0.9,0.1,3.9-2.9,4-3
		c0.2,0,0.2,0,0.3-0.1c1.5-4.3,2.1-4.5,2.2-4.6c0,0,5.1-1.5,6.7-4.2c0.1,0,0.2,0,0.2,0c0.2-0.1,0.3-0.5,0.3-0.7
		c0.2,0.3,0.3,0.5,0.3,0.8c0,2.7-6,4.3-6.9,4.7l0.1,0.2c-0.1,0.2-1.9,2.9-2.1,4.6c0,0-3.9,3.8-4.8,4c0,0,0.1,0.2,0.1,0.4h1.6
		c3.2,0,12.4-3.6,14.2-3.7C269.1,35.7,271,36.1,271.1,36.9 M281.4,63.2v-37L248.8,7.6l-32.7,18.5v37l32.7,18.5L281.4,63.2z"/>
</g>
<rect x="198.8" y="134" class="st2" width="100" height="4"/>
<g>
	<path class="st0" d="M346.7,110h-6.2l-1.2,2.9h-1.1l4.7-11.6h1.2l4.7,11.6h-1.1L346.7,110z M340.8,109.1h5.5l-2.8-6.9L340.8,109.1z
		 M351.7,102.9v10h-1v-11.6h1l7.3,9.9v-9.9h1v11.6h-1L351.7,102.9z M365.8,102.2H362v-0.9h8.6v0.9h-3.8v10.7h-1V102.2z M372.7,101.3
		h1v11.6h-1V101.3z M375.6,106.5h4.2v0.8h-4.2V106.5z M381.3,107.1c0-3.6,2.6-6,5.8-6c1.9,0,3.3,0.8,4.3,2.1l-0.8,0.5
		c-0.7-1-2-1.7-3.4-1.7c-2.7,0-4.8,2.1-4.8,5.1c0,3,2.1,5.1,4.8,5.1c1.4,0,2.7-0.7,3.4-1.7l0.8,0.5c-1,1.3-2.4,2.1-4.3,2.1
		C383.9,113.1,381.3,110.7,381.3,107.1z M398.7,101.1c3.4,0,5.6,2.6,5.6,6s-2.2,6-5.6,6c-3.4,0-5.6-2.6-5.6-6
		S395.3,101.1,398.7,101.1z M398.7,102c-2.8,0-4.6,2.1-4.6,5.1c0,2.9,1.8,5.1,4.6,5.1c2.8,0,4.6-2.2,4.6-5.1
		C403.3,104.1,401.5,102,398.7,102z M410.3,108.1h-2.6v4.8h-1v-11.6h4.3c2,0,3.5,1.3,3.5,3.4c0,2.1-1.5,3.3-3.2,3.3l3.4,4.9h-1.2
		L410.3,108.1z M411,102.2h-3.3v5h3.3c1.5,0,2.6-1,2.6-2.5S412.5,102.2,411,102.2z M420.6,108.1h-2.6v4.8h-1v-11.6h4.3
		c2,0,3.5,1.3,3.5,3.4c0,2.1-1.5,3.3-3.2,3.3l3.4,4.9h-1.2L420.6,108.1z M421.3,102.2h-3.3v5h3.3c1.5,0,2.6-1,2.6-2.5
		S422.9,102.2,421.3,102.2z M427.4,101.3h1v7.1c0,2.3,1.2,3.8,3.5,3.8c2.3,0,3.5-1.4,3.5-3.8v-7.1h1v7.1c0,2.9-1.5,4.7-4.5,4.7
		c-3,0-4.5-1.8-4.5-4.7V101.3z M439.4,101.3h4.3c2.2,0,3.5,1.6,3.5,3.4s-1.3,3.4-3.5,3.4h-3.4v4.8h-1V101.3z M443.6,102.2h-3.3v5
		h3.3c1.5,0,2.6-1,2.6-2.5S445.1,102.2,443.6,102.2z M452.3,102.2h-3.8v-0.9h8.6v0.9h-3.8v10.7h-1V102.2z M459.1,101.3h1v11.6h-1
		V101.3z M468.2,101.1c3.4,0,5.6,2.6,5.6,6s-2.2,6-5.6,6c-3.4,0-5.6-2.6-5.6-6S464.8,101.1,468.2,101.1z M468.2,102
		c-2.8,0-4.6,2.1-4.6,5.1c0,2.9,1.8,5.1,4.6,5.1c2.8,0,4.6-2.2,4.6-5.1C472.8,104.1,471,102,468.2,102z M477.3,102.9v10h-1v-11.6h1
		l7.3,9.9v-9.9h1v11.6h-1L477.3,102.9z"/>
	<path class="st0" d="M414.5,53.8c-0.4,0-1.3,0.1-1.4-0.1c0-0.2,0.2-0.7,0.9-0.9c0.7-0.2,1.2,0,1.3,0.1l1.8-1.4
		c-0.6-0.8-1.6-1.2-2.8-1.1l-0.4-1.2l-2.1,0.8l0.5,1.2c-1.1,0.8-1.7,2.1-1.3,3.3c0.5,1.4,1.8,1.9,3.8,1.6c1.3-0.2,1.6,0,1.6,0
		c0,0.2-0.2,0.7-0.9,0.9c-0.7,0.2-1.2,0-1.3-0.1l-1.8,1.4c0.6,0.8,1.6,1.2,2.8,1.1l0.4,1.2l2.1-0.8l-0.5-1.2
		c1.1-0.8,1.7-2.1,1.3-3.3C418.1,54,416.7,53.5,414.5,53.8"/>
	<path class="st0" d="M417.8,63.3c-4.7,1.7-9.8-0.7-11.4-5.4c-1.7-4.7,0.7-9.8,5.4-11.4c4.7-1.7,9.8,0.7,11.4,5.4
		C424.9,56.5,422.5,61.6,417.8,63.3 M411.3,45.3c-5.3,1.9-8,7.7-6.1,13.1c1.9,5.3,7.7,8,13.1,6.1c5.3-1.9,8-7.7,6.1-13.1
		C422.5,46.1,416.7,43.4,411.3,45.3"/>
	<path class="st0" d="M399.2,58.6c1.1,0,1.9,0.9,1.9,1.9c0,1.1-0.9,1.9-1.9,1.9c-1.1,0-1.9-0.9-1.9-1.9
		C397.3,59.4,398.1,58.6,399.2,58.6"/>
	<path class="st0" d="M429.2,47.8c1.1,0,1.9,0.9,1.9,1.9c0,1.1-0.9,1.9-1.9,1.9c-1.1,0-1.9-0.9-1.9-1.9
		C427.3,48.6,428.2,47.8,429.2,47.8"/>
	<path class="st0" d="M441.7,41l-5.3-14.7h-0.1l-10.4,3.8l-42.5,15.4V44l54-19.5l4.3,11.9V41z M441.7,55.8c-0.9,0.9-1.6,2-2.1,3.1
		l-27.2,15.4l-27.2-15.4l-0.9-2.5c3.8-2.2,5.9-6.6,5.2-10.9L426.7,32c2.3,4,7,6.1,11.5,5.3l3.5,9.5V55.8z M383.3,39.4L406.1,23
		c3.2,3.1,8,3.8,12,1.9l3.4,4.6l-38.1,13.8V39.4z M383.3,35.2l30.6-22l10.8,15.1l-1.5,0.5l-9.8-13.6l-2.3,1.6l-6.4,4.7L383.3,37
		V35.2z M412.5,4.5l-32.4,18.4v36.8L412.5,78l32.4-18.4V22.9L412.5,4.5z"/>
</g>
<rect x="362.5" y="134" class="st3" width="100" height="4"/>
</svg>
