<?xml version="1.0" encoding="utf-8"?>
<!-- Generator: Adobe Illustrator 21.1.0, SVG Export Plug-In . SVG Version: 6.00 Build 0)  -->
<svg version="1.1" id="Layer_1" xmlns="http://www.w3.org/2000/svg" xmlns:xlink="http://www.w3.org/1999/xlink" x="0px" y="0px"
	 viewBox="0 0 474 240" style="enable-background:new 0 0 474 240;" xml:space="preserve">
<style type="text/css">
	.st0{fill:#FFFFFF;}
</style>
<g>
	<g>
		<path class="st0" d="M19.8,214.5c1.4,1.5,3.5,2.8,6.3,2.8c2.9,0,4-1.4,4-2.7c0-1.8-2.1-2.3-4.6-3c-3.3-0.8-7.1-1.8-7.1-6
			c0-3.3,2.9-5.9,7.3-5.9c3.1,0,5.6,1,7.5,2.8l-2,2.6c-1.6-1.6-3.7-2.3-5.8-2.3c-2.1,0-3.4,1-3.4,2.5c0,1.6,2,2.1,4.4,2.7
			c3.3,0.8,7.2,1.9,7.2,6.2c0,3.3-2.3,6.2-7.7,6.2c-3.7,0-6.4-1.3-8.1-3.2L19.8,214.5z"/>
		<path class="st0" d="M56,204.9L49.8,220h-1.5l-6.1-15.1V220h-3.5v-20h4.9l5.4,13.5l5.5-13.5h4.9v20H56V204.9z"/>
		<path class="st0" d="M78.3,216.2h-9.5l-1.5,3.8h-3.8l7.9-20h4.4l7.9,20h-3.8L78.3,216.2z M69.8,213.1h7.5L73.5,203L69.8,213.1z"/>
		<path class="st0" d="M94.5,212.5h-3.5v7.5h-3.5v-20h8.8c4,0,6.5,2.6,6.5,6.3c0,3.6-2.3,5.5-4.7,5.9l4.9,7.9h-4L94.5,212.5z
			 M95.9,203.1h-4.8v6.4h4.8c2,0,3.4-1.3,3.4-3.2S97.8,203.1,95.9,203.1z"/>
		<path class="st0" d="M112.7,203.1h-6.1V200h15.6v3.1h-6.1V220h-3.5V203.1z"/>
		<path class="st0" d="M127,200h13.7v3.1h-10.2v5.2h10v3.1h-10v5.5h10.2v3.1H127V200z"/>
		<path class="st0" d="M153.1,212.5h-3.5v7.5h-3.5v-20h8.8c4,0,6.5,2.6,6.5,6.3c0,3.6-2.3,5.5-4.7,5.9l4.9,7.9h-4L153.1,212.5z
			 M154.4,203.1h-4.8v6.4h4.8c2,0,3.4-1.3,3.4-3.2S156.4,203.1,154.4,203.1z"/>
		<path class="st0" d="M175.3,210c0-6.2,4.6-10.3,10.3-10.3c4.2,0,6.7,2.1,8.2,4.5l-3,1.5c-1-1.6-2.9-2.9-5.2-2.9
			c-3.8,0-6.8,3-6.8,7.2c0,4.2,2.9,7.2,6.8,7.2c2.3,0,4.2-1.2,5.2-2.9l3,1.5c-1.5,2.4-4,4.5-8.2,4.5
			C179.9,220.4,175.3,216.2,175.3,210z"/>
		<path class="st0" d="M205.5,212.5H202v7.5h-3.5v-20h8.8c4,0,6.5,2.6,6.5,6.3c0,3.6-2.3,5.5-4.7,5.9l4.9,7.9h-4L205.5,212.5z
			 M206.8,203.1H202v6.4h4.8c2,0,3.4-1.3,3.4-3.2S208.8,203.1,206.8,203.1z"/>
		<path class="st0" d="M228.5,199.7c6,0,10.2,4.4,10.2,10.3s-4.2,10.3-10.2,10.3c-6,0-10.2-4.4-10.2-10.3S222.5,199.7,228.5,199.7z
			 M228.5,202.8c-4,0-6.6,3.1-6.6,7.2c0,4.1,2.6,7.2,6.6,7.2c4,0,6.6-3.1,6.6-7.2C235.1,205.9,232.5,202.8,228.5,202.8z"/>
		<path class="st0" d="M254.7,205.2l-3.9,14.8h-3.8l-5.7-20h3.9l3.9,15.4l4.1-15.4h2.8l4.1,15.4l3.9-15.4h3.9l-5.7,20h-3.8
			L254.7,205.2z"/>
		<path class="st0" d="M272.1,200h7.4c6.2,0,10.5,4.1,10.5,10s-4.2,10-10.5,10h-7.4V200z M279.6,216.9c4.3,0,6.9-3.1,6.9-6.9
			c0-3.9-2.4-6.9-6.9-6.9h-3.9v13.8H279.6z"/>
		<path class="st0" d="M295.9,214.5c1.4,1.5,3.5,2.8,6.3,2.8c2.9,0,4-1.4,4-2.7c0-1.8-2.1-2.3-4.6-3c-3.3-0.8-7.1-1.8-7.1-6
			c0-3.3,2.9-5.9,7.3-5.9c3.1,0,5.6,1,7.5,2.8l-2,2.6c-1.6-1.6-3.7-2.3-5.8-2.3c-2.1,0-3.4,1-3.4,2.5c0,1.6,2,2.1,4.4,2.7
			c3.3,0.8,7.2,1.9,7.2,6.2c0,3.3-2.3,6.2-7.7,6.2c-3.7,0-6.4-1.3-8.1-3.2L295.9,214.5z"/>
		<path class="st0" d="M324.2,199.7c6,0,10.2,4.4,10.2,10.3s-4.2,10.3-10.2,10.3S314,216,314,210S318.2,199.7,324.2,199.7z
			 M324.2,202.8c-4.1,0-6.6,3.1-6.6,7.2c0,4.1,2.6,7.2,6.6,7.2c4,0,6.6-3.1,6.6-7.2C330.8,205.9,328.2,202.8,324.2,202.8z"/>
		<path class="st0" d="M339.6,200h3.5v12c0,3.2,1.8,5.2,5.1,5.2c3.3,0,5.1-2.1,5.1-5.2v-12h3.5v12.1c0,5-2.9,8.3-8.6,8.3
			c-5.8,0-8.7-3.3-8.7-8.2V200z"/>
		<path class="st0" d="M370,212.5h-3.5v7.5H363v-20h8.8c4,0,6.5,2.6,6.5,6.3c0,3.6-2.3,5.5-4.7,5.9l4.9,7.9h-4.1L370,212.5z
			 M371.3,203.1h-4.8v6.4h4.8c2,0,3.4-1.3,3.4-3.2S373.3,203.1,371.3,203.1z"/>
		<path class="st0" d="M382.7,210c0-6.2,4.6-10.3,10.3-10.3c4.2,0,6.7,2.1,8.2,4.5l-3,1.5c-1-1.6-2.9-2.9-5.2-2.9
			c-3.8,0-6.8,3-6.8,7.2c0,4.2,2.9,7.2,6.8,7.2c2.3,0,4.2-1.2,5.2-2.9l3,1.5c-1.5,2.4-4,4.5-8.2,4.5
			C387.3,220.4,382.7,216.2,382.7,210z"/>
		<path class="st0" d="M405.9,200h3.5v20h-3.5V200z"/>
		<path class="st0" d="M419,205.4V220h-3.5v-20h3.6l10.2,14.2V200h3.5v20h-3.4L419,205.4z"/>
		<path class="st0" d="M448.5,199.7c3.9,0,6.4,1.9,8.1,4.2l-2.9,1.6c-1-1.5-2.9-2.7-5.2-2.7c-4,0-6.9,3-6.9,7.2
			c0,4.2,2.9,7.3,6.9,7.3c2,0,3.8-1,4.7-1.8v-3.1h-6v-3.1h9.5v7.5c-2,2.2-4.8,3.6-8.2,3.6c-5.8,0-10.5-4.1-10.5-10.4
			C438,203.7,442.7,199.7,448.5,199.7z"/>
	</g>
	<path class="st0" d="M184.2,111.9c0.3-0.1,3.8-0.4,3.8-0.4s-0.1-0.5-0.3-0.6c-0.3-0.2-2.4-1.7-3.2-1.7c-0.8,0-5.8,0.9-6.2,1.1
		c-0.3,0.2-1.3,1.1-1.4,1.3c-0.1,0.2-0.4,0.6-0.2,1c2.2,0.3,6,1.3,7.2,1.3c1.2,0,3-0.5,3-0.5s-0.1-0.3-0.4-0.4
		c-0.3-0.1-2.7-0.6-2.7-0.6S183.9,112.1,184.2,111.9 M213.4,127.6l-4.4-2.5c0,0-2-0.5-2.9-0.6c-0.8-0.2-2.6-1.1-2.6-1.1
		s-0.1,0.4,0,0.6c0.1,0.2,1.9,2.3,1.9,2.3s2.6,1.6,3.5,2.3c1,0.6,3.6,3.5,3.6,3.5l-10.4,5.9l-3.4-2.6l-3.2-4.3l-1.3-1l-0.8,0.1
		l2.9,6.7l2.8,2.9l-17,9.7c0,0,0-1.6,0-2.3c0-0.7-1.2-7.7-1.2-7.7l0-4l-0.6-0.5c0,0-1.3,3.3-1.5,5.3c-0.2,2-0.7,8.1-0.7,8.1
		L158.5,137c0,0,2-3.9,3-5c1-1.1,5.7-6.1,5.7-6.1s-0.5-0.2-0.9-0.1c-0.4,0.1-1.9,0.8-1.9,0.8s-4.7,3.1-6.3,4.5
		c-1.6,1.4-3.3,3.8-3.3,3.8l-5.9-3.4v-5c0,0,14.5-7,18-9.5s8.8-7.9,9.6-8.3c0.8-0.4,7.6-1.1,7.6-1.1s1.8-0.2,3,0.6
		c0.9,0.6,9.4,5.3,9.4,5.3l16.9,11.1V127.6z M201.9,88.3c-1.2,4.9-5.4,6.8-8.5,6.8c0,2.6-2.2,5.7-5.8,5.7h-5.1
		c-0.2,0.4,5.2,2.3,5,2.9c-0.4,1.2-0.7,2.6-0.8,2.9l-2-0.4l-6,0.5c-0.4-1-0.9-4.6-1.3-5.8c-1.4-0.2-2.5-0.7-3.3-1.6
		c-0.6-0.7-1-1.4-1-2.2c-2.8,0-4.6-1.3-4.7-3.9c-0.4,0.1-1.5,0.1-1.8,0.1c-3.3,0-7-1.5-8.2-3.6l22.9-13L201.9,88.3z M217,133.2V92.7
		l-35.8-20.3l-35.8,20.3v40.6l35.8,20.3L217,133.2z"/>
	<path class="st0" d="M281.2,104.7c0.1,0.9-1.4,3.1-3.9,3.7c-4,1.1-9.4,2.5-11.9,3.1c-1.8-1.1-5.5-2.5-6.1-2.8
		c0,0.4,0.1,0.4-0.2,0.9c0.6,0.3,5.4,4,5.8,4.4c0.5,0.5,1.2,6.7,1.5,7.4c0.8,1,3.3,2.6,3.3,2.7c0.4,1.2,3.2,4.2,2.5,5
		c-0.1-0.2-0.4-0.5-0.6-0.6c-0.1,0.4-0.4,0.6-0.8,0.2c0.8-0.2-0.3-1.4-1.7-4c0,0-0.3,0.1-0.3,0.1c-0.1-0.1-3.3-2.9-3.4-3
		c-0.1-0.1-0.3,0-0.4-0.1c-0.4-1.2,0-5.2-0.8-6.6c0,0-0.4,0-0.5,0c-1.6-1.4-4-3.3-5.6-4.1c-0.1,0.1-0.3,0.3-0.3,0.3
		c0.7,1,5.2,6.9,5.1,7.8c0,0-0.4,0.2-0.3,0.3c-0.8,2.9-1.7,6.9-1.4,7.6c0.3,0.6,1.8,4,2.5,4.7c0.1,0.1-0.1,0.3-0.1,0.4
		c2.4,3.5,4.1,3.9,4.5,4c-0.1,0.2-0.3,0.4-0.4,0.5c0.1,0.4-0.1,1-0.7,0.9c0.4-0.4,0.3-0.8-0.4-0.9c-1.6-0.4-3.5-2.7-6.6-9.4
		c-0.1-0.1-0.4-0.2-0.4-0.3c0-2.9,1.9-7.5,1.9-7.7c0,0-2.4-3.4-3.9-5.1c0,0.1,0,0.1-0.1,0.1c0,0.2,0.5,2.3,0.4,2.5
		c-0.1,0.2-0.2,0.4-0.2,0.5c0.1,0.3,0.3,2.4,0.3,2.9c0,0.1-0.1,0.2-0.1,0.3c-0.1,0-0.1,0.1-0.1,0.1c0,0.3,0.3,2.5,0.2,2.6
		c0,0.1-0.1,0.1-0.1,0.1c0,0.1,0.2,2.5,0.2,2.6c0,0.1-0.2,0.1-0.2,0.1c0,0.1,0.1,1.8,0.1,1.9c0,0-0.3,0.1-0.3,0.1
		c0,0.1-0.1,0.9-0.1,1c-0.1,0.1-0.4,0.1-0.4,0.2c0,0.1,0,0.7,0,0.7c0,0-0.3,0-0.3,0c-0.1,0-0.5,0.2-0.6,0.2h0h0h0
		c-0.1,0-0.5-0.2-0.6-0.2c-0.1,0-0.3,0.1-0.3,0c-0.1-0.1,0-0.7,0-0.7c0-0.1-0.4-0.1-0.4-0.2c0-0.1-0.1-0.9-0.1-1c0,0-0.3,0-0.3-0.1
		c0,0,0.1-1.8,0.1-1.9c0,0-0.2-0.1-0.2-0.1c0,0,0.2-2.4,0.2-2.6c0,0-0.1,0-0.1-0.1c0,0,0.2-2.3,0.2-2.6c0,0,0,0-0.1-0.1
		c-0.1,0-0.1-0.1-0.1-0.3c0-0.6,0.2-2.7,0.3-2.9c0.1-0.1,0-0.3-0.2-0.5c-0.1-0.2,0.3-2.2,0.4-2.5c0,0-0.1-0.1-0.1-0.1
		c-1.5,1.8-3.9,5.1-3.9,5.1c0,0.1,1.9,4.8,1.9,7.7c0,0.1-0.4,0.2-0.4,0.3c-3.1,6.7-5,9.1-6.6,9.4c-0.6,0.1-0.7,0.5-0.4,0.9
		c-0.5,0.1-0.8-0.5-0.7-0.9c-0.1-0.1-0.3-0.3-0.4-0.5c0.4-0.2,2.1-0.6,4.5-4c0-0.1-0.1-0.3-0.1-0.4c0.7-0.7,2.2-4.1,2.5-4.7
		c0.2-0.6-0.7-4.6-1.4-7.6c0,0-0.3-0.3-0.3-0.3c-0.1-0.9,4.4-6.9,5.1-7.8c0,0-0.2-0.2-0.3-0.3c-1.6,0.8-3.9,2.8-5.6,4.1
		c-0.1,0.1-0.5,0-0.5,0c-0.8,1.4-0.3,5.4-0.8,6.6c0,0.1-0.3,0-0.4,0.1c-0.1,0.1-3.3,3-3.4,3c0,0-0.3-0.1-0.3-0.1
		c-1.4,2.6-2.5,3.8-1.7,4c-0.4,0.3-0.8,0.2-0.8-0.2c-0.3,0.1-0.5,0.3-0.6,0.6c-0.7-0.7,2.1-3.8,2.5-5c0-0.1,2.5-1.7,3.3-2.7
		c0.4-0.7,1-6.9,1.5-7.4c0.4-0.4,5.2-4.1,5.8-4.4c-0.3-0.4-0.2-0.5-0.2-0.9c-0.6,0.3-4.3,1.6-6.1,2.8c-2.4-0.5-7.9-2-11.9-3.1
		c-2.5-0.7-3.9-2.8-3.9-3.7c0.1-0.9,2.2-1.4,4.6-1.2c1.9,0.1,12.1,4,15.6,4h1.7c0-0.2,0.1-0.4,0.1-0.4c-1.1-0.2-5.3-4.4-5.3-4.4
		c-0.2-1.8-2.2-4.8-2.3-5l0.1-0.3c-0.9-0.4-7.6-2.2-7.6-5.1c0-0.3,0.1-0.6,0.4-0.9c0,0.2,0.2,0.7,0.4,0.8c0,0,0.2,0,0.2,0
		c1.8,3,7.4,4.7,7.4,4.7c0.1,0,0.8,0.3,2.4,5.1c0.1,0.1,0.2,0.1,0.4,0.1c0.1,0.1,3.5,3.4,4.5,3.3c0.4-0.9,1.7-0.8,1.5-1.5
		c-1.6-0.1-1.7-0.8-1.2-1.7c-0.4-0.4-0.7-0.9-0.9-1.2c-0.2,0-1,0-1-0.1c0,0,0,0,0,0c0,0,0.6-0.4,0.7-0.4c-0.1-0.2-0.2-0.4-0.3-0.6
		c-0.2,0-1.3,0-1.3-0.1c0,0,0,0,0,0c0,0,0.9-0.4,1-0.4c-0.1-0.1-0.2-0.3-0.3-0.4c0,0-1.3-0.1-1.3-0.1c0,0,0,0,0,0c0,0,0.9-0.3,1-0.4
		c-0.1-0.1-0.2-0.2-0.2-0.3c-0.7,0.1-1.3,0-1.3,0c0,0,0,0,0,0c0,0,0.9-0.3,1-0.4c-0.1-0.1-0.2-0.2-0.3-0.4c0,0-1.1,0.1-1.1,0.1
		c0,0,0.7-0.4,0.8-0.4c-0.1-0.1-0.2-0.2-0.2-0.2c0,0-0.9,0.2-0.9,0.1c0,0,0.5-0.4,0.6-0.4c-0.1-0.1-0.2-0.2-0.3-0.3
		c0,0-0.7,0.2-0.7,0.1c0,0,0.3-0.3,0.4-0.4c-0.2-0.1-0.3-0.2-0.5-0.3c-0.1,0-0.5,0.2-0.5,0.1c0,0,0.2-0.3,0.2-0.3
		c-0.1-0.1-0.7-0.4-0.6-0.4c0.1,0,0.5,0.1,0.9,0.2c0,0,0.2-0.3,0.3-0.2c0,0,0,0.3,0,0.3c0.2,0.1,0.4,0.2,0.5,0.4
		c0-0.1,0.2-0.3,0.3-0.3c0,0,0,0.5,0,0.5c0.1,0.1,0.3,0.2,0.4,0.4c0.1-0.1,0.3-0.5,0.3-0.4c0,0,0,0.6-0.1,0.7
		c0.1,0.1,0.2,0.2,0.2,0.2c0.1-0.1,0.3-0.5,0.4-0.5c0,0-0.1,0.6-0.1,0.7c0.1,0.1,0.2,0.3,0.3,0.4c0.1-0.2,0.4-0.5,0.5-0.5
		c0,0-0.1,0.7-0.2,0.8c0.1,0.1,0.2,0.2,0.3,0.4c0.1-0.2,0.7-0.7,0.7-0.7c0,0-0.3,0.9-0.4,1.1c0.1,0.2,0.2,0.3,0.3,0.5
		c0.2-0.2,0.6-0.7,0.6-0.7c0,0-0.2,0.8-0.3,1.1c0.1,0.2,0.3,0.4,0.4,0.6c0.2-0.3,0.4-0.7,0.5-0.7c0,0-0.1,0.8-0.2,1.2
		c0.2,0.3,0.7,0.9,1.1,1.1c0.3,0.2,0.9-0.1,0.9-0.5c-0.7-0.1-1.2-0.5-1.2-1c0-0.4,0.5-0.7,0.8-0.7v0.6c0,0.4,0.1,0.6,0.5,0.6
		c0,0,0-6.9,0-8c0-0.7-0.2-2.1-0.3-2.5c-0.1-0.3-0.1-0.4,0-0.6c0.1-0.1,0.2-0.1,0.4-0.2c0.1,0,0.3-0.5,0.3-0.5h0
		c0,0,0.3,0.5,0.3,0.5c0.2,0,0.3,0.1,0.4,0.2c0.1,0.1,0,0.3,0,0.6c-0.1,0.3-0.3,1.7-0.3,2.5v8c0.4,0,0.5-0.3,0.5-0.6v-0.6
		c0.3,0,0.8,0.2,0.8,0.7c0,0.5-0.5,0.9-1.2,1c0,0.5,0.6,0.7,0.9,0.5c0.4-0.2,0.9-0.8,1.1-1.1c-0.1-0.4-0.2-1.2-0.2-1.2
		c0,0,0.3,0.4,0.5,0.7c0.1-0.2,0.2-0.4,0.4-0.6c-0.1-0.3-0.3-1.1-0.3-1.1c0,0,0.4,0.5,0.6,0.7c0.1-0.2,0.2-0.3,0.3-0.5
		c-0.1-0.2-0.4-1.1-0.4-1.1c0,0,0.6,0.5,0.7,0.7c0.1-0.1,0.2-0.2,0.3-0.4c-0.1-0.1-0.2-0.8-0.2-0.8c0,0,0.3,0.4,0.5,0.5
		c0.1-0.1,0.2-0.3,0.3-0.4c0-0.1-0.2-0.7-0.1-0.7c0,0,0.3,0.3,0.4,0.5c0.1-0.1,0.2-0.2,0.2-0.2c0-0.1-0.1-0.7-0.1-0.7
		c0,0,0.3,0.4,0.3,0.4c0.1-0.1,0.3-0.2,0.4-0.4c0,0,0-0.5,0-0.5c0,0,0.2,0.2,0.3,0.3c0.2-0.1,0.3-0.3,0.5-0.4c0,0,0-0.3,0-0.3
		c0,0,0.2,0.2,0.3,0.2c0.3-0.1,0.8-0.2,0.9-0.2c0,0-0.5,0.3-0.6,0.4c0,0,0.2,0.3,0.2,0.3c0,0-0.4-0.1-0.5-0.1
		c-0.2,0.1-0.3,0.2-0.5,0.3c0.2,0.1,0.4,0.4,0.4,0.4c0,0-0.7-0.1-0.7-0.1c-0.1,0.1-0.2,0.2-0.3,0.3c0.1,0,0.6,0.4,0.6,0.4
		c0,0-0.9-0.1-0.9-0.1c-0.1,0.1-0.2,0.2-0.2,0.2c0.1,0,0.8,0.4,0.8,0.4c0,0-1.1-0.1-1.1-0.1c-0.1,0.1-0.2,0.2-0.3,0.4
		c0.1,0,1,0.3,1,0.4c0,0,0,0,0,0c0,0-0.6,0.1-1.3,0c-0.1,0.1-0.2,0.2-0.2,0.3c0.1,0,1,0.3,1,0.4c0,0,0,0,0,0c0,0-1.3,0.1-1.3,0.1
		c-0.1,0.1-0.2,0.3-0.3,0.4c0.1,0,1,0.3,1,0.4c0,0,0,0,0,0c0,0-1.1,0.1-1.3,0.1c-0.1,0.2-0.2,0.4-0.3,0.6c0.1,0,0.7,0.3,0.7,0.4
		c0,0,0,0,0,0c0,0-0.8,0.1-1,0.1c-0.2,0.4-0.5,0.8-0.9,1.2c0.5,0.9,0.4,1.5-1.2,1.7c-0.2,0.7,1.1,0.7,1.5,1.5
		c0.9,0.1,4.4-3.2,4.5-3.3c0.2,0,0.2,0,0.4-0.1c1.6-4.8,2.3-5,2.4-5.1c0,0,5.6-1.6,7.4-4.7c0.1,0,0.2,0,0.2,0
		c0.2-0.1,0.3-0.5,0.4-0.8c0.3,0.3,0.4,0.6,0.4,0.9c0,2.9-6.6,4.7-7.6,5.1l0.1,0.3c-0.1,0.2-2.1,3.2-2.3,5c0,0-4.3,4.2-5.3,4.4
		c0,0,0.1,0.2,0.1,0.4h1.7c3.5,0,13.7-3.9,15.6-4C279,103.3,281.2,103.7,281.2,104.7 M292.7,133.7V92.8l-36.1-20.4l-36.1,20.4v40.9
		l36.1,20.4L292.7,133.7z"/>
	<path class="st0" d="M296.4,63.7c-0.4,0.1-1.4,0.2-1.5-0.2c-0.1-0.2,0.3-0.8,1-1c0.7-0.3,1.3-0.1,1.4,0.1l2-1.5
		c-0.7-0.9-1.8-1.3-3.1-1.2l-0.5-1.3l-2.4,0.9l0.5,1.3c-1.2,0.9-1.9,2.3-1.4,3.7c0.6,1.5,2,2.1,4.2,1.8c1.4-0.2,1.8,0.1,1.8,0.1
		c0.1,0.2-0.3,0.8-1,1c-0.7,0.3-1.3,0.1-1.4-0.1l-2,1.5c0.7,0.9,1.8,1.3,3.1,1.2l0.5,1.3l2.4-0.9l-0.5-1.3c1.2-0.9,1.9-2.3,1.4-3.7
		C300.4,63.9,298.8,63.4,296.4,63.7"/>
	<path class="st0" d="M300,74.2c-5.2,1.9-10.8-0.8-12.6-5.9c-1.9-5.2,0.8-10.8,5.9-12.6c5.1-1.9,10.8,0.8,12.6,5.9
		C307.8,66.7,305.2,72.3,300,74.2 M292.9,54.3c-5.9,2.1-8.9,8.6-6.7,14.4s8.5,8.9,14.4,6.7c5.9-2.1,8.9-8.5,6.7-14.4
		C305.2,55.2,298.7,52.2,292.9,54.3"/>
	<path class="st0" d="M279.5,69c1.2,0,2.1,0.9,2.1,2.1c0,1.2-0.9,2.1-2.1,2.1c-1.2,0-2.1-0.9-2.1-2.1C277.3,69.9,278.3,69,279.5,69"
		/>
	<path class="st0" d="M312.6,57c1.2,0,2.1,0.9,2.1,2.1c0,1.2-0.9,2.1-2.1,2.1c-1.2,0-2.1-0.9-2.1-2.1C310.5,58,311.4,57,312.6,57"/>
	<path class="st0" d="M326.3,49.6l-5.9-16.2h-0.2l-11.5,4.2l-46.9,17v-1.7l59.6-21.5l4.7,13.1V49.6z M326.3,65.9
		c-1,1-1.8,2.2-2.3,3.4l-30,16.9l-30-17l-1-2.8c4.2-2.5,6.5-7.3,5.7-12.1l41-14.8c2.6,4.4,7.7,6.7,12.7,5.9l3.8,10.5V65.9z
		 M261.9,47.8l25.1-18c3.6,3.4,8.8,4.2,13.2,2.1l3.7,5.1l-42,15.2V47.8z M261.9,43.2l33.7-24.3l11.9,16.6l-1.6,0.6l-10.8-15
		l-2.5,1.8l-7.1,5.2l-23.6,17V43.2z M294.1,9.3l-35.8,20.3v40.6l35.8,20.3l35.8-20.3V29.6L294.1,9.3z"/>
</g>
</svg>
