<?xml version="1.0" encoding="utf-8"?>
<!-- Generator: Adobe Illustrator 21.1.0, SVG Export Plug-In . SVG Version: 6.00 Build 0)  -->
<svg version="1.1" id="Layer_1" xmlns="http://www.w3.org/2000/svg" xmlns:xlink="http://www.w3.org/1999/xlink" x="0px" y="0px"
	 viewBox="0 0 500 500" style="enable-background:new 0 0 500 500;" xml:space="preserve">
<style type="text/css">
	.st0{opacity:0.4;}
</style>
<g class="st0">
	<ellipse transform="matrix(6.006427e-02 -0.9982 0.9982 6.006427e-02 14.501 565.3775)" cx="307.5" cy="275" rx="1.2" ry="3.3"/>
	<ellipse transform="matrix(0.9986 -5.249633e-02 5.249633e-02 0.9986 -14.21 10.3732)" cx="190.4" cy="275.7" rx="3.7" ry="1.4"/>
	<path d="M183.9,289.1l-8.2,9.9c-0.4,0.6-1.8,1.2-2.7,1.2c-0.6,0-0.6,1,0,1c1.4,0,2.9-0.8,3.7-1.8l7.6-9.5
		C184.9,289.5,184.3,288.7,183.9,289.1z"/>
	<polygon points="184.5,212.5 160,208.8 139.6,209.5 142.1,210.1 160,209.7 182.6,213.2 	"/>
	<polygon points="210.2,229.4 206.7,227.2 209.4,230.4 	"/>
	<polygon points="211.4,239.7 212.9,239.3 207.9,235.6 	"/>
	<polygon points="208.5,223.5 213.1,227.6 213.9,226.5 209.6,222.8 190.9,214.2 192.1,215.6 	"/>
	<polygon points="202.6,225.9 191.3,218.9 191.5,219.7 200.1,225.5 197.9,226.1 203.8,232.5 205.5,232.5 199.5,226.7 	"/>
	<polygon points="176.7,215.8 187.1,218.5 187.6,217.5 175.6,215 	"/>
	<polygon points="196.4,236 198.3,236.2 193.9,232.5 196,232.3 190.7,228.4 190.7,229.4 193.3,231.7 192.1,232.5 	"/>
	<polygon points="188,223 175.8,218.9 176.2,219.7 183.9,222.8 182.4,223.4 187.6,225.5 189.8,225.5 185.3,223.5 	"/>
	<polygon points="166.8,213.6 155.1,212.7 156.3,213.6 164.9,214.4 163.9,216.2 169.9,216.9 170.7,216 165.7,215.4 	"/>
	<polygon points="173,224.5 179.3,226.7 180.8,226.3 172.9,223.5 	"/>
	<polygon points="338.6,209.7 356.7,210.1 359,209.5 338.8,208.8 314.1,212.5 316,213.2 	"/>
	<polygon points="289.2,230.4 292.1,227.2 288.4,229.4 	"/>
	<polygon points="287.2,239.7 290.9,235.6 285.7,239.3 	"/>
	<polygon points="306.5,215.6 307.7,214.2 289,222.8 284.9,226.5 285.7,227.6 290.2,223.5 	"/>
	<polygon points="298.5,225.5 307.1,219.7 307.3,218.9 296,225.9 299.1,226.7 293.1,232.5 294.8,232.5 300.9,226.1 	"/>
	<polygon points="321.9,215.8 323,215 311.2,217.5 311.6,218.5 	"/>
	<polygon points="304.8,232.5 300.3,236.2 302.2,236 306.5,232.5 305.3,231.7 308.1,229.4 307.9,228.4 302.6,232.3 	"/>
	<polygon points="311.2,225.5 316.2,223.4 314.7,222.8 322.5,219.7 322.9,218.9 310.6,223 313.3,223.5 308.8,225.5 	"/>
	<polygon points="333.2,215.4 327.9,216 328.7,216.9 334.9,216.2 333.7,214.4 342.3,213.6 343.5,212.7 331.8,213.6 	"/>
	<polygon points="319.4,226.7 325.6,224.5 325.8,223.5 318,226.3 	"/>
	<path d="M368.4,229c-3.1,0.6-5.4,1.6-6.6,2.5c2.5,1.9,1.8,5.3,0.6,6.4c7.4,3.9,17.5-4.5,21.8-3.5l2.3-2.1
		c-5.4-2.5-10.1-3.5-13.8-3.7l-0.8,0.8l0.8,0.8c2.7,0,5.1,0.6,5.8,0.8c-6.2,0.8-3.1,0.4-2.5,0.6c0.8,0.4,4.1,0.4,4.1,0.8
		c-2.3,0-6.6-0.2-8.6,0.8c-0.6,0.4,8,0,2.7,0.8l-7.8,0.8l7,0.6c-0.6,0-9.5,0.4-9.9,0c-0.2-0.2,1.4-0.6,1.2-1c-0.2-0.6-1.6,0-1.4-1
		c0.6-0.2,5.1-1.8,8.4-2.3c0.8-0.2-6,0.2-5.1,0L368.4,229z"/>
	<path d="M366.6,262.1l15,1.9c0.2,0.2,0.4,0.4,0.4,1.2c-0.2,1,0.8,0.6,0.8,0.4c0,0,0.6-1.2-0.4-2.1c-0.2-0.4-0.6-0.4-0.6-0.4
		l-15.4-1.9c0,0-0.4,0-0.4,0.4C366.2,261.9,366.6,262.1,366.6,262.1z"/>
	<path d="M380.1,269.5c-0.2,0.4,0,0.6-1,1.2c-1,0.6,0.2,0.8,0.4,0.8c0,0,1.4-0.2,1.8-1.6C381.4,269.5,380.4,269.1,380.1,269.5z"/>
	<path d="M290,279.8h-29l0,0h-5.8c-0.4,0-0.6,0.2-0.6,0.6s0.2,0.6,0.6,0.6h5.4l0.6,2.9c0,0.2,0.4,0.4,0.6,0.4c0,0,0,0,0.2,0
		c0.4,0,0.6-0.4,0.4-0.8l-0.6-2.7H282l1,3.1c0,0.2,0.4,0.4,0.6,0.4h0.2c0.4,0,0.6-0.4,0.4-0.8l-0.8-2.7h6.6c0.4,0,0.6-0.2,0.6-0.6
		C290.6,280.2,290.4,279.8,290,279.8z"/>
	<path d="M251.1,279.8h-46.9c-0.4,0-0.6,0.2-0.6,0.6s0.2,0.6,0.6,0.6h10.9l-0.8,2.9c0,0.4,0.2,0.6,0.4,0.8c0,0,0,0,0.2,0
		s0.6-0.2,0.6-0.4l0.8-2.9h22v2.9c0,0.4,0.2,0.6,0.6,0.6l0,0c0.4,0,0.6-0.2,0.6-0.6v-2.9h11.7c0.4,0,0.6-0.2,0.6-0.6
		C251.6,280.2,251.5,279.8,251.1,279.8z"/>
	<path d="M94.6,279.8h-2.7c-0.4,0-0.6,0.2-0.6,0.6s0.2,0.6,0.6,0.6h2.7c0.4,0,0.6-0.2,0.6-0.6C95.2,280.2,95,279.8,94.6,279.8z"/>
	<path d="M155.3,279.8h-35.8c-0.4,0-0.6,0.2-0.6,0.6s0.2,0.6,0.6,0.6h3.7l-2.3,2.5c-0.2,0.2-0.2,0.6,0,0.8c0.2,0.2,0.2,0.2,0.4,0.2
		c0.2,0,0.4,0,0.4-0.2l3.1-3.3l0,0h18.5l-1.9,2.5c-0.2,0.2-0.2,0.6,0.2,0.8c0.2,0,0.2,0.2,0.4,0.2c0.2,0,0.4,0,0.4-0.2l2.3-3.3h10.5
		c0.4,0,0.6-0.2,0.6-0.6C155.9,280.2,155.5,279.8,155.3,279.8z"/>
	<path d="M114.7,279.8H98.3c-0.4,0-0.6,0.2-0.6,0.6s0.2,0.6,0.6,0.6h3.5l-2.5,2.5c-0.2,0.2-0.2,0.6,0,0.8c0.2,0.2,0.2,0.2,0.4,0.2
		c0.2,0,0.4,0,0.4-0.2l3.3-3.3l0,0h11.1c0.4,0,0.6-0.2,0.6-0.6C115.3,280.2,114.9,279.8,114.7,279.8z"/>
	<path d="M89.2,279.8H78.1c-0.4,0-0.6,0.2-0.6,0.6s0.2,0.6,0.6,0.6H82l-2.7,2.3c-0.2,0.2-0.2,0.6,0,0.8c0.2,0.2,0.2,0.2,0.4,0.2
		c0.2,0,0.2,0,0.4-0.2l3.7-3.3l0,0H89c0.4,0,0.6-0.2,0.6-0.6C89.8,280.2,89.4,279.8,89.2,279.8z"/>
	<path d="M389,280.9h6.4l3.7,3.5c0.2,0.2,0.2,0.2,0.4,0.2c0.2,0,0.4,0,0.4-0.2c0.2-0.2,0.2-0.6,0-0.8l-2.7-2.5H416l4.1,3.5
		c0.2,0.2,0.2,0.2,0.4,0.2s0.4,0,0.4-0.2c0.2-0.2,0.2-0.6,0-0.8l-2.9-2.5h2.5c0.4,0,0.6-0.2,0.6-0.6c0-0.4-0.2-0.6-0.6-0.6h-4.1
		h-0.2h-20.4h-0.2H389c-0.4,0-0.6,0.2-0.6,0.6C388.4,280.6,388.8,280.9,389,280.9z"/>
	<path d="M362.7,280.9h10.7l2.9,3.5c0.2,0.2,0.2,0.2,0.4,0.2s0.2,0,0.4-0.2c0.2-0.2,0.2-0.6,0-0.8l-2.3-2.7h10.1
		c0.4,0,0.6-0.2,0.6-0.6c0-0.4-0.2-0.6-0.6-0.6h-11.1h-0.2h-10.9c-0.4,0-0.6,0.2-0.6,0.6C362.2,280.6,362.3,280.9,362.7,280.9z"/>
	<path d="M324.4,292.4h111.1l-1.4-6.6l-7.6-7.8l-0.6-2.9l-15.4-13.2h-24.7c-0.2-0.2-1-1.9-3.9-2.3l-79.2-9.1l2.1-0.4
		c0,0,4.7-0.4,7.8-1.2c2.7-0.6,4.3-1.6,4.3-1.6c1.4,0.2,3.1,0,3.1,0s40.1-8.6,41.1-8.8c1-0.2,1.4-1.2,1.4-1.2
		c1.6-2.7,0.2-4.5-0.6-5.4c-0.8-0.8-1.4-0.6-1.4-0.6s-39.5,4.5-41.8,4.9s-3.5,1.2-3.5,1.2c-0.8-0.4-1.6-0.6-2.3-0.6l9.1-4.3
		l-2.7-1.6l17.9-4.9l-4.1-3.3l20-2.3l-3.7-3.3l22.4-1l-4.3-2.9l15-1.4l10.1,0.8l12.1-1.8l-40.7-7l-2.9,1.9l0.4-2.1l-25.5-0.8
		l-28.4,4.5l-1.8,1.9l-2.3-1.2L282,219.1l-6,6.4l2.9,6l4.1,1.9l-2.9,2.9l-0.2,0.8l-13.2-12.3c0.4-0.4,0.6-1.9,0.6-1.9v-9.1
		c-0.2-6.6-12.5-8.4-12.5-8.4l-1.4-9.7c-0.4-2.7-4.3-2.7-4.3-2.7c-4.7,0-4.7,2.7-4.7,2.7l-1.4,9.7c-14.4,2.1-13.4,8.4-13.4,8.4v8.4
		c-0.2,1.9,2.1,3.3,2.1,3.3l-12.1,12.1l-0.4-1.4l-3.3-2.5l4.1-1.9l2.9-6l-6-6.4l-21.6-10.9l-2.3,1.2l-1.8-1.9l-28.2-4.5l-25.7,0.8
		l0.4,2.1l-2.9-1.9l-40.7,7l12.1,1.8l10.1-0.8l15,1.4l-4.3,2.9l22.4,1l-3.7,3.3l20,2.3l-4.1,3.3l17.9,4.9l-2.7,1.6l8.9,4.1
		l-33.7-3.9c0,0-17.1,1.4-29.8,2.3l-1.6,2.3l2.5,1.6c0,0,17.7,5.1,26.7,9.3l50.6,5.3c-17.3,2.9-33.7,5.6-47.7,8H88.6l-14,13.2
		l-1.4,3.5l-8.2,9.3l-1.2,4.7h109.9c0.4,1.2,1,1.8,1,1.8l-2.3,2.7c-1.9,2.7-1.4,4.3-1.4,4.3l-1.4,3.1l2.9-1.8c3.7,0.4,6-2.7,6-2.7
		l3.7-4.7h6.8l2.3-2.7h114.8l2.3,2.7h7.2l8.4,12.3l0.8-3.1l-10.1-13.2c0,0-1-1.2-0.4-1.6c0.6-0.6,1,0.2,1,0.2l10.1,13l1.2-3.7
		l-3.9-4.5C323.6,294,324.2,293.2,324.4,292.4z M385.3,270.6c1-1.9,1.4-3.7,1.4-5.1h22.2l12.1,10.3H317.6c0.6-4.7-8.4-6.2-8.4-6.2
		l-3.7-4.3l74.5,8.2C379.9,273.7,383,274.9,385.3,270.6z M307.5,272.4c4.1,0.2,7.4,1.8,7.4,3.3s-3.5,2.5-7.6,2.1
		c-4.1-0.2-7.4-1.8-7.4-3.3C300.1,273.2,303.4,272,307.5,272.4z M299.1,271.4l-23.9-26.5l11.5,3.1l19.1,22h-1
		C300.5,269.9,299.1,271.4,299.1,271.4z M363.9,260.3c0.6,0,0.4-0.4,0.4-0.4l-0.2-0.4l18.3,1.9c1,0,1.4,1,1.4,1c1.2,1.6,1,4.5,0,6.8
		c-1.4,2.9-3.3,3.1-3.3,3.1l-15.6-1.8c0,0,1.4-2.3,1.2-2.3l12.3,1.6c1,0.2,1.4-1,0.8-1l-13-1.6c0,0-0.8,0-1,0.6l-1.4,2.9l-1-0.2
		c0,0,0.8-1.4,1.4-2.7c0-0.2,0.4-1-0.6-1l-63-7l-1-1.2l63.8,7.2c1,0,1.2-0.6,1.2-0.6l0.2-3.1c0-0.8-0.8-1-0.8-1l-69.1-7.8l-0.8-1
		L363.9,260.3z M306.3,242.6c0,0-6.8,1-18.3,2.7l-1.9-1.8c13.2-1.9,19.5-2.7,19.5-2.7C305.9,241.3,306.3,241.8,306.3,242.6z
		 M306.7,239.7l1.8-0.8c0.2,0,0.4,0,0.6,0.2c0,0,1.2,0.6,2.3,2.5v0.2c0,0-1.4-0.2-3.5,0.2C307.9,242,307.3,240.7,306.7,239.7z
		 M312,244.6c-1,0.8-1.6,0.8-1.6,0.8l-1.6-1.4l3.1-0.6C311.8,243.4,312,244.2,312,244.6z M316.6,243.6c-0.4,0.6-2.9,1.4-2.9,1.4
		l-0.2-1.8l3.1-0.8C316.6,242.4,316.8,243.2,316.6,243.6z M362,234.6c0,0,0.2,0.8-0.2,1.2l-38.5,7c0,0-2.9,0.6-4.5,0.6
		c0,0-0.2-1-0.2-1.6L362,234.6z M318.8,237.6l41.8-5.1c0.6,0.2,1.2,1.4,1.2,1.4l-43.8,6.8c-0.8-1.8-1.9-2.7-1.9-2.7
		C317,237.6,318.8,237.6,318.8,237.6z M314.5,238.5c0,0,1.4,1.2,1.8,2.5c-1.2,0-3.3,0.4-3.3,0.4s-0.6-1.8-2.3-2.9
		C310.6,238.5,312,237.6,314.5,238.5z M282,229l-2.1-2.7l5.3-4.7l21.4-10.3l29.4-5.1l24.5,1l19.8,3.1l-19.8,1.9l3.7,2.3l-20.2,1.4
		l3.9,3.1l-20.4,2.9l5.1,3.5l-18.9,5.1l3.5,2.3l-10.7,4.7c-1.6,0-2.7,0.2-2.7,0.2l0.4,0.8c-0.4-0.2-1.2-0.2-1.2-0.2h-0.6
		c-2.3,0.2-4.7,0.6-7.4,0.8l2.5-2.3l-4.1,2.5c-3.1,0.4-6.6,0.8-10.3,1.4l-0.2-0.2l0.6-2.9l3.9-3.5l-0.2-2.3L282,229z M251.3,197.1
		l1,8.6h-1.2l-0.8-9.7C250.9,196.1,251.3,196.5,251.3,197.1z M246,197.1c0.4-1.2,1.8-1.8,3.1-1.6l0.2,9.9c-2.7,0-4.1,0.2-4.1,0.2
		L246,197.1z M230.6,214.2c0-3.9,8-7.6,17.5-7.6c9.7,0,17.5,3.5,17.5,7.6c0,2.9-4.1,5.3-9.9,6.4c-1.6-0.6-2.7-1-4.1-1l-0.4-5.4
		c3.1,0.4,6.6,1.8,6.6,3.7c2.7-1,4.5-2.1,4.5-3.7c0-2.7-6.2-5.4-14-5.4c-7.8,0-14.2,2.5-14.2,5.4c0,1.4,1.8,2.7,4.5,3.7
		c0.2-2.5,4.1-3.5,7.6-3.7l-0.2,5.4c-1.6,0.2-3.3,0.6-4.5,1.2C235.1,219.7,230.6,217.1,230.6,214.2z M244.6,220.4
		c0.8,0,2.1-0.4,4.5-0.4c2.3,0,3.5,0.2,4.5,0.6l-4.5,1.2l5.8,1.9c-1.4,0.6-3.5,1-5.8,1c-2.1,0-4.7-0.4-6-1c0,0,5.8-1.9,6-1.9
		C248.9,221.8,244.6,220.4,244.6,220.4z M246.8,219.5l0.2-6.8c0-1,1-1.6,1.9-1.6c0.2,0,0.2,0,0.4,0l0.2,8.2
		C248.7,219.5,247.8,219.5,246.8,219.5z M250.1,211.7c0.2,0.2,0.4,0.6,0.4,1l0.4,6.8h-0.6L250.1,211.7z M181.8,232.9l3.5-2.3
		l-18.9-5.1l5.1-3.5l-20.4-2.9l3.9-3.1l-20.4-1.6l3.7-2.3l-19.7-2.1l19.8-2.9l24.5-1l29.4,5.1l21.4,10.3l5.3,4.7l-2.1,2.7l-5.1,2.9
		l-0.2,2.3l3.3,3.3l1.4,2.9l-11.3-1.4l-3.5-2.1l2.3,1.9l-8.2-1L181.8,232.9z M153.6,243.4c-0.6,0-1,0.2-1.2,0.6
		c-0.4,0.8-1,1.8-1.6,2.5c-7.2-2.5-18.7-6-18.7-6l1.9-0.4l-1-0.8c0,0,11.3,2.5,16.3,4.1c-5.8-2.5-15.6-5.3-15.6-5.3l-1.2-1.8
		c1.9,0,19.8-1.6,19.8-1.6l0.4,1c0,0,0.2,0.8,1.2,0.8l60.1,6.8l-0.8,0.8l-58.6-6.6c-1.8-0.2-1.6,1-1.6,1l-0.2,2.7
		c0,1.2,1.2,1.4,1.2,1.4l54.5,6.2l-1,1l0,0L153.6,243.4z M209.8,251l29-28.6l1.4,0.2c0,0,0,3.1,8.9,3.1c8.8,0,8.4-3.3,8.4-3.3
		l1.6-0.4l25.9,24.1l-11.5-3.1l-16.3-18.1c0,0-3.5,1.6-8.2,1.6c-4.5,0-7.2-1-8.2-1.6l-42.2,46.7c0,0-1.9-1.4-6.4-1.4L209.8,251z
		 M283.6,265.6l8.8,10.5h-87l9.7-11.5c0.2,0,0.4,0,0.6-0.2l-1.2,1.2H283.6z M222.9,255.6l1.4-1.9l6.6-1l6.2,0.8L222.9,255.6z
		 M249.1,259.3l20.6,2.3l-36.4,0.2C238.8,261.1,244.1,260.1,249.1,259.3z M226.4,251.2l0.8-1l48.2,5.4l0.8,1L226.4,251.2z
		 M270.1,249.6L270.1,249.6l0.6,0.8l-40.1-4.5l0.6-0.8L270.1,249.6z M233.7,242.2l8-9.5c8.9,2.3,15.2,0,15.2,0l8.4,10.5
		c-1.9,0.4-5.3,0.8-9.3,1.6L233.7,242.2z M270.1,246.3l-12.1-14.2v-3.9l13.4,15C269.9,244,270.1,246.3,270.1,246.3z M190.4,272.6
		c4.3-0.2,7.8,1,8,2.5c0,1.6-3.3,3.1-7.6,3.3c-4.3,0.2-7.8-1-8-2.5C182.6,274.3,186.1,272.8,190.4,272.6z M179.7,276.1
		c-7.4,0-35.6,0-60.3,0c26.8-2.7,50.8-5.4,71.6-8.2l-2.5,2.7C181.4,271.8,179.7,274.1,179.7,276.1z M200.7,257.2l-2.1,2.3
		c-22.2,3.7-71.2,11.1-89.7,14.6c-2.1,0.2-2.3-1.2-0.8-1.6C131.6,268.3,180,260.7,200.7,257.2z M90.4,265.6h41.2
		c-12.3,2.1-20.8,3.9-23.7,4.7c-5.4,1.4-7.2,4.3-4.7,5.8c-13.8,0-23.9,0-23.9,0L90.4,265.6z M173.4,287.9H70.3l6.6-7.4l0.6-1.9
		h102.9c0,0.2,0.2,0.2,0.2,0.2l-1.4,1h-18.5c-0.4,0-0.6,0.2-0.6,0.6s0.2,0.6,0.6,0.6h3.5l-1.6,3.1c-0.2,0.4,0,0.6,0.2,0.8h0.2
		c0.2,0,0.4-0.2,0.6-0.4l1.9-3.7h12.5l-2.9,2.9C174.2,285.4,173.6,286.8,173.4,287.9z M175.8,288.5c0,0,0.4-1.9,1-2.3h10.5
		c0.6,0,1.4,2.3,1.4,2.3h-2.9c0,0-0.4-1.6-2.5-1.8c-2.3-0.2-3.5,1.8-3.5,1.8H175.8z M178.7,289.7l-2.1,2.7c-1-1.2-0.8-2.7-0.8-2.7
		H178.7z M177.7,299.8c-1.9,2.5-5.4,2.3-5.4,2.3l-1.8,1.2l0.8-1.9c0,0-0.4-2.3,1.9-4.7l7.2-8.6c1-1.2,4.1-1.6,4.7,1.2
		c0.2,1-0.4,1.8-0.4,1.8L177.7,299.8z M188.8,290.1c-0.2,1.8-1.4,2.7-1.4,2.7h-3.1l1-1.4c0.8-1.2,0.6-1.8,0.6-1.8h2.9
		C188.8,289.7,188.8,290.1,188.8,290.1z M187.2,283.5h-8l3.7-3.5c0,0,3.1,1.6,6.6,1.2l0,0L187.2,283.5z M189.4,284.8l3.7-4.1
		c1.4-0.2,2.9-0.8,2.9-0.8l-5.4,6.4C190.4,286,189.4,284.8,189.4,284.8z M191.1,290.3c0.6-1.2,0-2.7,0-2.7s7.6-9.1,7.8-9.3
		c0.2-0.2,1-0.8,1-0.8c2.1-2.7,0-4.9,0-4.9l40.1-44.4v3.9L191.1,290.3z M195.4,287.9l8-9.5h91.1l8,9.3L195.4,287.9z M306.9,290.3
		l-35.2-42.6c-0.6-2.7,0.8-3.7,0.8-3.7l25.3,28.2c-1.9,2.9,0.6,4.9,0.6,4.9l8.6,10.5C306.5,289.1,306.9,290.3,306.9,290.3z
		 M307.5,286.4l-5.8-7.2c1.4,0.6,2.9,0.8,2.9,0.8l4.1,4.5C308.1,285,307.5,286.4,307.5,286.4z M308.3,280.6c3.3,0.4,6.6-1.2,6.6-1.2
		l4.3,4.1h-8.4L308.3,280.6z M310.2,293c-1.4-1.4-1.2-3.1-1.2-3.1h3.5c0,0,0.2,0.6,0.4,1l1.4,2.1H310.2z M312.9,288.5h-3.5
		c0.4-1.4,1.4-2.5,1.4-2.5h10.5c0.6,0.8,0.8,2.5,0.8,2.5h-4.3C315.7,286,313.1,287.7,312.9,288.5z M321.5,292.8l-2.5-3.3h3.3
		C322.3,289.7,322.7,291.4,321.5,292.8z M319.9,280.9h6.4l1.4,3.3c0.2,0.2,0.4,0.4,0.6,0.4h0.2c0.4-0.2,0.4-0.4,0.4-0.8l-1.2-2.7
		h20.8l0,0l1.9,3.7c0.2,0.2,0.4,0.4,0.6,0.4c0.2,0,0.2,0,0.2,0c0.2-0.2,0.4-0.6,0.2-0.8l-1.8-3.1h5.6c0.4,0,0.6-0.2,0.6-0.6
		c0-0.4-0.2-0.6-0.6-0.6h-28.6h-0.2h-8l-1.2-1.8h104.9l0.4,1.4l7.2,6.4l0.2,1.8H324.8c-0.6-2.3-1.9-4.1-1.9-4.1L319.9,280.9z"/>
</g>
</svg>
