<?xml version="1.0" encoding="utf-8"?>
<!-- Generator: Adobe Illustrator 21.1.0, SVG Export Plug-In . SVG Version: 6.00 Build 0)  -->
<svg version="1.1" id="Layer_1" xmlns="http://www.w3.org/2000/svg" xmlns:xlink="http://www.w3.org/1999/xlink" x="0px" y="0px"
	 viewBox="0 0 466 147" style="enable-background:new 0 0 466 147;" xml:space="preserve">
<style type="text/css">
	.st0{fill:#FFFFFF;}
	.st1{fill:#FF534E;}
	.st2{fill:#05B59E;}
	.st3{fill:#85AD51;}
</style>
<g>
	<path class="st0" d="M56.7,43.5c0.3-0.1,3.5-0.3,3.5-0.3s-0.1-0.4-0.3-0.6c-0.2-0.2-2.2-1.5-2.9-1.5c-0.7,0-5.3,0.8-5.6,1
		c-0.3,0.2-1.2,1-1.3,1.2c-0.1,0.2-0.4,0.5-0.2,0.9c2,0.3,5.5,1.2,6.5,1.2c1.1,0,2.7-0.5,2.7-0.5s-0.1-0.2-0.3-0.3
		c-0.2-0.1-2.5-0.5-2.5-0.5S56.4,43.6,56.7,43.5 M83.2,57.7l-4-2.2c0,0-1.8-0.4-2.6-0.6c-0.8-0.2-2.4-1-2.4-1s0,0.4,0,0.5
		c0.1,0.1,1.7,2.1,1.7,2.1s2.3,1.5,3.2,2c0.9,0.6,3.3,3.1,3.3,3.1L73.1,67L70,64.7l-2.9-3.9l-1.2-0.9l-0.8,0.1l2.7,6.1l2.5,2.6
		l-15.4,8.8c0,0,0-1.4,0-2.1s-1.1-7-1.1-7l0-3.6l-0.5-0.5c0,0-1.2,3-1.4,4.8c-0.2,1.8-0.6,7.3-0.6,7.3L33.5,66.2
		c0,0,1.8-3.5,2.7-4.5c0.9-1,5.1-5.5,5.1-5.5S40.9,56,40.6,56c-0.4,0.1-1.7,0.8-1.7,0.8s-4.3,2.8-5.7,4.1c-1.5,1.3-3,3.4-3,3.4
		l-5.3-3v-4.5c0,0,13.1-6.3,16.3-8.6c3.2-2.3,8-7.2,8.7-7.5c0.8-0.4,6.8-1,6.8-1s1.6-0.1,2.8,0.5c0.8,0.5,8.5,4.8,8.5,4.8L83.2,55
		V57.7z M72.7,22.1c-1,4.5-4.9,6.2-7.7,6.2c0,2.4-2,5.1-5.2,5.1h-4.7c-0.2,0.4,4.7,2.1,4.5,2.6c-0.4,1.1-0.6,2.3-0.7,2.6l-1.8-0.4
		l-5.5,0.5c-0.4-0.9-0.8-4.2-1.2-5.2c-1.2-0.2-2.3-0.7-3-1.5c-0.5-0.6-0.9-1.3-0.9-2c-2.5,0-4.2-1.2-4.2-3.6c-0.3,0-1.3,0.1-1.7,0.1
		c-3,0-6.3-1.3-7.5-3.3L54,11.5L72.7,22.1z M86.4,62.8V26L54,7.6L21.6,26v36.8L54,81.2L86.4,62.8z"/>
</g>
<g>
	<path class="st0" d="M14,107.1c0-3.6,2.6-6,5.8-6c1.9,0,3.3,0.8,4.3,2.1l-0.8,0.5c-0.7-1-2-1.7-3.4-1.7c-2.7,0-4.8,2.1-4.8,5.1
		c0,3,2.1,5.1,4.8,5.1c1.4,0,2.7-0.7,3.4-1.7l0.8,0.5c-1,1.3-2.4,2.1-4.3,2.1C16.6,113.1,14,110.7,14,107.1z"/>
	<path class="st0" d="M31.3,101.1c3.4,0,5.6,2.6,5.6,6c0,3.4-2.2,6-5.6,6c-3.4,0-5.6-2.6-5.6-6C25.7,103.8,27.9,101.1,31.3,101.1z
		 M31.3,102.1c-2.8,0-4.6,2.1-4.6,5.1c0,2.9,1.8,5.1,4.6,5.1c2.8,0,4.6-2.2,4.6-5.1C35.9,104.2,34.1,102.1,31.3,102.1z"/>
	<path class="st0" d="M41.9,102.2h-3.8v-0.9h8.6v0.9h-3.8v10.7h-1V102.2z"/>
	<path class="st0" d="M53.5,101.1c3.4,0,5.6,2.6,5.6,6c0,3.4-2.2,6-5.6,6c-3.4,0-5.6-2.6-5.6-6C47.8,103.8,50,101.1,53.5,101.1z
		 M53.5,102.1c-2.8,0-4.6,2.1-4.6,5.1c0,2.9,1.8,5.1,4.6,5.1c2.8,0,4.6-2.2,4.6-5.1C58,104.2,56.2,102.1,53.5,102.1z"/>
	<path class="st0" d="M61.5,101.3h4.3c2.2,0,3.5,1.6,3.5,3.4c0,1.8-1.3,3.4-3.5,3.4h-3.4v4.8h-1V101.3z M65.8,102.2h-3.3v5h3.3
		c1.5,0,2.6-1,2.6-2.5C68.3,103.3,67.3,102.2,65.8,102.2z"/>
	<path class="st0" d="M77.4,110.1h-6.2l-1.2,2.9h-1.1l4.7-11.6h1.2l4.7,11.6h-1.1L77.4,110.1z M71.5,109.2h5.5l-2.8-6.9L71.5,109.2z
		"/>
	<path class="st0" d="M85.5,107.7l-4,5.2h-1.3l4.7-5.9l-4.4-5.7h1.3l3.8,4.9l3.8-4.9h1.3l-4.4,5.6l4.7,6h-1.2L85.5,107.7z"/>
	<path class="st0" d="M92.6,101.3h1v11.6h-1V101.3z"/>
</g>
<rect x="4" y="134" class="st1" width="100" height="4"/>
<g>
	<path class="st0" d="M200.9,112.3l7-9.8h-7v-0.9h8.2v0.9l-7,9.8h7.1v0.9h-8.4V112.3z"/>
	<path class="st0" d="M211.6,101.6h1v11.6h-1V101.6z"/>
	<path class="st0" d="M217.7,107.7l-1.3,1.4v4.1h-1v-11.6h1v6.3l5.6-6.3h1.3l-4.9,5.5l5.4,6.1h-1.3L217.7,107.7z"/>
	<path class="st0" d="M232.9,110.4h-6.2l-1.2,2.9h-1.1l4.7-11.6h1.2l4.7,11.6h-1.1L232.9,110.4z M227.1,109.4h5.5l-2.8-6.9
		L227.1,109.4z"/>
</g>
<g>
	<path class="st0" d="M240.1,36.9c0.1,0.8-1.3,2.8-3.5,3.4c-3.6,1-8.5,2.3-10.8,2.8c-1.6-1-5-2.3-5.6-2.5c0,0.4,0.1,0.4-0.2,0.8
		c0.6,0.3,4.9,3.6,5.3,4c0.5,0.4,1.1,6.1,1.4,6.7c0.7,0.9,3,2.3,3,2.4c0.3,1.1,2.9,3.8,2.3,4.5c-0.1-0.2-0.3-0.4-0.6-0.5
		c-0.1,0.4-0.4,0.5-0.8,0.2c0.7-0.1-0.3-1.2-1.5-3.6c0,0-0.2,0.1-0.3,0.1c-0.1-0.1-3-2.7-3.1-2.7c-0.1-0.1-0.3,0-0.4-0.1
		c-0.4-1.1,0-4.8-0.7-6c0,0-0.4,0-0.5,0c-1.5-1.2-3.6-3-5.1-3.7c-0.1,0.1-0.2,0.3-0.3,0.3c0.7,0.9,4.7,6.3,4.6,7.1
		c0,0-0.3,0.2-0.3,0.3c-0.7,2.6-1.5,6.3-1.3,6.8c0.3,0.6,1.6,3.7,2.3,4.3c0.1,0.1-0.1,0.3,0,0.4c2.2,3.1,3.7,3.5,4.1,3.7
		c-0.1,0.1-0.2,0.3-0.3,0.4c0.1,0.3-0.1,0.9-0.6,0.8c0.3-0.4,0.2-0.7-0.3-0.8c-1.5-0.3-3.2-2.5-6-8.6c-0.1-0.1-0.4-0.2-0.4-0.3
		c0-2.6,1.7-6.8,1.7-6.9c0,0-2.2-3.1-3.5-4.7c0,0.1,0,0.1-0.1,0.1c0,0.2,0.4,2.1,0.3,2.2c-0.1,0.1-0.2,0.3-0.2,0.4
		c0.1,0.2,0.3,2.1,0.3,2.7c0,0.1-0.1,0.2-0.1,0.2c0,0-0.1,0.1-0.1,0.1c0,0.2,0.2,2.3,0.2,2.3c0,0-0.1,0.1-0.1,0.1
		c0,0.1,0.2,2.3,0.1,2.3c0,0.1-0.2,0.1-0.2,0.1c0,0.1,0.1,1.7,0.1,1.7c0,0-0.3,0.1-0.3,0.1c0,0.1-0.1,0.8-0.1,0.9
		c0,0.1-0.4,0.1-0.4,0.2c0,0.1,0,0.6,0,0.7c0,0-0.2,0-0.3,0c-0.1,0-0.4,0.2-0.5,0.2h0h0h0c-0.1,0-0.4-0.2-0.5-0.2
		c-0.1,0-0.2,0.1-0.3,0c-0.1-0.1,0-0.6,0-0.7c0-0.1-0.3-0.1-0.4-0.2c0-0.1-0.1-0.8-0.1-0.9c0,0-0.3,0-0.3-0.1c0,0,0.1-1.6,0.1-1.7
		c0,0-0.2,0-0.2-0.1c0,0,0.1-2.2,0.1-2.3c0,0-0.1,0-0.1-0.1c0,0,0.2-2.1,0.2-2.3c0,0,0,0-0.1-0.1c-0.1,0-0.1-0.1-0.1-0.2
		c0-0.5,0.2-2.4,0.3-2.7c0-0.1,0-0.3-0.2-0.4c-0.1-0.1,0.3-2,0.3-2.2c0,0-0.1,0-0.1-0.1c-1.4,1.6-3.5,4.6-3.5,4.7
		c0,0.1,1.7,4.3,1.7,6.9c0,0.1-0.3,0.1-0.4,0.3c-2.8,6.1-4.5,8.2-6,8.6c-0.6,0.1-0.7,0.5-0.3,0.8c-0.5,0.1-0.7-0.5-0.6-0.8
		c-0.1-0.1-0.2-0.3-0.3-0.4c0.4-0.2,1.9-0.5,4.1-3.7c0-0.1-0.1-0.3-0.1-0.4c0.6-0.6,2-3.7,2.3-4.3c0.2-0.6-0.6-4.2-1.3-6.8
		c0,0-0.3-0.2-0.3-0.3c-0.1-0.8,3.9-6.2,4.6-7.1c0,0-0.2-0.2-0.3-0.3c-1.4,0.7-3.6,2.5-5.1,3.7c-0.1,0.1-0.4,0-0.5,0
		c-0.7,1.3-0.3,4.9-0.7,6c0,0.1-0.2,0-0.3,0.1c-0.1,0.1-3,2.7-3.1,2.7c0,0-0.2-0.1-0.3-0.1c-1.2,2.4-2.2,3.5-1.5,3.6
		c-0.4,0.3-0.7,0.1-0.8-0.2c-0.2,0.1-0.5,0.3-0.6,0.5c-0.6-0.7,1.9-3.4,2.3-4.5c0-0.1,2.3-1.5,3-2.4c0.3-0.6,0.9-6.3,1.4-6.7
		c0.4-0.4,4.7-3.7,5.3-4c-0.2-0.4-0.2-0.4-0.2-0.8c-0.6,0.2-3.9,1.5-5.6,2.5c-2.2-0.5-7.1-1.8-10.8-2.8c-2.2-0.6-3.6-2.6-3.5-3.4
		c0.1-0.8,2-1.2,4.2-1.1c1.8,0.1,11,3.7,14.2,3.7h1.6c0-0.2,0.1-0.4,0.1-0.4c-1-0.2-4.8-4-4.8-4c-0.2-1.7-2-4.4-2.1-4.6l0.1-0.2
		c-0.8-0.4-6.9-2-6.9-4.7c0-0.3,0.1-0.6,0.3-0.8c0,0.2,0.1,0.6,0.3,0.7c0,0,0.1,0,0.2,0c1.6,2.7,6.7,4.2,6.7,4.2
		c0.1,0,0.7,0.3,2.2,4.6c0.1,0.1,0.2,0.1,0.3,0.1c0.1,0.1,3.2,3.1,4,3c0.4-0.8,1.5-0.7,1.3-1.4c-1.5-0.1-1.5-0.7-1.1-1.5
		c-0.3-0.4-0.6-0.8-0.8-1.1c-0.2,0-0.9,0-0.9-0.1c0,0,0,0,0,0c0,0,0.6-0.3,0.7-0.3c-0.1-0.2-0.2-0.3-0.3-0.5c-0.2,0-1.2,0-1.2-0.1
		c0,0,0,0,0,0c0,0,0.8-0.3,0.9-0.3c-0.1-0.1-0.2-0.2-0.2-0.4c0,0-1.2-0.1-1.2-0.1c0,0,0,0,0,0c0,0,0.8-0.3,0.9-0.3
		c-0.1-0.1-0.1-0.2-0.2-0.3c-0.6,0.1-1.1,0-1.1,0c0,0,0,0,0,0c0,0,0.8-0.3,0.9-0.3c-0.1-0.1-0.2-0.2-0.3-0.3c0,0-1,0.1-1,0.1
		c0,0,0.6-0.4,0.7-0.4c-0.1-0.1-0.1-0.2-0.2-0.2c0,0-0.8,0.1-0.8,0.1c0,0,0.4-0.4,0.5-0.4c-0.1-0.1-0.2-0.2-0.3-0.2
		c0,0-0.7,0.2-0.7,0.1c0,0,0.3-0.3,0.4-0.3c-0.1-0.1-0.3-0.2-0.4-0.3c-0.1,0-0.4,0.2-0.4,0.1c0,0,0.2-0.2,0.2-0.3
		c-0.1-0.1-0.6-0.4-0.6-0.4c0.1,0,0.5,0,0.8,0.2c0,0,0.2-0.2,0.2-0.2c0,0,0,0.3,0,0.3c0.2,0.1,0.3,0.2,0.5,0.3c0,0,0.2-0.3,0.2-0.3
		c0,0,0,0.4,0,0.4c0.1,0.1,0.2,0.2,0.4,0.3c0.1-0.1,0.3-0.4,0.3-0.4c0,0,0,0.6-0.1,0.6c0.1,0.1,0.1,0.1,0.2,0.2
		c0.1-0.1,0.3-0.4,0.4-0.4c0,0-0.1,0.6-0.1,0.7c0.1,0.1,0.2,0.2,0.3,0.3c0.1-0.1,0.4-0.5,0.4-0.5c0,0-0.1,0.6-0.2,0.8
		c0.1,0.1,0.2,0.2,0.3,0.3c0.1-0.2,0.6-0.7,0.6-0.7c0,0-0.3,0.9-0.4,1c0.1,0.1,0.2,0.3,0.3,0.4c0.2-0.2,0.5-0.6,0.5-0.6
		c0,0-0.2,0.7-0.3,1c0.1,0.2,0.2,0.4,0.3,0.5c0.2-0.3,0.4-0.7,0.4-0.7c0,0-0.1,0.8-0.2,1.1c0.1,0.2,0.6,0.8,1,1
		c0.3,0.2,0.8-0.1,0.8-0.5c-0.6-0.1-1.1-0.4-1.1-0.9c0-0.4,0.4-0.6,0.7-0.6v0.5c0,0.3,0.1,0.6,0.4,0.6c0,0,0-6.3,0-7.2
		c0-0.7-0.2-1.9-0.2-2.2c-0.1-0.2-0.1-0.4,0-0.5c0.1-0.1,0.2-0.1,0.4-0.2c0,0,0.3-0.4,0.3-0.4h0c0,0,0.3,0.4,0.3,0.4
		c0.2,0,0.3,0.1,0.4,0.2c0.1,0.1,0,0.3,0,0.5c-0.1,0.3-0.2,1.6-0.2,2.2v7.2c0.3,0,0.4-0.2,0.4-0.6v-0.5c0.2,0,0.7,0.2,0.7,0.6
		c0,0.4-0.5,0.8-1.1,0.9c0,0.4,0.6,0.7,0.8,0.5c0.3-0.2,0.8-0.8,1-1c-0.1-0.3-0.2-1.1-0.2-1.1c0,0,0.2,0.4,0.4,0.7
		c0.1-0.2,0.2-0.3,0.3-0.5c-0.1-0.3-0.3-1-0.3-1c0,0,0.4,0.4,0.5,0.6c0.1-0.1,0.2-0.3,0.3-0.4c-0.1-0.2-0.4-1-0.4-1
		c0,0,0.5,0.5,0.6,0.7c0.1-0.1,0.2-0.2,0.3-0.3c-0.1-0.1-0.2-0.7-0.2-0.8c0,0,0.3,0.3,0.4,0.5c0.1-0.1,0.2-0.2,0.3-0.3
		c0-0.1-0.1-0.7-0.1-0.7c0,0,0.3,0.3,0.4,0.4c0.1-0.1,0.1-0.2,0.2-0.2c0-0.1-0.1-0.6-0.1-0.6c0,0,0.2,0.3,0.3,0.4
		c0.1-0.1,0.2-0.2,0.4-0.3c0,0,0-0.4,0-0.4c0,0,0.2,0.2,0.2,0.3c0.2-0.1,0.3-0.2,0.5-0.3c0,0,0-0.3,0-0.3c0,0,0.2,0.2,0.2,0.2
		c0.3-0.1,0.7-0.2,0.8-0.2c0,0-0.5,0.3-0.6,0.4c0,0,0.2,0.3,0.2,0.3c0,0-0.3-0.1-0.4-0.1c-0.2,0.1-0.3,0.2-0.4,0.3
		c0.1,0.1,0.4,0.3,0.4,0.3c0,0-0.7-0.1-0.7-0.1c-0.1,0.1-0.2,0.1-0.3,0.2c0.1,0,0.5,0.4,0.5,0.4c0,0-0.8-0.1-0.8-0.1
		c-0.1,0.1-0.1,0.2-0.2,0.2c0.1,0,0.7,0.4,0.7,0.4c0,0-1-0.1-1-0.1c-0.1,0.1-0.2,0.2-0.3,0.3c0.1,0,0.9,0.3,0.9,0.3c0,0,0,0,0,0
		c0,0-0.5,0.1-1.1,0c-0.1,0.1-0.1,0.2-0.2,0.3c0.1,0,0.9,0.3,0.9,0.3c0,0,0,0,0,0c0,0-1.2,0.1-1.2,0.1c-0.1,0.1-0.2,0.2-0.2,0.4
		c0.1,0,0.9,0.3,0.9,0.3c0,0,0,0,0,0c0,0-1,0.1-1.2,0.1c-0.1,0.2-0.2,0.3-0.3,0.5c0.1,0,0.7,0.3,0.7,0.3c0,0,0,0,0,0
		c0,0-0.7,0.1-0.9,0.1c-0.2,0.3-0.5,0.7-0.8,1.1c0.4,0.8,0.4,1.4-1.1,1.5c-0.2,0.7,1,0.6,1.3,1.4c0.9,0.1,3.9-2.9,4-3
		c0.2,0,0.2,0,0.3-0.1c1.5-4.3,2.1-4.5,2.2-4.6c0,0,5.1-1.5,6.7-4.2c0.1,0,0.2,0,0.2,0c0.2-0.1,0.3-0.5,0.3-0.7
		c0.2,0.3,0.3,0.5,0.3,0.8c0,2.7-6,4.3-6.9,4.7l0.1,0.2c-0.1,0.2-1.9,2.9-2.1,4.6c0,0-3.9,3.8-4.8,4c0,0,0.1,0.2,0.1,0.4h1.6
		c3.2,0,12.4-3.6,14.2-3.7C238.1,35.7,240,36.1,240.1,36.9 M250.4,63.2v-37L217.8,7.6l-32.7,18.5v37l32.7,18.5L250.4,63.2z"/>
</g>
<rect x="167.8" y="134" class="st2" width="100" height="4"/>
<g>
	<path class="st0" d="M315.7,110h-6.2l-1.2,2.9h-1.1l4.7-11.6h1.2l4.7,11.6h-1.1L315.7,110z M309.8,109.1h5.5l-2.8-6.9L309.8,109.1z
		 M320.7,102.9v10h-1v-11.6h1l7.3,9.9v-9.9h1v11.6h-1L320.7,102.9z M334.8,102.2H331v-0.9h8.6v0.9h-3.8v10.7h-1V102.2z M341.7,101.3
		h1v11.6h-1V101.3z M344.6,106.5h4.2v0.8h-4.2V106.5z M350.3,107.1c0-3.6,2.6-6,5.8-6c1.9,0,3.3,0.8,4.3,2.1l-0.8,0.5
		c-0.7-1-2-1.7-3.4-1.7c-2.7,0-4.8,2.1-4.8,5.1c0,3,2.1,5.1,4.8,5.1c1.4,0,2.7-0.7,3.4-1.7l0.8,0.5c-1,1.3-2.4,2.1-4.3,2.1
		C352.9,113.1,350.3,110.7,350.3,107.1z M367.7,101.1c3.4,0,5.6,2.6,5.6,6s-2.2,6-5.6,6c-3.4,0-5.6-2.6-5.6-6
		S364.3,101.1,367.7,101.1z M367.7,102c-2.8,0-4.6,2.1-4.6,5.1c0,2.9,1.8,5.1,4.6,5.1c2.8,0,4.6-2.2,4.6-5.1
		C372.3,104.1,370.5,102,367.7,102z M379.3,108.1h-2.6v4.8h-1v-11.6h4.3c2,0,3.5,1.3,3.5,3.4c0,2.1-1.5,3.3-3.2,3.3l3.4,4.9h-1.2
		L379.3,108.1z M380,102.2h-3.3v5h3.3c1.5,0,2.6-1,2.6-2.5S381.5,102.2,380,102.2z M389.6,108.1h-2.6v4.8h-1v-11.6h4.3
		c2,0,3.5,1.3,3.5,3.4c0,2.1-1.5,3.3-3.2,3.3l3.4,4.9h-1.2L389.6,108.1z M390.3,102.2h-3.3v5h3.3c1.5,0,2.6-1,2.6-2.5
		S391.9,102.2,390.3,102.2z M396.4,101.3h1v7.1c0,2.3,1.2,3.8,3.5,3.8c2.3,0,3.5-1.4,3.5-3.8v-7.1h1v7.1c0,2.9-1.5,4.7-4.5,4.7
		c-3,0-4.5-1.8-4.5-4.7V101.3z M408.4,101.3h4.3c2.2,0,3.5,1.6,3.5,3.4s-1.3,3.4-3.5,3.4h-3.4v4.8h-1V101.3z M412.6,102.2h-3.3v5
		h3.3c1.5,0,2.6-1,2.6-2.5S414.1,102.2,412.6,102.2z M421.3,102.2h-3.8v-0.9h8.6v0.9h-3.8v10.7h-1V102.2z M428.1,101.3h1v11.6h-1
		V101.3z M437.2,101.1c3.4,0,5.6,2.6,5.6,6s-2.2,6-5.6,6c-3.4,0-5.6-2.6-5.6-6S433.8,101.1,437.2,101.1z M437.2,102
		c-2.8,0-4.6,2.1-4.6,5.1c0,2.9,1.8,5.1,4.6,5.1c2.8,0,4.6-2.2,4.6-5.1C441.8,104.1,440,102,437.2,102z M446.3,102.9v10h-1v-11.6h1
		l7.3,9.9v-9.9h1v11.6h-1L446.3,102.9z"/>
	<path class="st0" d="M383.5,53.8c-0.4,0-1.3,0.1-1.4-0.1c0-0.2,0.2-0.7,0.9-0.9c0.7-0.2,1.2,0,1.3,0.1l1.8-1.4
		c-0.6-0.8-1.6-1.2-2.8-1.1l-0.4-1.2l-2.1,0.8l0.5,1.2c-1.1,0.8-1.7,2.1-1.3,3.3c0.5,1.4,1.8,1.9,3.8,1.6c1.3-0.2,1.6,0,1.6,0
		c0,0.2-0.2,0.7-0.9,0.9c-0.7,0.2-1.2,0-1.3-0.1l-1.8,1.4c0.6,0.8,1.6,1.2,2.8,1.1l0.4,1.2l2.1-0.8l-0.5-1.2
		c1.1-0.8,1.7-2.1,1.3-3.3C387.1,54,385.7,53.5,383.5,53.8"/>
	<path class="st0" d="M386.8,63.3c-4.7,1.7-9.8-0.7-11.4-5.4c-1.7-4.7,0.7-9.8,5.4-11.4c4.7-1.7,9.8,0.7,11.4,5.4
		C393.9,56.5,391.5,61.6,386.8,63.3 M380.3,45.3c-5.3,1.9-8,7.7-6.1,13.1c1.9,5.3,7.7,8,13.1,6.1c5.3-1.9,8-7.7,6.1-13.1
		C391.5,46.1,385.7,43.4,380.3,45.3"/>
	<path class="st0" d="M368.2,58.6c1.1,0,1.9,0.9,1.9,1.9c0,1.1-0.9,1.9-1.9,1.9c-1.1,0-1.9-0.9-1.9-1.9
		C366.3,59.4,367.1,58.6,368.2,58.6"/>
	<path class="st0" d="M398.2,47.8c1.1,0,1.9,0.9,1.9,1.9c0,1.1-0.9,1.9-1.9,1.9c-1.1,0-1.9-0.9-1.9-1.9
		C396.3,48.6,397.2,47.8,398.2,47.8"/>
	<path class="st0" d="M410.7,41l-5.3-14.7h-0.1l-10.4,3.8l-42.5,15.4V44l54-19.5l4.3,11.9V41z M410.7,55.8c-0.9,0.9-1.6,2-2.1,3.1
		l-27.2,15.4l-27.2-15.4l-0.9-2.5c3.8-2.2,5.9-6.6,5.2-10.9L395.7,32c2.3,4,7,6.1,11.5,5.3l3.5,9.5V55.8z M352.3,39.4L375.1,23
		c3.2,3.1,8,3.8,12,1.9l3.4,4.6l-38.1,13.8V39.4z M352.3,35.2l30.6-22l10.8,15.1l-1.5,0.5l-9.8-13.6l-2.3,1.6l-6.4,4.7L352.3,37
		V35.2z M381.5,4.5l-32.4,18.4v36.8L381.5,78l32.4-18.4V22.9L381.5,4.5z"/>
</g>
<rect x="331.5" y="134" class="st3" width="100" height="4"/>
</svg>
