<?xml version="1.0" encoding="utf-8"?>
<!-- Generator: Adobe Illustrator 19.1.0, SVG Export Plug-In . SVG Version: 6.00 Build 0)  -->
<svg version="1.1" id="Layer_1" xmlns="http://www.w3.org/2000/svg" xmlns:xlink="http://www.w3.org/1999/xlink" x="0px" y="0px"
	 viewBox="0 0 655.3 62.7" style="enable-background:new 0 0 655.3 62.7;" xml:space="preserve">
<style type="text/css">
	.st0{fill:#FFFFFF;}
	.st1{fill:#00698B;}
</style>
<g>
	<polygon class="st1" points="22.2,59 38.4,59 41.6,54 19,54 	"/>
	<polygon class="st1" points="17,50 43.9,50 46.9,45 14,45 	"/>
	<path class="st1" d="M45,6c-0.6-1.1-2.1-2-3.3-2H19.2c-1.2,0-2.7,0.9-3.3,2L4.7,25.4c-0.6,1.1-0.6,2.4,0,3.4L11.9,41h5.9L9.8,27.5
		L20.1,10h20.6L51,27.5L43.1,41H49l7.2-12.1c0.6-1.1,0.6-2.6,0-3.7L45,6z"/>
	<polygon class="st1" points="108,33.8 94.5,15 90,15 90,40 94,40 94,22.3 108.3,40 112,40 112,15 108,15 	"/>
	<polygon class="st1" points="123,40 140,40 140,36 127,36 127,29 138,29 138,26 127,26 127,19 140,19 140,15 123,15 	"/>
	<polygon class="st1" points="146,19 154,19 154,40 158,40 158,19 165,19 165,15 146,15 	"/>
	<polygon class="st1" points="195.4,32.4 190,15 186.3,15 180.9,32.4 174.8,15 170.4,15 178.9,40 182.9,40 188,23 188.3,23 
		193.4,40 197.4,40 205.9,15 201.5,15 	"/>
	<path class="st1" d="M224.1,15.2c-3.6,0-6.6,1.2-9.1,3.6c-2.4,2.4-3.7,5.4-3.7,8.9c0,3.6,1.2,6.5,3.7,8.9c2.4,2.4,5.5,3.6,9.1,3.6
		s6.6-1.2,9.1-3.6c2.4-2.4,3.7-5.4,3.7-8.9c0-3.6-1.2-6.5-3.7-8.9C230.7,16.3,227.7,15.2,224.1,15.2z M230.2,33.9
		c-1.7,1.7-3.7,2.6-6.1,2.6c-2.4,0-4.4-0.9-6.1-2.6s-2.5-3.8-2.5-6.2s0.8-4.5,2.5-6.2s3.7-2.6,6.1-2.6c2.4,0,4.4,0.9,6.1,2.6
		c1.7,1.7,2.5,3.8,2.5,6.2S231.8,32.2,230.2,33.9z"/>
	<path class="st1" d="M264.8,23.6c0-2.7-0.8-5.1-2.4-6.4c-1.6-1.2-4.2-2.2-7.9-2.2H245v25h4v-9h5.9l5.8,9h5.2l-6.3-8.8
		C263,30.1,264.8,27.6,264.8,23.6z M254.6,28H249v-9h5.7c2.2,0,3.7,0.5,4.6,1.1c0.9,0.6,1.3,1.8,1.3,3.4c0,1.6-0.4,2.7-1.2,3.4
		C258.5,27.7,256.9,28,254.6,28z"/>
	<polygon class="st1" points="294.5,15 289.3,15 278,27.6 278,15 274,15 274,40 278,40 278,33.2 281.6,29.4 289.8,40 294.6,40 
		284.8,26 	"/>
	<path class="st1" d="M326.1,15.2c-3.6,0-6.6,1.2-9.1,3.6c-2.4,2.4-3.7,5.4-3.7,8.9c0,3.6,1.2,6.5,3.7,8.9c2.4,2.4,5.5,3.6,9.1,3.6
		s6.6-1.2,9.1-3.6c2.4-2.4,3.7-5.4,3.7-8.9c0-3.6-1.2-6.5-3.7-8.9C332.7,16.3,329.7,15.2,326.1,15.2z M332.2,33.9
		c-1.7,1.7-3.7,2.6-6.1,2.6c-2.4,0-4.4-0.9-6.1-2.6s-2.5-3.8-2.5-6.2s0.8-4.5,2.5-6.2s3.7-2.6,6.1-2.6c2.4,0,4.4,0.9,6.1,2.6
		c1.7,1.7,2.5,3.8,2.5,6.2S333.8,32.2,332.2,33.9z"/>
	<polygon class="st1" points="347,40 351,40 351,30 362,30 362,26 351,26 351,19 363.6,19 363.6,15 347,15 	"/>
	<rect x="384" y="15" class="st1" width="5" height="25"/>
	<polygon class="st1" points="417,33.8 403.2,15 399,15 399,40 403,40 403,22.3 416.9,40 421,40 421,15 417,15 	"/>
	<polygon class="st1" points="449,33.8 435.6,15 431,15 431,40 435,40 435,22.3 449.3,40 453,40 453,15 449,15 	"/>
	<path class="st1" d="M475.1,15.2c-3.6,0-6.6,1.2-9.1,3.6c-2.4,2.4-3.7,5.4-3.7,8.9c0,3.6,1.2,6.5,3.7,8.9c2.4,2.4,5.5,3.6,9.1,3.6
		s6.6-1.2,9.1-3.6c2.4-2.4,3.7-5.4,3.7-8.9c0-3.6-1.2-6.5-3.7-8.9C481.7,16.3,478.7,15.2,475.1,15.2z M481.2,33.9
		c-1.7,1.7-3.7,2.6-6.1,2.6c-2.4,0-4.4-0.9-6.1-2.6s-2.5-3.8-2.5-6.2s0.8-4.5,2.5-6.2s3.7-2.6,6.1-2.6c2.4,0,4.4,0.9,6.1,2.6
		c1.7,1.7,2.5,3.8,2.5,6.2S482.8,32.2,481.2,33.9z"/>
	<polygon class="st1" points="504.8,33.1 497.4,15 492.8,15 502.5,40 507.1,40 516.9,15 512.3,15 	"/>
	<path class="st1" d="M529.7,15L519,40h4.4l2.4-6h12.1l2.4,6h4.4l-10.7-25H529.7z M527.5,30l4.4-10l4.4,10H527.5z"/>
	<polygon class="st1" points="547,19 554,19 554,40 558,40 558,19 566,19 566,15 547,15 	"/>
	<path class="st1" d="M584.6,15.2c-3.6,0-6.6,1.2-9.1,3.6c-2.4,2.4-3.7,5.4-3.7,8.9c0,3.6,1.2,6.5,3.7,8.9c2.4,2.4,5.5,3.6,9.1,3.6
		s6.6-1.2,9.1-3.6c2.4-2.4,3.7-5.4,3.7-8.9c0-3.6-1.2-6.5-3.7-8.9C591.2,16.3,588.2,15.2,584.6,15.2z M590.6,33.9
		c-1.7,1.7-3.7,2.6-6.1,2.6c-2.4,0-4.4-0.9-6.1-2.6s-2.5-3.8-2.5-6.2s0.8-4.5,2.5-6.2s3.7-2.6,6.1-2.6c2.4,0,4.4,0.9,6.1,2.6
		c1.7,1.7,2.5,3.8,2.5,6.2S592.3,32.2,590.6,33.9z"/>
	<path class="st1" d="M625.3,23.6c0-2.7-0.8-5.1-2.4-6.4c-1.6-1.2-4.2-2.2-7.9-2.2H606v25h4v-9h5.4l5.8,9h5.2l-6.3-8.8
		C623.5,30.1,625.3,27.6,625.3,23.6z M615.1,28H610v-9h5.2c2.2,0,3.7,0.5,4.6,1.1c0.9,0.6,1.3,1.8,1.3,3.4c0,1.6-0.4,2.7-1.2,3.4
		C619,27.7,617.4,28,615.1,28z"/>
	<path class="st1" d="M649.5,28.3c-1.3-1.1-3.1-1.9-5.6-2.5c-2.5-0.6-4.1-1.2-4.9-1.7c-0.8-0.5-1.1-1.3-1.1-2.2c0-1,0.4-1.7,1.1-2.2
		c0.8-0.5,1.7-0.7,2.9-0.7c1.2,0,2.4,0.2,3.6,0.6c1.2,0.4,2.2,0.9,2.9,1.6l2.2-3.1c-1.1-0.9-2.4-1.6-3.9-2.1
		c-1.5-0.5-3.1-0.8-4.6-0.8c-2.4,0-4.4,0.6-6,1.8c-1.6,1.2-2.4,2.9-2.4,5.2c0,2.2,0.7,3.9,2.1,5c0.7,0.6,1.5,1,2.5,1.4
		c0.9,0.4,2.3,0.8,4.1,1.2c1.8,0.4,3,0.9,3.8,1.4s1.1,1.2,1.1,2.2c0,0.9-0.4,1.7-1.2,2.3c-0.8,0.6-1.8,0.8-3.1,0.8
		c-2.6,0-5.2-1.1-7.6-3.2l-2.6,3.1c2.9,2.6,6.3,3.9,10.1,3.9c2.6,0,4.7-0.7,6.3-2s2.4-3,2.4-5.1S650.7,29.4,649.5,28.3z"/>
</g>
</svg>
