<?xml version="1.0" encoding="utf-8"?>
<!-- Generator: Adobe Illustrator 23.0.6, SVG Export Plug-In . SVG Version: 6.00 Build 0)  -->
<svg version="1.1" id="Layer_1" xmlns="http://www.w3.org/2000/svg" xmlns:xlink="http://www.w3.org/1999/xlink" x="0px" y="0px"
	 viewBox="0 0 388 126" style="enable-background:new 0 0 388 126;" xml:space="preserve">
<style type="text/css">
	.st0{fill:#808080;}
	.st1{fill:#FFFFFF;}
</style>
<g id="XMLID_1_">
	<path id="XMLID_27_" d="M11.5,17.3l0,29.1c1.4,24.4,11.8,40,20.3,48.8c9.2,9.5,18.2,13.4,18.3,13.4l0.1,0.1l0.1-0.1
		c34.2-21.7,37.9-50.7,37.9-62.2V17.3L11.5,17.3L11.5,17.3z M357,28.1c-3.6,0-8.2,0.4-9.9,0.4c-1,0-4.7-0.1-5.9-0.1v0.9
		c2,0.4,3.1,1.1,3.1,2.9v26.4c0,1.9-1.1,2.7-3.2,3v0.9c1.1,0,4.6-0.1,5.6-0.1c1.7,0,6,0.3,9.6,0.3c12.5,0,20.2-7.4,20.2-17.4
		C376.5,34.8,369.1,28.1,357,28.1L357,28.1z M170.3,28.1c0,0-0.5,2.2-1,3.3l-10.9,26.3c-0.8,1.9-2,3.3-4.1,3.8l0,0.9l4.9-0.1
		c0.7,0,3.7,0.1,4.8,0.1l0-0.9c-1.9-0.5-2.4-1.3-2.4-2.2c0-0.6,0.3-1.5,0.6-2.2l2.3-5.7h12.7l2.5,5.7c0.4,0.8,0.6,1.6,0.6,2.3
		c0,0.8-0.5,1.7-2.2,2.1l0,0.9c1.3,0,5-0.1,5.8-0.1c0.9,0,4.8,0.1,6,0.1l0-0.9c-2.3-0.6-3.2-1.9-4-3.7l-11.6-26.4
		c-0.5-1.1-1-3.3-1-3.3L170.3,28.1L170.3,28.1L170.3,28.1z M278.6,28.1c0,0-0.5,2.2-1,3.3l-10.9,26.3c-0.8,1.9-2,3.3-4.1,3.8l0,0.9
		l4.9-0.1c0.7,0,3.7,0.1,4.8,0.1v-0.9c-1.9-0.5-2.4-1.3-2.4-2.2c0-0.6,0.3-1.5,0.6-2.2l2.3-5.7h12.7l2.5,5.7
		c0.3,0.8,0.6,1.6,0.6,2.3c0,0.8-0.5,1.7-2.2,2.1v0.9c1.3,0,5-0.1,5.8-0.1c0.9,0,4.8,0.1,6,0.1v-0.9c-2.3-0.6-3.2-1.9-4-3.7
		l-11.6-26.4c-0.4-1.1-1-3.3-1-3.3L278.6,28.1L278.6,28.1z M209.3,28.1c-1.9,0-6.6,0.3-8.3,0.3c-1,0-4.6-0.1-5.8-0.1v0.9
		c2.1,0.4,3,1.4,3,3v26.2c0,1.8-1.1,2.8-3,3.1v0.9c1.1,0,4.8-0.1,5.7-0.1c1.1,0,4.8,0.1,5.9,0.1v-0.9c-2-0.4-3.2-1.4-3.2-3.1V46.6
		c0.6,0.1,1.1,0.1,1.6,0.2c2.6,0.4,4.1,1.6,5.2,3.1c1.9,2.4,5.1,7.2,7,9.4c2.2,2.6,4.4,3.6,7.1,3.6c1.3,0,3-0.2,4-0.4v-0.8
		c-2.2-0.1-4.3-2.3-5.9-4.2c-1.6-2-5.6-7.6-7-9.3c-1.2-1.4-2.4-2.1-2.4-2.1c5.2-1.3,8.6-4.3,8.6-8.9C222,31.5,217.4,28.1,209.3,28.1
		L209.3,28.1z M316.9,28.1c-1.9,0-6.6,0.3-8.3,0.3c-1,0-4.6-0.1-5.8-0.1v0.9c2.1,0.4,3,1.4,3,3v26.2c0,1.8-1.1,2.8-3,3.1v0.9
		c1.1,0,4.8-0.1,5.7-0.1c1.1,0,4.8,0.1,5.9,0.1v-0.9c-2-0.4-3.2-1.4-3.2-3.1V46.6c0.6,0.1,1.1,0.1,1.6,0.2c2.6,0.4,4,1.6,5.2,3.1
		c1.9,2.4,5.1,7.2,7,9.4c2.1,2.6,4.4,3.6,7.2,3.6c1.3,0,3-0.2,4-0.4v-0.8c-2.2-0.1-4.3-2.3-5.9-4.2c-1.6-2-5.6-7.6-7-9.3
		c-1.2-1.4-2.4-2.1-2.4-2.1c5.2-1.3,8.6-4.3,8.6-8.9C329.6,31.5,325.1,28.1,316.9,28.1L316.9,28.1z M112.8,28.3v0.9
		c1.7,0.4,2.7,1.2,2.7,2.9v26.5c0,1.8-1.1,2.5-2.7,2.9v0.9c0.8,0,4.5-0.1,5.3-0.1c1,0,4.8,0.1,5.6,0.1v-0.9
		c-1.7-0.4-2.8-1.1-2.8-2.9V46.1h19.7v12.5c0,1.8-1.1,2.5-2.7,2.9v0.9c0.8,0,4.6-0.1,5.6-0.1c0.9,0,4.6,0.1,5.4,0.1v-0.9
		c-1.7-0.4-2.8-1.2-2.8-2.9V32.1c0-1.8,1.2-2.5,2.8-2.9v-0.9c-0.8,0-4.5,0.1-5.4,0.1c-1,0-4.7-0.1-5.6-0.1v0.9
		c1.7,0.4,2.7,1.1,2.7,2.9v11.1H121V32.1c0-1.8,1.2-2.5,2.8-2.9v-0.9c-0.8,0-4.6,0.1-5.6,0.1C117.3,28.4,113.7,28.3,112.8,28.3
		L112.8,28.3z M227.5,28.3v1c1.9,0.4,3.1,1.6,3.8,3.3l13.5,30h2.8l12.2-28.9c1.2-2.7,2.4-3.9,4.5-4.5v-0.9c-1.2,0-4.4,0.1-5.2,0.1
		c-0.9,0-3.5-0.1-4.6-0.1v0.9c1.4,0.3,2.4,1,2.4,2.1c0,1-0.5,2.2-1.1,3.8l-8.3,20.1l-8.8-20c-0.9-2.1-1.4-3.2-1.4-4
		c0-1.1,1.3-1.8,2.4-2v-0.9c-1.2,0-5.1,0.1-6,0.1C232.8,28.5,228.7,28.4,227.5,28.3L227.5,28.3z M355.5,30.3
		c9.5,0,15.1,6.2,15.1,15.1c0,8.6-5.3,14.7-15.5,14.7c-1.8,0-4.1-0.1-5.3-0.4V30.7C351.1,30.5,353.5,30.3,355.5,30.3L355.5,30.3z
		 M207.7,30.3c5.6,0,8.7,2.8,8.7,7.5c0,3.2-2,6.9-8.4,6.9c-1.6,0-3.2-0.1-4.3-0.2V30.7C204.8,30.5,206.5,30.3,207.7,30.3L207.7,30.3
		z M315.3,30.3c5.6,0,8.7,2.8,8.7,7.5c0,3.2-2,6.9-8.4,6.9c-1.6,0-3.2-0.1-4.3-0.2V30.7C312.5,30.5,314.1,30.3,315.3,30.3
		L315.3,30.3z M170.5,36.1l5.4,12.7h-10.5L170.5,36.1L170.5,36.1z M278.8,36.1l5.4,12.7h-10.5L278.8,36.1z M278.9,78.1
		c-3.7,0-6,1.9-6,4.9c0,3.2,3.4,4.7,5.1,5.5c2.3,1.2,4.2,2.1,4.2,4.1c0,1.9-1.5,3-3.9,3c-1.1,0-2.4-0.3-3.2-0.9
		c-0.8-0.5-1.4-1.5-1.7-2.5h-0.5l0.1,3.8c1.3,0.2,2.8,0.9,5.4,0.9c4.2,0,6.6-2.1,6.6-5.1c0-3.1-2.7-4.5-5.2-5.6c-2.2-1-4.2-2-4.2-4
		c0-1.4,0.9-2.8,3.3-2.8c2.2,0,4.1,0.8,4.8,2.9h0.5l0-3.7C282.5,78.7,281.3,78.1,278.9,78.1L278.9,78.1z M247.1,78.2
		c-0.3,0.2-1,0.2-1.3,0.2h-11.2v0.5c1.1,0.2,1.6,0.7,1.6,1.6v13.8c0,1-0.6,1.5-1.6,1.7v0.5c0.6,0,2.6-0.1,3.1-0.1h5.6
		c2,0,3,0,4.7,0.2l0.5-3.7l-0.5-0.1c-0.6,1.4-1.2,2.3-3.6,2.3h-5.3v-7.4h3.8c0.5,0,1.2,0.1,1.5,0.1c0.8,0.2,1.1,0.7,1.4,1.5h0.5
		c0-0.6,0-1.9,0-2.3c0-0.4,0-1.6,0-2.2h-0.5c-0.2,0.7-0.5,1.2-1.4,1.4c-0.3,0.1-0.9,0.1-1.5,0.1h-3.8v-6.3h4.9c2.2,0,2.6,0.9,3,2.1
		h0.5l0.1-3.6L247.1,78.2L247.1,78.2z M298.2,78.3l0,3.7h0.5c0.5-1.6,1.4-2,2.6-2h3.9v14.3c0,1-0.5,1.4-1.6,1.7v0.5
		c0.6,0,2.7-0.1,3.1-0.1c0.6,0,2.5,0.1,3.1,0.1V96c-1.1-0.2-1.6-0.7-1.6-1.7V80h3.8c1.2,0,2.1,0.4,2.6,2h0.5l0-3.7
		c-1.3,0.1-2.2,0.2-8.4,0.2C300.4,78.5,299.4,78.4,298.2,78.3L298.2,78.3z M260.4,78.3c-1,0-3.5,0.1-4.4,0.1c-0.5,0-2.4-0.1-3-0.1
		v0.5c1.1,0.2,1.6,0.7,1.6,1.6v13.8c0,1-0.6,1.5-1.6,1.7v0.5c0.6,0,2.5-0.1,3-0.1c0.6,0,2.5,0.1,3.1,0.1V96
		c-1.1-0.2-1.7-0.7-1.7-1.7v-6.2c0.3,0,0.6,0.1,0.8,0.1c1.4,0.2,2.1,0.9,2.8,1.6c1,1.3,2.6,3.7,3.6,4.9c1.1,1.4,2.3,1.9,3.8,1.9
		c0.7,0,1.6-0.1,2.1-0.2v-0.4c-1.2-0.1-2.3-1.2-3.1-2.2c-0.9-1-2.9-4-3.7-4.9c-0.6-0.7-1.3-1.1-1.3-1.1c2.8-0.7,4.5-2.3,4.5-4.7
		C267.2,80.1,264.8,78.3,260.4,78.3L260.4,78.3z M157.3,78.4v0.5c1,0.2,1.5,0.8,1.5,1.6v9.9c0,4,2.6,6.3,7.6,6.3
		c5.4,0,7.9-2.5,7.9-6.7v-9.5c0-0.8,0.5-1.3,1.6-1.5v-0.5c-0.4,0-2.1,0.1-2.5,0.1c-0.5,0-2.1-0.1-2.5-0.1v0.5
		c1.1,0.2,1.6,0.8,1.6,1.5v10.1c0,3.2-2.4,4.6-5.5,4.6c-3.6,0-5.3-1.8-5.3-4.9v-9.8c0-0.8,0.5-1.4,1.5-1.6v-0.5
		c-0.6,0-2.4,0.1-2.9,0.1C159.7,78.5,157.9,78.4,157.3,78.4L157.3,78.4z M180.2,78.4v0.5c1,0.3,1.7,0.8,1.7,1.9v13.5
		c0,0.7-0.5,1.3-1.6,1.5v0.5c0.4,0,2-0.1,2.5-0.1c0.5,0,2,0.1,2.5,0.1V96c-1.1-0.2-1.6-0.8-1.6-1.5V82.5l10.5,12.2
		c1.3,1.4,2.1,1.9,2.6,2h0.7V80.5c0-0.8,0.5-1.3,1.7-1.5v-0.5c-0.4,0-2,0.1-2.5,0.1c-0.5,0-2-0.1-2.5-0.1v0.5
		c1.1,0.2,1.6,0.8,1.6,1.5v11.8L184,78.4c-0.5,0.1-1.2,0.1-1.7,0.1C181.8,78.5,180.8,78.5,180.2,78.4L180.2,78.4z M212.8,78.4v0.5
		c1,0.2,1.6,0.9,2,1.7l7.1,15.8h1.5l6.5-15.2c0.6-1.4,1.3-2,2.4-2.3v-0.5c-0.6,0-2.3,0.1-2.7,0.1c-0.4,0-1.9-0.1-2.5-0.1v0.5
		c0.7,0.1,1.2,0.5,1.2,1.1c0,0.5-0.3,1.2-0.6,2l-4.4,10.6l-4.6-10.6c-0.5-1.1-0.8-1.7-0.8-2.1c0-0.6,0.7-0.9,1.2-1v-0.5
		c-0.7,0-2.6,0.1-3,0.1C215.6,78.5,213.4,78.4,212.8,78.4L212.8,78.4z M316.3,78.4v0.5c0.9,0.3,1.5,1,2.3,2.4l4.6,7.4v5.7
		c0,0.6-0.5,1.4-1.6,1.6v0.5c0.7,0,2.5-0.1,2.9-0.1c0.6,0,2.5,0.1,3,0.1V96c-1-0.2-1.5-1-1.5-1.6v-5.7l4-6.8c0.8-1.3,1.6-2.5,2.9-3
		v-0.5c-0.6,0-2,0.1-2.3,0.1c-0.4,0-1.6-0.1-2.2-0.1v0.5c0.6,0.1,0.8,0.4,0.8,0.7c0,0.4-0.2,1-0.6,1.6l-3.4,5.8c0,0-3.3-5.4-3.5-5.8
		c-0.3-0.5-0.6-1-0.6-1.4c0-0.5,0.3-0.8,0.9-0.9v-0.5c-0.7,0-2.6,0.1-3.1,0.1C318.7,78.5,316.9,78.4,316.3,78.4L316.3,78.4z
		 M204.3,78.5V79c1.1,0.2,1.6,0.7,1.6,1.7v13.7c0,1-0.5,1.4-1.6,1.7v0.5c0.6,0,2.6-0.1,3.1-0.1c0.6,0,2.5,0.1,3.1,0.1V96
		c-1.1-0.2-1.6-0.7-1.6-1.7V80.6c0-1,0.6-1.4,1.6-1.7v-0.5c-0.6,0-2.6,0.1-3.1,0.1C206.8,78.5,204.9,78.5,204.3,78.5L204.3,78.5z
		 M289.3,78.5V79c1.1,0.2,1.6,0.7,1.6,1.7v13.7c0,1-0.5,1.4-1.6,1.7v0.5c0.6,0,2.6-0.1,3.1-0.1c0.6,0,2.5,0.1,3.1,0.1V96
		c-1.1-0.2-1.6-0.7-1.6-1.7V80.6c0-1,0.6-1.4,1.6-1.7v-0.5c-0.6,0-2.6,0.1-3.1,0.1C291.9,78.5,289.9,78.5,289.3,78.5z M259.6,79.5
		c3,0,4.6,1.5,4.6,3.9c0,1.7-1.1,3.7-4.4,3.7c-0.8,0-1.7,0-2.3-0.1v-7.3C258.1,79.6,259,79.5,259.6,79.5z"/>
	<path id="XMLID_28_" class="st0" d="M12.8,18.8v27.9c1.4,23.7,11.5,38.9,19.7,47.5c8.3,8.7,16.5,12.5,17.6,13
		C83.4,86.1,87,57.9,87,46.7V18.8L12.8,18.8z"/>
	<path id="XMLID_32_" d="M78,27c-2.1,1.7-5.1,0.9-5.1,0.9c-2.8-0.1-3.7,0.1-3.7,0.1c-0.6,0.9-1.7,0.1-1.7,0.1c-0.2-0.2-1-0.2-1-0.2
		c-5.6,0.4-7.1-0.6-7.1-0.6C59.2,27,58.2,27,58.2,27c-0.1,0.2-0.6,0.8-0.6,0.8c-0.2,0.2-2.2,0.1-2.2,0.1c-1.1-0.1-1.2,0.6-1.2,0.6
		l-0.1,2.5c0.1,1.5-0.3,1.2-0.3,1.2c-0.3,0.4-2,0.3-2,0.3c-1.4,0.1-1.2,2.2-1.2,2.2c0.2,1.4,2.3,0.9,2.3,0.9
		c1.4,0.1,1.2,0.9,1.2,0.9c-0.1,0.6,0.1,8.6,0.1,8.6c-0.1,1.2-1,0.7-1,0.7c-2.9-0.1-2.5,1.9-2.5,1.9c0.1,1.9,2.2,1.6,2.2,1.6
		c1.4,0,1.3,0.8,1.3,0.8c0.1,0.2-0.1,3.1-0.1,3.1c0.2,1.4,1.5,1,1.5,1l10.4,0.3c3,2.2,3.7,0.1,3.7,0.1c0.1-0.2,0.6-0.2,0.6-0.2
		c0.8,0.2,10.2,0.1,10.4,0.1c1.7,0.4,1.7-1.2,1.7-1.2l0.1-3.1c0.1-0.6,1-0.7,1-0.7c2.8,0.4,2.6-1.9,2.6-1.9c-0.1-1.8-2-1.7-2-1.7
		c-1.5,0.1-1.4-1-1.4-1c0.1-0.8,0.1-7.8,0.1-7.8c-0.1-0.4,0.4-1.1,0.4-1.1c3.4,0.3,2.8-1.9,2.8-1.9c0.3-1.9-1.8-1.5-1.8-1.5
		c-1.8,0-1.4-1-1.4-1c0.3-2.4-0.3-3.3-0.3-3.3c-0.3-0.4-2.2-0.2-2.2-0.2c-0.6,0.4-1.5-1-1.5-1L78,27L78,27z M41.2,27
		c-2.1,1.7-5.1,0.9-5.1,0.9c-2.8-0.1-3.7,0.1-3.7,0.1c-0.6,0.9-1.7,0.1-1.7,0.1c-0.2-0.2-1-0.2-1-0.2c-5.6,0.4-7.1-0.6-7.1-0.6
		C22.4,27,21.4,27,21.4,27c-0.1,0.2-0.6,0.8-0.6,0.8c-0.3,0.2-2.2,0.1-2.2,0.1c-1-0.1-1.2,0.6-1.2,0.6l-0.1,2.5
		c0.1,1.5-0.3,1.2-0.3,1.2c-0.3,0.4-2,0.3-2,0.3c-1.4,0.1-1.2,2.2-1.2,2.2c0.2,1.4,2.3,0.9,2.3,0.9c1.4,0.1,1.2,0.9,1.2,0.9
		c-0.1,0.6,0.1,8.7,0.1,8.7c-0.1,1.2-1,0.7-1,0.7c-2.9-0.1-2.5,1.9-2.5,1.9c0.1,1.9,2.2,1.6,2.2,1.6c1.4,0,1.3,0.8,1.3,0.8
		c0.1,0.2-0.1,3.1-0.1,3.1c0.2,1.4,1.5,1,1.5,1l10.4,0.2c3,2.2,3.7,0.1,3.7,0.1c0.1-0.2,0.6-0.2,0.6-0.2c0.8,0.2,10.2,0.1,10.4,0.1
		c1.7,0.4,1.7-1.2,1.7-1.2l0.1-3.1c0.1-0.6,1-0.7,1-0.7c2.8,0.4,2.6-1.9,2.6-1.9c-0.1-1.8-2-1.7-2-1.7c-1.5,0.1-1.4-1-1.4-1
		c0.1-0.8,0.1-7.8,0.1-7.8c-0.1-0.4,0.4-1.1,0.4-1.1c3.4,0.3,2.8-1.9,2.8-1.9c0.2-1.9-1.8-1.5-1.8-1.5c-1.8,0-1.4-1-1.4-1
		c0.3-2.4-0.3-3.3-0.3-3.3c-0.3-0.4-2.2-0.2-2.2-0.2c-0.6,0.4-1.5-1-1.5-1L41.2,27L41.2,27z M37,63.2c-0.4,0-0.8,0.8-0.8,0.8
		c-0.6,1-2.6,0.4-2.6,0.4c-1.5,0.4-1.3,1.2-1.3,1.2l0.1,3c-0.1,0.8-1.2,0.5-1.2,0.5c-2-0.4-2.7,0.9-2.7,0.9
		c-0.4,0.6-0.1,1.4-0.1,1.4c0.3,1.2,1.8,1.1,1.8,1.1c0.6,0.4,1.4,0.1,1.4,0.1c0.8,0,0.6,0.9,0.6,0.9c0.1,0.5-0.1,7.8-0.1,7.8
		c0,0.6-0.1,1-0.1,1c0,0.6-2,0.2-2,0.2c-1.3,0.1-1.7,1.4-1.7,1.4c-0.4,0.9,0.9,1.8,0.9,1.8c0.1,0.2,2.5,0.4,2.5,0.4
		c0.6,0.1,0.6,1,0.6,1c-0.1,0.4,0.2,3.5,0.2,3.5c0.2,0.8,2.6,0.6,2.6,0.6s11.4-0.2,11.6-0.1c0.2,0.1,0.9-0.1,0.9-0.1l0.9,0.7
		c1.1,0.9,2.5-0.3,2.5-0.3l1.2-0.2c0.4,0.1,10.9-0.1,10.9-0.1c0.9,0.2,1.3-0.1,1.3-0.1l1.7-0.1c1.2,0,1.1-1.5,1.1-1.5v-2.2
		c0.1-1.2,0.7-1.2,0.7-1.2l1.6-0.3l0.7-0.4c1-0.3,0.5-2.1,0.5-2.1c-0.6-1.1-2.5-0.9-2.5-0.9c-1.3,0.1-1.2-0.7-1.2-0.7l0.2-8.1
		c0.1-0.7,0.5-1.2,0.5-1.2c0.4,0.1,1.7-0.3,1.7-0.3c1.3-0.3,1.2-1.5,1.2-1.5c0.2-0.9-1.3-1.5-1.3-1.5h-1.8c-0.6-0.1-0.4-2.4-0.4-2.4
		v-1.1c0.1-0.9-1.2-1.3-1.2-1.3l-2.3,0.1c-0.2-0.4-1.1-0.6-1.1-0.6c-0.4-0.2-1.1-0.2-1.1-0.2c-1.7,1.2-5.7,0.9-5.7,0.9l-4.1-0.3
		l-1.5,0.3c-0.1,0.3-0.6,0.5-0.6,0.5l-0.4-0.1c-0.4-0.4-1.7-0.6-1.7-0.6c-0.1-0.2-5.7,0.2-5.7,0.2c-3.2,0.1-4.4-1-4.4-1
		C37.3,63.2,37.2,63.2,37,63.2L37,63.2z"/>
	<path id="XMLID_59_" class="st1" d="M22.8,28.1c0,0-0.7,0.1-0.7,0.6l-0.2,19.8c0,0-0.1,0.9,1.5,1.1c0,0,1.8,0.2,2.2,0
		c0,0,1.2-0.1,4.2,0.1c0,0,0.7,0.7,0.8-0.2c0,0,0.5-16.1,0.2-19.4c0,0-0.1-1.4-1.1-1.5c0,0-4.7,0.4-5.1,0L22.8,28.1L22.8,28.1z
		 M59.5,28.1c0,0-0.7,0.1-0.7,0.6l-0.2,19.8c0,0-0.1,0.9,1.5,1.1c0,0,1.8,0.2,2.2,0c0,0,1.2-0.1,4.2,0.1c0,0,0.7,0.7,0.8-0.2
		c0,0,0.5-16.1,0.2-19.4c0,0-0.1-1.4-1.1-1.5c0,0-4.7,0.4-5.1,0L59.5,28.1L59.5,28.1z M40.6,28.1c-0.2,0-0.4,0.1-0.6,0.2
		c0,0,0.1,0.5-5.7,0.3c0,0-2.2-0.1-2.3,0.9c0,0-0.2,9.3-0.1,9.6L31.6,47l-0.3,2.7c0,0,0.4,0.6,0.7,0.2c0,0,2-0.5,3.2-0.3
		c0,0,4,0.4,4.8-0.2c0,0,0.6,0.3,0.8-0.7c0,0,0.2-17.3,0.1-17.6c0,0,0.2-2.5,0.1-2.7C41.1,28.4,41,28.1,40.6,28.1L40.6,28.1z
		 M77.3,28.2c-0.2,0-0.4,0.1-0.6,0.2c0,0,0.1,0.5-5.7,0.3c0,0-2.2-0.1-2.3,0.9c0,0-0.2,9.3-0.1,9.6l-0.1,7.8l-0.3,2.7
		c0,0,0.4,0.6,0.7,0.2c0,0,2-0.5,3.2-0.3c0,0,4,0.4,4.8-0.3c0,0,0.6,0.3,0.8-0.7c0,0,0.2-17.3,0.1-17.6c0,0,0.2-2.5,0.1-2.7
		C77.8,28.5,77.8,28.1,77.3,28.2L77.3,28.2z M19.4,28.7c-0.3,0-0.6,0.2-1.1,0.6l-0.1,2.5c0,0,0,1.4-1.3,1.4c0,0-1.5-0.1-2.2,0.6
		c0,0-0.4,1.4,1,1.1c0,0,2.2,0,2.3,0.9L18,45.2c0,0,0.5,1.5-1.2,1.5c0,0-2.1-0.1-2,1.2c0,0,0.4,1.1,2.2,0.7c0,0,1.3,0.2,1.2,1.5v2.4
		c0,0-0.1,0.9,1.1,1h9.6c0,0,0.5,0.1,0.5-0.6c0,0-0.1-0.5-0.8-0.5l-8-0.1c0,0-1.3,0.4-1.4-1.5c0,0,0.1-17.4,0.1-17.7
		c-0.1-0.3,0.1,0.2,0.1,0.2s-0.2-3,0.6-4.3C19.9,29.1,19.8,28.7,19.4,28.7L19.4,28.7z M56.1,28.7c-0.3,0-0.6,0.2-1.2,0.6l-0.1,2.5
		c0,0,0,1.4-1.3,1.4c0,0-1.5-0.1-2.2,0.6c0,0-0.4,1.4,1,1.1c0,0,2.2,0,2.3,0.9l-0.1,9.3c0,0,0.5,1.5-1.2,1.5c0,0-2.1-0.1-2,1.2
		c0,0,0.4,1.1,2.2,0.7c0,0,1.3,0.2,1.2,1.5v2.3c0,0-0.1,0.9,1.1,1h9.6c0,0,0.5,0.1,0.5-0.6c0,0-0.1-0.5-0.8-0.5l-8-0.1
		c0,0-1.3,0.4-1.4-1.5c0,0,0.1-17.4,0.1-17.7c-0.1-0.3,0.1,0.3,0.1,0.3s-0.2-3,0.6-4.3C56.6,29.1,56.5,28.7,56.1,28.7L56.1,28.7z
		 M44.2,28.8c-0.7-0.1-0.7,0.7-0.7,0.7c0.2,0.2,0.4,1.1,0.4,1.1c0.1,2.1,0,4.5,0,6.7c0,7.4-0.3,14.1-0.3,14.1c0,1.5-0.8,1.1-0.8,1.1
		l-8.7,0.1c-0.9,0-0.9,0.5-0.9,0.5c0.1,0.7,1,0.4,1,0.4c0.8,0.2,9.4,0.1,9.4,0.1c1.3,0.2,1.2-1.5,1.2-1.5c0.2-2.9,0.4-3.2,0.4-3.2
		c0.3-0.2,1.7-0.2,1.7-0.2c2.3,0.1,1.2-1.4,1.2-1.4c-0.3-0.5-1.8-0.4-1.8-0.4c-1.5,0.1-1.4-1.5-1.4-1.5l0.2-9
		c-0.2-0.7,0.4-1.1,0.4-1.1H47c2,0.1,1.5-1.1,1.5-1.1c-0.1-0.6-1.7-0.9-1.7-0.9c-1.7,0.2-1.5-0.7-1.5-0.7l-0.1-2.2
		c0.2-1.4-0.7-1.5-0.7-1.5L44.2,28.8L44.2,28.8z M80.9,28.8c-0.7-0.1-0.7,0.7-0.7,0.7c0.2,0.2,0.4,1.1,0.4,1.1c0.1,2.1,0,4.5,0,6.7
		c0,7.4-0.3,14.1-0.3,14.1c0,1.5-0.8,1-0.8,1l-8.6,0.1C70,52.5,70,53,70,53c0.1,0.7,1,0.4,1,0.4c0.8,0.2,9.4,0.1,9.4,0.1
		c1.3,0.2,1.2-1.5,1.2-1.5c0.2-2.9,0.4-3.2,0.4-3.2c0.3-0.3,1.7-0.2,1.7-0.2c2.3,0.1,1.2-1.4,1.2-1.4c-0.3-0.5-1.8-0.4-1.8-0.4
		c-1.5,0.1-1.4-1.5-1.4-1.5l0.2-9c-0.2-0.7,0.4-1.1,0.4-1.1h1.4c2,0.1,1.5-1.1,1.5-1.1c-0.1-0.6-1.7-0.9-1.7-0.9
		c-1.7,0.3-1.5-0.7-1.5-0.7l-0.1-2.2c0.2-1.4-0.7-1.5-0.7-1.5L80.9,28.8L80.9,28.8z M42.2,29c-0.2,0-0.3,0.1-0.5,0.4l-0.1,19.5
		c0,0,0.5,1.7,1.3,1.5c0,0,0.1-0.4,0.2-1l0.2-18.6C43.3,30.9,42.9,28.9,42.2,29L42.2,29z M79,29c-0.2,0-0.3,0.1-0.5,0.4l-0.1,19.5
		c0,0,0.5,1.7,1.3,1.6c0,0,0.1-0.4,0.2-1l0.2-18.6C80.1,30.9,79.7,28.9,79,29L79,29z M57.9,29.2c-1.2-0.1-1.3,2.2-1.3,2.2l-0.1,18.5
		c0.1,0.9,0.4,0.7,0.4,0.7c1.2-0.7,1-2,1-2S58,31.1,58,30.7C58,30.4,57.9,29.2,57.9,29.2L57.9,29.2z M21.2,29.2
		c-1.2-0.1-1.3,2.2-1.3,2.2l-0.1,18.5c0.1,0.9,0.4,0.7,0.4,0.7c1.2-0.7,1-2,1-2s0.2-17.5,0.2-17.8C21.3,30.4,21.2,29.2,21.2,29.2
		L21.2,29.2z M58.8,50c-0.2,0-0.6,0-1.1,0.8c0,0-0.2,0.9,0.7,0.7h6.4l1.7,0.4c0,0,1.8-0.4,0-1.4c0,0-5.7,0.1-6.2-0.1
		c0,0-1.2-0.3-1.4-0.4L58.8,50L58.8,50z M21.9,50.1c-0.2,0-0.7,0-1.1,0.8c0,0-0.2,0.9,0.7,0.7h6.4l1.7,0.4c0,0,1.8-0.4,0-1.4
		c0,0-5.7,0.1-6.2-0.1c0,0-1.2-0.3-1.4-0.4L21.9,50.1L21.9,50.1z M78.2,50.2c-0.4,0-0.9,0.1-0.9,0.1c-1,0.7-7.2,0.2-7.2,0.2
		c-0.4,0-0.9,0.6-0.9,0.6c-0.2,1.1,1.7,0.7,1.7,0.7c0.4,0,7.3-0.1,7.3-0.1c1.1,0.3,1.2-0.2,1.2-0.2c0-0.4-0.9-1.2-0.9-1.2L78.2,50.2
		L78.2,50.2z M41.3,50.3c-0.4,0-0.9,0.1-0.9,0.1c-1,0.7-7.2,0.2-7.2,0.2c-0.4,0-0.9,0.6-0.9,0.6C32,52.3,34,51.9,34,51.9
		c0.4,0,7.3-0.1,7.3-0.1c1.1,0.3,1.2-0.3,1.2-0.3c0-0.4-0.9-1.2-0.9-1.2L41.3,50.3L41.3,50.3z M68.5,51.6l-0.2,0c0,0-1.2,0-1.1,1.5
		c0,0,0.1,1.2,1.4,1.2c0,0,1.1-0.2,1-1.4C69.5,53,69,51.8,68.5,51.6L68.5,51.6z M31.6,51.8l-0.2,0c0,0-1.2,0-1.1,1.5
		c0,0,0.1,1.2,1.4,1.2c0,0,1.1-0.2,1-1.4C32.6,53.1,32.1,51.9,31.6,51.8L31.6,51.8z M61.4,64.4c-2.8,1.4-3,0.6-3.9,0.8
		c-0.9,0.2-4.3,0-4.5-0.1c-0.3-0.1-1.8,0.1-1.8,0.1c-1,0.1-1.2,0.9-1.2,0.9l-0.1,4.1L49.7,71l-0.4,0.3l-0.4-1.2l0.1-3.8
		c-0.4-1.4-1.6-1.1-1.6-1.1c-0.8-0.2-4,0-4,0c-1.4,0.2-2.9-0.1-2.9-0.1c-2,0.3-2.4-0.4-2.4-0.4c-1-0.4-1,0.2-1,0.2
		c0.2,0.5,0.1,1.5,0.1,1.5c0.1,0.5-0.1,4.8-0.1,4.8c-0.1,0.4,0,5.1,0,5.1C37.3,76.6,37,85,37,85c0.2,1.1,2.3,1,2.3,1
		c0.2,0.2,8.1,0.1,8.1,0.1c1.3,0.6,1.4-0.1,1.4-0.1c0.3-1.9,0-5.5,0.1-6.2c0.2-1.4,0.1-2.9,0.1-2.9l0.6-0.1l0.1,3.1
		c0.2,2.8,0,5.7,0,5.7c0,0.8,0.3,0.9,0.3,0.9c1.5-0.7,2.8-0.6,2.8-0.6c8.5,0.2,7.2,0.1,7.2,0.1c2.2-0.1,2-1.5,2-1.5l-0.1-3.1
		c0.2-0.7,0.2-10.3,0.2-10.3c-0.3-1,0-6.2,0-6.2C62.1,64.5,61.4,64.4,61.4,64.4L61.4,64.4z M65.5,65.2c-0.3,0-0.6,0.1-0.6,0.1
		s0.1,0-0.1-0.1c-0.2-0.1-0.2,0.4-0.2,0.4c0.8,0.8,0.6,2.1,0.6,2.1c-0.1,16.5,0,17.1,0,17.1L65,85.5c0,0-0.1,1.7-0.1,2.2
		c0,0.5-0.3,0.9-0.3,0.9l-0.7,0.2c-0.5,0.4-3.6,0.2-3.6,0.2S53,89.1,52.5,89c-0.5-0.1-1.2,0.2-1.2,0.2c-0.2,0.9,0.7,1,0.7,1
		c1.7-0.1,12.3-0.1,12.3-0.1c1.7,0.1,1.8-0.7,1.8-0.7c0.3-0.2,0.1-1.7,0.1-1.7c0.1-0.3,0.3-2,0.3-2c-0.2-0.7,2.4-0.7,2.4-0.7
		c1.4-0.1,0.9-1.3,0.9-1.3c0-0.6-1.9-0.5-1.9-0.5c-1.5,0.1-1.5-0.9-1.5-0.9s0.2-8.4,0.1-9.6c-0.1-1.2,0.9-1.4,0.9-1.4l1.5-0.1
		c1.1,0.2,1.1-0.9,1.1-0.9c0-0.5-1.6-0.7-1.6-0.7c-0.7,0.2-1.1-0.2-1.1-0.2c-0.9,0-0.8-1.8-0.8-1.8c0.4-0.9-0.1-2.3-0.1-2.3
		C66.2,65.2,65.8,65.2,65.5,65.2L65.5,65.2z M33.8,65.3c-0.7,0.1-0.7,3.3-0.7,3.3c-0.1,1.5-1.4,1.3-1.4,1.3
		c-1.8-0.2-2.4,0.9-2.4,0.9c-0.1,1,1.7,1,1.7,1c0.3-0.1,1.3-0.1,1.3-0.1c1.1,0.1,0.9,1.7,0.9,1.7L33,82.5c0.3,1.2-1.2,1-1.2,1
		c-2.1-0.1-2.4,0.8-2.4,0.8c0.1,1.3,2.2,0.9,2.2,0.9c1.5,0.2,1.4,1.1,1.4,1.1c0.1,0.3,0.1,2,0.1,2c0,1.8,0.5,1.9,0.5,1.9
		c0.2,0.4,3.3,0.2,3.3,0.2c4.6,0.2,9.8-0.3,9.8-0.3c0.7,0.1,0.7-0.3,0.7-0.3c0.4-0.5-0.6-0.7-0.6-0.7c-0.7-0.2-11.5,0.1-11.5,0.1
		c-1.1,0.4-1-1.1-1-1.1v-3.3c-0.1-0.5,0-2,0-2s0.1-7.8,0.1-8.1c-0.1-0.3,0-3,0-3l0.1-4.1c-0.1-0.3,0.7-1.7,0.7-1.7
		C35.4,65.3,33.8,65.3,33.8,65.3L33.8,65.3z M63.3,65.5c-0.2,0-0.4,0.1-0.4,0.6l-0.1,19l-0.1,0.4c0,0,0.7,1.4,1.1,1.6
		c0,0,0.7,0.8,0.5-0.6l0.1-17.8c0,0-0.2-0.6,0-1.6l-0.7-1.4L63.3,65.5L63.3,65.5z M35.9,65.6c-0.9,0.6-0.9,2-0.9,2l-0.2,19
		c0,1,0.6,0.4,0.6,0.4c1.1-0.8,0.9-2,0.9-2l0.1-18.6C36.4,65.6,35.9,65.6,35.9,65.6L35.9,65.6z M36.8,86.2l-0.5,0.4
		c-1.2,1.4-0.4,1.5-0.4,1.5l1.1-0.1l10.1,0.1c1.1,0.2,1.2-0.5,1.2-0.5c0.1-0.5-0.9-0.6-0.9-0.6l-8.4-0.1
		C37.7,87.1,36.8,86.2,36.8,86.2L36.8,86.2z M62.3,86.4l-0.2,0C61.6,87,60.1,87,60.1,87s1.1-0.2-0.7,0.1c-1.7,0.3-7.4-0.1-7.4-0.1
		c-0.4-0.1-1.5,0.6-1.5,0.6c-0.2,1,1.7,0.7,1.7,0.7c0.3-0.1,10.4-0.1,10.4-0.1c1.1,0.1,1-0.6,1-0.6l-0.9-1L62.3,86.4L62.3,86.4z
		 M49.3,88.1c-0.9,0.2-1.2,1.2-1,2c0.2,0.8,0.9,1,1.5,0.9c0.6-0.1,0.6-0.7,0.6-1.7C50.4,88.2,49.3,88.1,49.3,88.1z"/>
	<path id="XMLID_69_" d="M71.9,34.7c0,0-1.2,0.1-1.1,0.6l0.6,1.2v6.1c0,0-0.2,1.1-0.8,1.4c0,0-0.2,0.6,0.4,0.7l1.8-0.1
		c0,0,0.7,0.1,0.7-0.4c0,0-0.5-0.6-0.6-0.9c0,0-0.1-5.9,0-6.5l0.2-0.8c0,0,0.7-0.4,0.3-1c0,0-0.4-0.2-0.9-0.1L71.9,34.7L71.9,34.7z
		 M37.1,34.7l-0.2,0c0,0-2.1,0.3-2.4,0.1L32.8,35c0,0-0.2,0.6,0.5,0.9c0,0,0.2,0.1,0.2,0.4l-0.1,6.5l-0.2,0.5c0,0-0.6,0.8-0.2,0.9
		c0,0-0.6,0.4,4,0.4c0,0,1.7,0.3,1.3-1.9c0,0-0.2-0.8-0.8,0.4c0,0-0.2,1-2.4,0.7c0,0-0.5-0.4-0.5-0.9v-2.7c0,0-0.1-0.7,1-0.6
		c0,0,1.2,0.7,1.4,0.4c0,0,0.4-1,0-1.6c0,0-0.6-0.1-0.6,0.2c0,0-0.4,0.7-1.4,0.3c0,0-0.5-1-0.2-1.8c0,0-0.1-1.5,0.9-1.4
		c0,0,1.2,0.2,1.4,0.6c0,0,0.3,0.7,0.6-0.1L37.4,35L37.1,34.7L37.1,34.7z M61.1,34.7c-0.3,0-0.6,0-0.6,0.2c0,0-0.1,0.6,0.3,0.6
		c0,0,0.5,0.6,0.5,0.9L61.2,39l0.1,3.6c0,0-0.1,0.8-0.6,1.1c0,0-0.4,0.6,0,0.8l2,0.2c0,0,0.6-0.4,0.3-0.9l-0.6-0.9l0.1-1.9
		c0,0,0.4-0.4,0.6-0.2l2.2,3.5c0,0,1,0.7,1.2,0c0,0,0.1-0.3-0.2-0.5l-1.8-2.8l0.1-1c0,0,1.9-0.7,1.7-2.5c0,0,0.4-1.8-2.1-2.6h-2.6
		C61.6,34.8,61.4,34.8,61.1,34.7L61.1,34.7z M23.2,34.8c-0.9,0.1-0.4,0.7-0.4,0.7l0.8,0.6c0.1,0.3,2.5,7.8,2.5,7.8
		c1.1,1,1.2-0.2,1.2-0.2c0.7-1.2,2.1-7.2,2.1-7.2l0.6-1.2c-0.2-0.5-1.5-0.4-1.5-0.4c-0.6,0.1-0.2,0.7-0.2,0.7l0.4,1.3l-1.2,4.4
		c-0.4,1-0.8-0.4-0.8-0.4c-1.3-3.8-1.4-4.7-1.4-4.7c1-0.7,0.2-1.3,0.2-1.3L23.2,34.8L23.2,34.8z M63.4,35.6c0.3,0,0.7,0,0.8,0.2
		c0.2,0.4,1.8,1.7,0.2,3.2c0,0-0.7,1.3-1.9,0.4c0,0,0-1.9-0.1-3.2l0.2-0.4C62.7,35.7,63.1,35.6,63.4,35.6L63.4,35.6z M49.4,69.5
		c-0.3-0.1-0.4,0.5-0.6,0.9c0,0-2,8-2.3,8.5c0,0-0.2,0.7-0.9,0.9c0,0-0.4,0.4,0.2,0.6c0,0,1.2,0.4,1.5-0.1c0,0,0.4,0.3,0-1.3
		c0,0,0.3-1.8,1-1.8c0,0,0.4,0.2,0.5,0.5c0.1,0.3,0.7,0,0.7,0s0.4-0.6,0.7-0.4c0,0,0.6,0.8,0.6,1.3c0,0,0.2,1.2-0.1,1.5
		c0,0-0.3,0.2,0.4,0.4c0,0,1.4,0.2,1.9,0.1c0,0,1.1-0.3,0-0.7c0,0-0.6-0.5-0.9-1.1c0,0-1-4.8-2.3-8c0,0-0.1-0.6-0.5-0.9L49.4,69.5
		L49.4,69.5z M40.4,70.2L40,70.3l-0.6,1.5v0.5c0.4,1,0.6,0.1,0.6,0.1l0.9-0.9l0.7-0.1c0.4,0.2,0.3,0.9,0.3,0.9
		c-0.1,0.3-0.1,5.5-0.1,5.5c0.1,1.1-0.2,1.5-0.2,1.5c-0.9,1.1,0,1.1,0,1.1c0.4-0.1,1.9,0.1,1.9,0.1c0.7,0.1,0.4-0.8,0.4-0.8
		c-0.4-0.2-0.6-0.9-0.6-0.9l0.1-1c0.2-0.6,0-5.2,0-5.2c0.1-1.4,0.9-1,0.9-1c0.2,0.7,0.7,0.9,0.7,0.9c0.8-0.2,0.6-1.6,0.6-1.6
		c0.1-0.6-0.3-0.6-0.3-0.6l-1,0.5h-2.9C40.9,70.6,40.4,70.2,40.4,70.2L40.4,70.2z M58.8,70.6c-0.1,0-0.4,0-0.7,0.3c0,0-0.8,0.3-1,0
		c0,0-2.3-0.2-2.4,2.3c0,0-0.3,1.7,2.3,2.8c0,0,1.9,0.9,1.8,2.1c0,0-0.3,2.1-2.3,1.1c0,0-1-0.5-0.9-1.1c0,0-0.3-0.7-0.7-0.6
		c0,0-0.4,0.1-0.2,2.2c0,0,0,0.8,0.9,0l0.5,0.1c0,0,1.7,1.4,3.1-0.3c0,0,1.5-1.4,0.4-3.1c0,0-0.8-1.2-2.2-1.8c0,0-1.4-0.6-1.7-1.7
		c0,0,0.4-1.9,2.1-0.9c0,0,0.6,0.7,1,0.9c0,0,0.5,0,0.4-1.1l-0.1-0.9C59.1,70.9,59,70.6,58.8,70.6L58.8,70.6z M49.3,73.2l0.3,0.4
		c0,0,0.7,1.9,0.7,2.2c0,0.3-0.1,0.6-0.4,0.6s-1.4-0.1-1.4-0.1l-0.4-0.6c0,0,0.4-1.7,0.5-2L49.3,73.2L49.3,73.2z"/>
</g>
</svg>
