<?xml version="1.0" encoding="utf-8"?>
<!-- Generator: Adobe Illustrator 21.0.2, SVG Export Plug-In . SVG Version: 6.00 Build 0)  -->
<svg version="1.1" id="Layer_1" xmlns="http://www.w3.org/2000/svg" xmlns:xlink="http://www.w3.org/1999/xlink" x="0px" y="0px"
	 viewBox="0 0 1082.4 152" style="enable-background:new 0 0 1082.4 152;" xml:space="preserve">
<style type="text/css">
	.st0{fill:#777777;}
	.st1{enable-background:new    ;}
</style>
<g>
	<path class="st0" d="M264.1,103.2c1.9,0.1,3.4-0.3,3.5-1c0-0.7-1.4-1.3-3.3-1.5c-1.9-0.1-3.4,0.3-3.5,1
		C260.7,102.4,262.2,103.1,264.1,103.2z"/>
	
		<ellipse transform="matrix(0.9986 -5.249633e-02 5.249633e-02 0.9986 -5.1877 7.6903)" class="st0" cx="143.8" cy="102.6" rx="3.7" ry="1.4"/>
	<path class="st0" d="M137.2,116.5l-8.3,10.3c-0.5,0.6-1.8,1.2-2.9,1.2c-0.7,0-0.7,1,0,1c1.3,0,3-0.9,3.8-1.7l7.9-9.8
		C138.1,117,137.6,116,137.2,116.5z"/>
	<polygon class="st0" points="137.7,37.6 112.4,33.9 91.5,34.7 94,35.3 112.5,34.9 135.7,38.5 	"/>
	<polygon class="st0" points="164.1,55.1 160.5,52.9 163.3,56.1 	"/>
	<polygon class="st0" points="165.3,65.7 166.9,65.3 161.6,61.5 	"/>
	<polygon class="st0" points="162.4,49 167.1,53.3 167.9,52.1 163.6,48.2 144.4,39.5 145.5,40.8 	"/>
	<polygon class="st0" points="156.3,51.4 144.8,44.2 144.9,45 153.8,51 151.4,51.6 157.6,58.2 159.3,58.2 153.2,52.3 	"/>
	<polygon class="st0" points="129.7,41 140.4,43.8 140.9,42.8 128.5,40.2 	"/>
	<polygon class="st0" points="149.9,61.8 151.9,62 147.4,58.3 149.5,58.1 144.1,54 144.1,55 146.8,57.5 145.5,58.3 	"/>
	<polygon class="st0" points="141.3,48.3 128.7,44.2 129.1,45 137.1,48.2 135.6,48.9 140.8,51.1 143.1,51 138.5,49 	"/>
	<polygon class="st0" points="119.5,38.9 107.6,37.9 108.7,38.7 117.5,39.7 116.4,41.3 122.8,42.3 123.6,41.2 118.2,40.6 	"/>
	<polygon class="st0" points="125.9,50.1 132.3,52.2 133.9,51.8 125.8,49.1 	"/>
	<polygon class="st0" points="296.3,34.9 314.8,35.3 317.3,34.7 296.4,33.9 271.1,37.6 273,38.5 	"/>
	<polygon class="st0" points="245.4,56.1 248.3,52.9 244.7,55.1 	"/>
	<polygon class="st0" points="243.5,65.7 247.1,61.5 241.9,65.3 	"/>
	<polygon class="st0" points="263.3,40.8 264.4,39.5 245.2,48.2 240.9,52.1 241.7,53.3 246.4,49 	"/>
	<polygon class="st0" points="255,51 263.9,45 264,44.2 252.4,51.4 255.6,52.3 249.4,58.2 251.2,58.2 257.3,51.6 	"/>
	<polygon class="st0" points="279.1,41 280.3,40.2 267.9,42.8 268.4,43.8 	"/>
	<polygon class="st0" points="261.4,58.3 256.9,62 258.9,61.8 263.3,58.3 262,57.5 264.7,55 264.7,54 259.3,58.1 	"/>
	<polygon class="st0" points="267.9,51.1 273.2,48.9 271.7,48.2 279.7,45 280.1,44.2 267.4,48.3 270.3,49 265.7,51 	"/>
	<polygon class="st0" points="290.6,40.6 285.2,41.2 286,42.3 292.4,41.3 291.3,39.7 300,38.7 301.2,37.9 289.3,38.9 	"/>
	<polygon class="st0" points="276.5,52.2 282.9,50.1 283,49.1 274.9,51.8 	"/>
	<path class="st0" d="M326.9,54.7c-3.1,0.6-5.5,1.5-6.7,2.7c2.5,2.1,1.9,5.5,0.7,6.5c7.6,4,18.1-4.5,22.5-3.6l2.4-2.2
		c-5.5-2.7-10.3-3.7-14.3-3.8l-0.9,0.8l0.7,0.7c2.9,0,5.1,0.6,6.1,0.8c-6.4,0.7-3.2,0.3-2.6,0.6c0.8,0.4,4.1,0.4,4.2,0.8
		c-2.5,0-6.8-0.2-8.9,0.7c-0.7,0.3,8.2,0,2.9,0.9l-8.1,0.8l7.2,0.5c-0.6,0-9.7,0.4-10.1,0.1c-0.2-0.2,1.4-0.7,1.3-1.1
		c-0.2-0.6-1.6,0-1.5-1c0.7-0.3,5.3-1.7,8.7-2.3c0.9-0.2-6.2,0.2-5.3,0.1L326.9,54.7z"/>
	<path class="st0" d="M325.2,88.6l15.4,1.9c0.3,0.1,0.4,0.5,0.4,1.2c-0.1,1,0.9,0.6,0.9,0.4c0,0,0.6-1.2-0.3-2.2
		c-0.2-0.3-0.7-0.4-0.7-0.4l-15.8-2c0,0-0.4,0-0.4,0.4C324.6,88.5,325.2,88.6,325.2,88.6z"/>
	<path class="st0" d="M339,96.4c-0.2,0.3,0,0.6-1,1.1s0.2,0.9,0.4,0.8c0,0,1.4-0.2,1.8-1.5C340.3,96.3,339.3,95.9,339,96.4z"/>
	<path class="st0" d="M246.2,107h-29.8l0,0h-6.1c-0.3,0-0.6,0.3-0.6,0.6c0,0.3,0.3,0.6,0.6,0.6h5.6l0.6,3.1c0.1,0.3,0.3,0.5,0.6,0.5
		h0.1c0.3-0.1,0.6-0.4,0.5-0.7l-0.6-2.8H238l0.9,3.1c0.1,0.3,0.3,0.4,0.6,0.4c0.1,0,0.1,0,0.2,0c0.3-0.1,0.5-0.4,0.4-0.8l-0.8-2.8
		h6.9c0.3,0,0.6-0.3,0.6-0.6C246.8,107.2,246.6,107,246.2,107z"/>
	<path class="st0" d="M206.1,107h-48.3c-0.3,0-0.6,0.3-0.6,0.6c0,0.3,0.3,0.6,0.6,0.6H169l-0.7,2.8c-0.1,0.3,0.1,0.7,0.5,0.7h0.1
		c0.3,0,0.5-0.2,0.6-0.5l0.7-3.1h22.6v3.1c0,0.3,0.3,0.6,0.6,0.6l0,0c0.3,0,0.6-0.3,0.6-0.6v-3.1h12c0.3,0,0.6-0.3,0.6-0.6
		C206.7,107.2,206.5,107,206.1,107z"/>
	<path class="st0" d="M45.3,107h-2.7c-0.3,0-0.6,0.3-0.6,0.6c0,0.3,0.3,0.6,0.6,0.6h2.7c0.3,0,0.6-0.3,0.6-0.6
		C45.9,107.2,45.6,107,45.3,107z"/>
	<path class="st0" d="M107.6,107H70.8c-0.3,0-0.6,0.3-0.6,0.6c0,0.3,0.3,0.6,0.6,0.6h3.9l-2.4,2.5c-0.2,0.2-0.2,0.6,0,0.9
		c0.1,0.1,0.3,0.2,0.4,0.2c0.2,0,0.3-0.1,0.5-0.2l3.1-3.3l0,0h18.9l-1.9,2.6c-0.2,0.3-0.1,0.7,0.1,0.9c0.1,0.1,0.2,0.1,0.4,0.1
		c0.2,0,0.4-0.1,0.5-0.3l2.5-3.3h10.8c0.3,0,0.6-0.3,0.6-0.6C108.3,107.2,108,107,107.6,107z"/>
	<path class="st0" d="M65.7,107H48.9c-0.3,0-0.6,0.3-0.6,0.6c0,0.3,0.3,0.6,0.6,0.6h3.7l-2.6,2.5c-0.2,0.2-0.3,0.6,0,0.9
		c0.1,0.1,0.3,0.2,0.4,0.2c0.2,0,0.3-0.1,0.4-0.2l3.4-3.3c0,0,0,0,0-0.1h11.4c0.3,0,0.6-0.3,0.6-0.6C66.4,107.2,66.1,107,65.7,107z"
		/>
	<path class="st0" d="M39.6,107H28.2c-0.3,0-0.6,0.3-0.6,0.6c0,0.3,0.3,0.6,0.6,0.6h4.1l-2.8,2.5c-0.3,0.2-0.3,0.6,0,0.9
		c0.1,0.1,0.3,0.2,0.5,0.2c0.1,0,0.3-0.1,0.4-0.2l3.7-3.3c0,0,0-0.1,0.1-0.1h5.4c0.3,0,0.6-0.3,0.6-0.6
		C40.2,107.2,39.9,107,39.6,107z"/>
	<path class="st0" d="M348.1,108h6.7l3.7,3.6c0.1,0.1,0.3,0.2,0.4,0.2c0.2,0,0.3-0.1,0.4-0.2c0.2-0.2,0.2-0.6,0-0.9l-2.8-2.7H376
		l4.2,3.6c0.1,0.1,0.3,0.1,0.4,0.1c0.2,0,0.3-0.1,0.5-0.2c0.2-0.3,0.2-0.6-0.1-0.9l-3.1-2.6h2.6c0.3,0,0.6-0.3,0.6-0.6
		c0-0.3-0.3-0.6-0.6-0.6h-4.2c-0.1,0-0.1,0-0.2,0h-21c-0.1,0-0.1,0-0.2,0h-6.8c-0.3,0-0.6,0.3-0.6,0.6
		C347.5,107.8,347.8,108,348.1,108z"/>
	<path class="st0" d="M321,108h11l3,3.5c0.1,0.1,0.3,0.2,0.5,0.2c0.1,0,0.3,0,0.4-0.1c0.3-0.2,0.3-0.6,0.1-0.9l-2.3-2.7h10.5
		c0.3,0,0.6-0.3,0.6-0.6c0-0.3-0.3-0.6-0.6-0.6h-11.7c-0.1,0-0.1,0-0.2,0H321c-0.3,0-0.6,0.3-0.6,0.6C320.4,107.8,320.7,108,321,108
		z"/>
	<path class="st0" d="M281.7,120h114.2l-1.3-6.9l-7.8-8l-0.6-2.9l-15.9-13.7H345c-0.1-0.3-1-2-4-2.3l-81.6-9.4l2.3-0.4
		c0-0.1,4.7-0.4,8-1.1c2.9-0.6,4.3-1.5,4.3-1.5c1.5,0.2,3.1-0.1,3.1-0.1s41.3-8.8,42.2-9.1c1-0.3,1.5-1.1,1.5-1.1
		c1.5-2.8,0.1-4.7-0.6-5.5s-1.5-0.6-1.5-0.6s-40.5,4.6-43,5c-2.4,0.3-3.6,1.2-3.6,1.2c-0.8-0.4-1.6-0.5-2.4-0.6l9.3-4.3l-2.7-1.6
		l18.3-5.1l-4.2-3.3l20.7-2.4l-3.9-3.3l23-1.1l-4.4-3l15.5-1.4l10.3,0.9l12.4-1.8L322.1,29l-3,2.1l0.4-2.2l-26.3-0.8l-29.1,4.6
		l-1.7,2.1l-2.4-1.3l-22.1,11.2l-6.2,6.6l3,6.1l4.2,2.1l-3.1,3.1l-0.3,0.9L222,50.9c0.5-0.4,0.7-2,0.7-2v-9.4
		c-0.3-6.8-12.8-8.5-12.8-8.5l-1.3-10c-0.5-2.7-4.4-2.8-4.4-2.8c-4.8,0.1-4.9,2.8-4.9,2.8l-1.4,10c-14.7,2.2-13.9,8.5-13.9,8.5
		l0.1,8.7c-0.1,1.9,2.1,3.4,2.1,3.4l-12.4,12.3l-0.4-1.3l-3.1-3.1l4.2-2.1l3-6.1l-6.2-6.6l-22.1-11.2l-2.5,1.3l-1.7-2.1l-29.1-4.6
		l-26.3,0.8l0.4,2.2L87,29l-41.8,7.2L57.6,38l10.3-0.9l15.5,1.4l-4.4,3l23,1.1l-3.9,3.3l20.7,2.4l-4.2,3.3l18.3,5.1l-2.7,1.6
		l9.3,4.3l-34.6-4c0,0-17.6,1.4-30.6,2.3l-1.6,2.4l2.6,1.6c0,0,18.2,5.1,27.5,9.6l52,5.5c-17.8,3-34.6,5.8-49,8.3H39L24.6,102
		l-1.5,3.5l-8.4,9.6l-1.2,4.8h113.1c0.5,1.2,1.1,1.8,1.1,1.8l-2.3,2.9c-2.1,2.7-1.5,4.4-1.5,4.4l-1.4,3.2l3.1-1.8
		c3.9,0.5,6.3-2.7,6.3-2.7l3.7-4.9h7l2.4-2.9h118l2.5,2.9h7.5l8.6,12.6l0.9-3.2l-10.4-13.6c0,0-0.9-1.1-0.4-1.5c0.6-0.5,1,0.1,1,0.1
		l10.3,13.3l1.2-3.7l-4-4.6C280.9,121.5,281.4,120.7,281.7,120z M344.4,97.5c1.1-1.9,1.4-3.7,1.4-5.2h22.7l12.3,10.7H274.5
		c0.7-4.8-8.7-6.4-8.7-6.4l-3.8-4.4l76.7,8.5C338.7,100.7,341.9,101.9,344.4,97.5z M264.3,99.2c4.3,0.3,7.6,1.8,7.5,3.3
		c-0.1,1.6-3.6,2.6-7.9,2.3c-4.3-0.3-7.6-1.8-7.5-3.3S260,99,264.3,99.2z M255.6,98.2L231,70.9l11.8,3.1l19.6,22.6h-1.1
		C257,96.7,255.6,98.2,255.6,98.2z M322.2,86.8c0.6,0.1,0.4-0.3,0.4-0.3l-0.2-0.5l18.7,2.1c1.1,0.1,1.4,0.9,1.4,0.9
		c1.3,1.6,1.1,4.7,0,7.1c-1.4,3-3.5,3.2-3.5,3.2l-16.1-1.8c0,0,1.4-2.4,1.3-2.5l12.7,1.5c1,0.1,1.4-1,0.8-1.1l-13.4-1.7
		c0,0-0.8,0-1,0.7l-1.5,2.9l-1.1-0.2c0,0,0.7-1.4,1.3-2.8c0.1-0.2,0.3-0.9-0.6-1l-64.8-7.2l-1-1.1l65.7,7.4c1,0.1,1.1-0.6,1.1-0.6
		l0.2-3.2c0.1-0.7-0.8-0.9-0.8-0.9l-71-8.1l-0.9-1L322.2,86.8z M263,68.7c0,0-7.1,1.1-18.8,2.8l-1.9-1.8c13.6-2,20.1-2.8,20.1-2.8
		C262.7,67.2,263,67.9,263,68.7z M263.4,65.7l1.8-0.8c0.2,0,0.4,0.1,0.6,0.1c0,0,1.3,0.5,2.5,2.6l0.1,0.3c0,0-1.4-0.2-3.7,0.3
		C264.6,68.1,264.1,66.7,263.4,65.7z M268.7,70.6c-1,0.8-1.7,0.9-1.7,0.9l-1.6-1.5l3.1-0.6C268.6,69.4,268.8,70.3,268.7,70.6z
		 M273.7,69.6c-0.4,0.6-3.1,1.4-3.1,1.4l-0.2-1.8l3.2-0.8C273.7,68.4,273.8,69.3,273.7,69.6z M320.3,60.4c0,0,0.2,0.8-0.1,1.3
		l-39.8,7.2c0,0-3,0.6-4.5,0.6c0,0-0.1-0.9-0.3-1.6L320.3,60.4z M275.9,63.4l43.1-5.2c0.6,0.2,1.1,1.5,1.1,1.5L275,66.8
		c-0.8-1.9-1.9-2.7-1.9-2.7C274.1,63.5,275.9,63.4,275.9,63.4z M271.5,64.4c0,0,1.4,1.1,1.8,2.6c-1.2-0.1-3.3,0.4-3.3,0.4
		s-0.7-1.9-2.5-3C267.4,64.4,268.9,63.4,271.5,64.4z M237.9,54.7l-2.2-2.9l5.5-4.8l21.9-10.7l30.2-5.2l25.2,0.9l20.4,3.2l-20.1,2.3
		l3.8,2.3l-20.8,1.5l3.9,3.3l-21,3l5.1,3.6l-19.5,5.1l3.5,2.5l-11,4.8c-1.5-0.1-2.7,0.2-2.7,0.2l0.4,0.7c-0.4-0.2-1.1-0.2-1.1-0.2
		l-0.7,0.1c-2.3,0.2-4.9,0.5-7.6,0.9l2.7-2.3l-4.2,2.5c-3.3,0.4-6.8,0.9-10.6,1.4l-0.2-0.2l0.6-3l4-3.6l-0.2-2.4L237.9,54.7z
		 M206.5,21.8l1,8.8l-1.2-0.1l-0.7-10C206,20.8,206.3,21.2,206.5,21.8z M200.9,21.8c0.4-1.2,1.9-1.8,3.2-1.6l0.2,10.2
		c-2.7,0-4.3,0.2-4.3,0.2L200.9,21.8z M185.1,39.4c0-4.1,8.1-7.7,18.1-7.7s18.1,3.7,18.1,7.7c0,2.9-4.1,5.4-10.1,6.6
		c-1.6-0.6-2.8-1-4.2-1.1l-0.4-5.6c3.3,0.5,6.7,1.8,6.7,3.9c2.8-0.9,4.6-2.3,4.6-3.8c0-2.8-6.5-5.5-14.5-5.5s-14.5,2.7-14.5,5.5
		c0,1.5,1.8,2.8,4.6,3.8c0.3-2.5,4.2-3.5,7.7-3.9L201,45c-1.6,0.2-3.4,0.5-4.6,1.2C189.7,45.1,185.1,42.5,185.1,39.4z M199.5,45.9
		c0.7-0.1,2.3-0.4,4.5-0.4c2.5,0,3.6,0.3,4.6,0.5l-4.6,1.2l6.1,2c-1.3,0.6-3.6,1-6.1,1c-2.2,0-4.8-0.5-6.1-0.9c0,0,6-2.1,6.1-2.1
		L199.5,45.9z M201.8,44.9l0.1-7c0.1-0.9,1-1.5,2-1.5c0.1,0,0.3,0,0.4,0l0.2,8.4C203.8,44.8,202.8,44.8,201.8,44.9z M205.1,36.9
		c0.3,0.2,0.4,0.6,0.4,1.1l0.4,6.9h-0.6L205.1,36.9z M134.9,58.6l3.5-2.5L119,51l5.1-3.6l-21-3l3.9-3.3l-20.8-1.5l3.8-2.3l-20-2.2
		l20.4-3.2l25.2-0.9l30.2,5.2L167.6,47l5.5,4.8l-2.2,2.9l-5.3,3l-0.2,2.4l3.3,3.3l1.5,3L158.6,65l-3.6-2.2l2.3,2l-8.4-1L134.9,58.6z
		 M105.9,69.4c-0.6-0.1-1,0.2-1.3,0.7c-0.5,0.8-1,1.9-1.7,2.6c-7.3-2.5-19.2-6.1-19.2-6.1l1.9-0.4l-1-0.8c0,0,11.6,2.6,16.8,4.1
		c-6-2.6-16-5.4-16-5.4l-1.2-1.9c2-0.1,20.4-1.6,20.4-1.6l0.4,1c0,0,0.2,0.7,1.1,0.7l61.8,7l-0.7,0.7L107,63.1
		c-1.8-0.3-1.6,0.9-1.6,0.9l-0.1,2.9c-0.1,1.3,1.2,1.3,1.2,1.3l56.1,6.3l-1,1l0,0L105.9,69.4z M163.8,77.2l29.8-29.5l1.3,0.2
		c0,0,0,3.2,9.1,3.2c9,0,8.6-3.4,8.6-3.4l1.8-0.4l26.5,24.8L229.2,69l-16.8-18.5c0,0-3.6,1.5-8.4,1.6c-4.5,0.1-7.3-1.1-8.5-1.6
		L152,98.6c0,0-2-1.5-6.5-1.5L163.8,77.2z M239.7,92.3l9.1,10.7h-89.5l9.9-11.8c0.2,0,0.5-0.1,0.7-0.1l-1.2,1.2
		C168.7,92.3,239.7,92.3,239.7,92.3z M177.1,82.1l1.5-1.9l6.8-1.1l6.4,0.7L177.1,82.1z M204.2,85.9l21.3,2.4L188,88.4
		C193.6,87.6,199,86.7,204.2,85.9z M180.6,77.5l0.8-0.9l49.7,5.6l0.8,1L180.6,77.5z M225.8,75.8l0.2,0.3l0.5,0.6L185.3,72l0.7-0.8
		L225.8,75.8z M188.4,68.3l8.2-9.8c9.3,2.3,15.7-0.1,15.7-0.1l8.5,10.9c-2.1,0.3-5.5,0.9-9.5,1.5L188.4,68.3z M225.8,72.5L213.3,58
		v-4l13.9,15.4C225.6,70,225.8,72.5,225.8,72.5z M143.7,99.5c4.4-0.2,8.1,0.9,8.2,2.6c0.1,1.7-3.4,3.2-7.9,3.5
		c-4.4,0.2-8.1-0.9-8.2-2.6C135.7,101.3,139.2,99.8,143.7,99.5z M132.8,103c-7.7,0-36.7,0-62,0c27.5-2.8,52.1-5.6,73.5-8.4l-2.6,2.8
		C134.4,98.7,132.8,101.1,132.8,103z M154.3,83.7l-2.1,2.3c-22.9,3.7-73.2,11.5-92.3,15c-2.2,0.3-2.3-1.2-0.9-1.6
		C83.3,95,133.2,87.2,154.3,83.7z M40.8,92.3h42.5c-12.7,2.3-21.5,4-24.5,4.8c-5.6,1.3-7.5,4.4-4.9,6c-14.3,0-24.7,0-24.7,0
		L40.8,92.3z M126.2,115.3H20.1l6.9-7.7l0.6-2l105.9-0.1c0.1,0.1,0.1,0.2,0.1,0.2l-1.3,1.3h-19.1c-0.3,0-0.6,0.3-0.6,0.6
		c0,0.3,0.3,0.6,0.6,0.6h3.6l-1.6,3.2c-0.2,0.3,0,0.7,0.3,0.8c0.1,0,0.2,0.1,0.3,0.1c0.2,0,0.4-0.1,0.5-0.3l1.9-3.7h12.9l-3,3
		C127.1,112.7,126.5,114.1,126.2,115.3z M128.8,115.9c0,0,0.3-2,1-2.5h10.9c0.6,0.1,1.3,2.4,1.3,2.4h-3.1c0,0-0.5-1.6-2.6-1.8
		c-2.4-0.2-3.7,1.9-3.7,1.9H128.8z M131.6,117.1l-2.3,2.9c-1.1-1.2-0.8-2.9-0.8-2.9H131.6z M130.8,127.5c-2,2.6-5.6,2.4-5.6,2.4
		l-1.8,1.3l0.8-2c0,0-0.4-2.4,1.9-4.9l7.5-8.9c1-1.2,4.3-1.6,4.8,1.2c0.2,0.9-0.4,1.7-0.4,1.7L130.8,127.5z M142.1,117.5
		c-0.2,1.8-1.4,2.8-1.4,2.8h-3.2c0,0.1,1.1-1.4,1.1-1.4c0.9-1.2,0.6-1.8,0.6-1.8h2.9L142.1,117.5L142.1,117.5z M140.4,110.7h-8.3
		l3.9-3.7c0,0,3.2,1.6,6.8,1.2l0,0L140.4,110.7z M142.8,112l3.8-4.3c1.5-0.2,2.9-0.8,2.9-0.8l-5.6,6.7
		C143.8,113.2,142.8,112,142.8,112z M144.5,117.7c0.5-1.2,0-2.7,0-2.7s7.9-9.4,8-9.6c0.3-0.1,0.9-0.8,0.9-0.8c2.2-2.8,0.1-5,0.1-5
		l41.2-45.7l0.1,4.1L144.5,117.7z M149,115.3l8.2-9.8h93.6l8.2,9.7L149,115.3z M263.5,117.8L227.3,74c-0.5-2.8,0.8-3.8,0.8-3.8
		l26.1,29c-2.1,2.9,0.7,5,0.7,5l8.9,10.9C263.1,116.5,263.5,117.8,263.5,117.8z M264.2,113.7l-6.1-7.4c1.4,0.6,3.1,0.9,3.1,0.9
		l4.1,4.6C264.8,112.2,264.2,113.7,264.2,113.7z M264.9,107.6c3.3,0.5,6.8-1.1,6.8-1.1l4.5,4.2l-8.5,0.1L264.9,107.6z M267.1,120.5
		c-1.4-1.5-1.1-3.2-1.1-3.2h3.6c0,0,0.1,0.6,0.4,1.1l1.4,2.1H267.1z M269.7,115.9h-3.6c0.5-1.5,1.5-2.5,1.5-2.5l10.8-0.1
		c0.6,0.8,0.9,2.5,0.9,2.5h-4.5C272.7,113.3,270,115,269.7,115.9z M278.6,120.4l-2.6-3.3h3.5C279.5,117.1,279.8,118.9,278.6,120.4z
		 M277,108h6.6l1.5,3.4c0.1,0.2,0.3,0.4,0.6,0.4c0.1,0,0.2,0,0.2-0.1c0.3-0.1,0.5-0.5,0.3-0.8l-1.3-2.9h21.6l0,0l2.1,3.8
		c0.1,0.2,0.3,0.3,0.5,0.3c0.1,0,0.2,0,0.3-0.1c0.3-0.2,0.4-0.5,0.2-0.8l-1.8-3.2h5.7c0.3,0,0.6-0.3,0.6-0.6c0-0.3-0.3-0.6-0.6-0.6
		H284c-0.1,0-0.2,0-0.3,0h-8.1l-1.3-1.3h107.8l0.5,1.4l7.4,6.5l0.1,1.9H281.9c-0.5-2.5-2-4.2-2-4.2L277,108z"/>
</g>
<g class="st1">
	<path class="st0" d="M519,55.5c-2.4-14-11.5-19.5-22.9-19.5c-14.2,0-23.1,7.7-23.1,30.3v10.1c0,22.7,9,30.3,23.1,30.3
		c12.1,0,20.6-6.9,22.9-20h3.2c-2.3,17.1-14.4,23.3-26.1,23.3c-16.2,0-26.5-9-26.5-33.6V66.3c0-24.6,10.3-33.6,26.5-33.6
		c12.2,0,23.9,6.2,26.2,22.8H519z"/>
	<path class="st0" d="M587.2,55.5c-2.4-14-11.5-19.5-22.9-19.5c-14.2,0-23.1,7.7-23.1,30.3v10.1c0,22.7,9,30.3,23.1,30.3
		c12.1,0,20.6-6.9,22.9-20h3.2c-2.3,17.1-14.4,23.3-26.1,23.3c-16.2,0-26.5-9-26.5-33.6V66.3c0-24.6,10.3-33.6,26.5-33.6
		c12.2,0,23.9,6.2,26.2,22.8H587.2z"/>
	<path class="st0" d="M640.9,87.1l27.9-53.8h3.1v76.1h-3.3V41l-26.1,50.4h-3.1L613.2,41v68.5h-3.3V33.4h3.1L640.9,87.1z"/>
	<path class="st0" d="M728.3,109.4V33.4h22c16.9,0,27.6,8.4,27.6,33v10.1c0,24.6-10.7,33-27.6,33H728.3z M774.6,76.5V66.3
		c0-22.8-9.6-29.7-24.2-29.7h-18.7v69.4h18.7C764.7,106.1,774.6,99.8,774.6,76.5z"/>
	<path class="st0" d="M797.3,82.7v3.5c0,12.2,5.7,20.5,19.4,20.5c6.3,0,11.8-2,15.7-7.3l2.8,1.9c-3.7,5.4-10,8.7-18.4,8.7
		c-14.4,0-22.7-8.6-22.7-23.8v-9c0-15.7,7.7-23.6,20.7-23.6s20.7,7.9,20.7,23.6v5.5H797.3z M797.3,79.4h34.8v-2.2
		c0-13.7-6.3-20.3-17.4-20.3c-11,0-17.4,6.7-17.4,20.3V79.4z"/>
	<path class="st0" d="M885.8,64.7c-3.7-5.7-7.8-7.7-16.2-7.7c-8.4,0-15.3,3.1-15.3,10.8c0,9,8.3,10.5,16.4,11.9
		c11,2,19.5,5.3,19.5,16c0,7.6-4.6,14.4-19.6,14.4c-10.7,0-16.2-3.4-20.2-9.1l2.9-2c3.6,5.3,8.2,7.8,17.4,7.8
		c9.7,0,16.2-2.9,16.2-11.1c0-8.2-7.5-10.9-18.6-13c-9.6-1.8-17.3-4.5-17.3-14.9c0-8.7,6.7-14.1,18.6-14.1c8.5,0,14.9,2.3,19,9.1
		L885.8,64.7z"/>
	<path class="st0" d="M908.9,33.4h4.8v4.9h-4.8V33.4z M909.6,54.3h3.3v55.1h-3.3V54.3z"/>
	<path class="st0" d="M932.4,77.2c0-15.7,7.3-23.6,20.9-23.6c9.3,0,15.2,2.6,18.3,8.9v-8.3h3.3v51.8c0,15.2-7.7,24.9-21.4,24.9
		c-7.9,0-13.8-3.3-17.3-8.7l2.8-1.9c3.6,5.3,8.9,7.3,14.5,7.3c12.7,0,18.1-9.4,18.1-21.6v-5c-3.1,6.3-9,8.9-18.3,8.9
		c-13.7,0-20.9-7.9-20.9-23.8V77.2z M971.6,87.3V76.5c-0.2-11.6-4.1-19.5-18.3-19.5c-11.9,0-17.6,6.7-17.6,20.3v9
		c0,13.8,5.7,20.5,17.6,20.5C967.5,106.8,971.4,98.9,971.6,87.3z"/>
	<path class="st0" d="M995.4,54.3h3.3v9.3c3.1-6.3,9.4-9.9,17.7-9.9c12.7,0,20.4,8.9,20.4,24.7v31.1h-3.3V78.3
		c0-13.9-6.5-21.4-17.1-21.4c-12.6,0-17.5,7.8-17.7,20.4v32.1h-3.3V54.3z"/>
</g>
</svg>
