<?xml version="1.0" encoding="utf-8"?>
<!-- Generator: Adobe Illustrator 19.2.1, SVG Export Plug-In . SVG Version: 6.00 Build 0)  -->
<svg version="1.1" id="Layer_1" xmlns="http://www.w3.org/2000/svg" xmlns:xlink="http://www.w3.org/1999/xlink" x="0px" y="0px"
	 viewBox="0 0 919.7 287.1" style="enable-background:new 0 0 919.7 287.1;" xml:space="preserve">
<style type="text/css">
	.st0{fill-rule:evenodd;clip-rule:evenodd;}
</style>
<g>
	<path class="st0" d="M601.5,206.7c4.5,0.3,8.2-0.8,8.3-2.4c0.1-1.6-3.4-3.2-7.9-3.5c-4.5-0.3-8.2,0.8-8.3,2.4
		C593.5,204.8,597,206.4,601.5,206.7z"/>
	<path class="st0" d="M314.5,208.4c4.9-0.3,8.9-1.9,8.8-3.7c-0.1-1.8-4.2-3-9.1-2.8c-4.9,0.3-8.9,1.9-8.8,3.7
		C305.5,207.5,309.5,208.7,314.5,208.4z"/>
	<path class="st0" d="M298.6,238.4L278.7,263c-1.2,1.4-4.3,2.8-6.8,2.8c-1.6,0-1.6,2.4,0,2.4c3.1,0,7.3-2,9.1-4.1l18.9-23.4
		C300.9,239.5,299.6,237.2,298.6,238.4z"/>
	<polygon class="st0" points="299.7,50 239.4,41.2 189.5,43.1 195.5,44.6 239.7,43.6 295.2,52.1 	"/>
	<polygon class="st0" points="362.9,91.8 354.2,86.5 361,94.1 	"/>
	<polygon class="st0" points="365.7,117.2 369.5,116.2 357,107.1 	"/>
	<polygon class="st0" points="358.7,77.2 370,87.6 371.9,84.6 361.7,75.3 315.8,54.6 318.5,57.6 	"/>
	<polygon class="st0" points="344.3,82.9 316.7,65.8 317,67.8 338.3,82.1 332.6,83.5 347.2,99.3 351.5,99.3 336.9,85.2 	"/>
	<polygon class="st0" points="280.7,58.3 306.2,64.9 307.4,62.5 277.9,56.2 	"/>
	<polygon class="st0" points="328.9,107.9 333.8,108.4 323,99.3 328,98.9 315.2,89.2 315,91.5 321.5,97.6 318.5,99.3 	"/>
	<polygon class="st0" points="308.5,75.7 278.3,65.8 279.3,67.7 298.4,75.5 294.7,77 307.3,82.2 312.8,82 301.7,77.2 	"/>
	<polygon class="st0" points="256.4,53.2 227.9,50.7 230.7,52.8 251.6,55 249,59 264.2,61.2 266.1,58.6 253.3,57.3 	"/>
	<polygon class="st0" points="271.6,79.9 287,85 290.7,84.1 271.4,77.5 	"/>
	<polygon class="st0" points="678.3,43.6 722.5,44.6 728.6,43.1 678.7,41.2 618.3,50 622.9,52.1 	"/>
	<polygon class="st0" points="557,94.1 563.8,86.5 555.1,91.8 	"/>
	<polygon class="st0" points="552.4,117.2 561.1,107.1 548.5,116.2 	"/>
	<polygon class="st0" points="599.5,57.6 602.3,54.6 556.4,75.3 546.2,84.6 548.1,87.6 559.3,77.2 	"/>
	<polygon class="st0" points="579.8,82.1 601,67.8 601.4,65.8 573.7,82.9 581.2,85.2 566.5,99.3 570.8,99.3 585.4,83.5 	"/>
	<polygon class="st0" points="637.4,58.3 640.1,56.2 610.7,62.5 611.9,64.9 	"/>
	<polygon class="st0" points="595.1,99.3 584.3,108.4 589.1,107.9 599.5,99.3 596.6,97.6 603,91.5 602.9,89.2 590,98.9 	"/>
	<polygon class="st0" points="610.7,82.2 623.3,77 619.6,75.5 638.8,67.7 639.8,65.8 609.5,75.7 616.3,77.2 605.3,82 	"/>
	<polygon class="st0" points="664.8,57.3 651.9,58.6 653.8,61.2 669,59 666.4,55 687.4,52.8 690.2,50.7 661.7,53.2 	"/>
	<polygon class="st0" points="631,85 646.4,79.9 646.7,77.5 627.4,84.1 	"/>
	<path class="st0" d="M751.4,90.7c-7.4,1.4-13.2,3.7-16,6.4c6.1,5,4.4,13,1.7,15.5c18.1,9.5,43.2-10.8,53.7-8.6l5.7-5.2
		c-13.2-6.4-24.6-8.8-34-9l-2,1.8l1.7,1.7c6.8,0,12.2,1.5,14.5,1.9c-15.3,1.7-7.8,0.8-6.2,1.5c1.9,0.9,9.8,1,10,1.9
		c-5.9-0.1-16.2-0.5-21.2,1.8c-1.7,0.8,19.7-0.1,6.9,2l-19.3,2l17.3,1.3c-1.5-0.1-23.2,1.1-24.2,0.1c-0.6-0.6,3.3-1.6,3-2.6
		c-0.4-1.4-3.8,0-3.6-2.4c1.6-0.7,12.5-4.1,20.7-5.5c2.1-0.4-14.8,0.4-12.6,0.1L751.4,90.7z"/>
	<path class="st0" d="M747.3,171.7l36.9,4.6c0.7,0.3,1,1.1,0.8,2.8c-0.3,2.5,2,1.5,2.1,1c0,0,1.5-2.8-0.8-5.3
		c-0.5-0.7-1.7-0.9-1.7-0.9l-37.7-4.7c0,0-1,0.1-1,0.9C746,171.5,747.3,171.7,747.3,171.7z"/>
	<path class="st0" d="M780.3,190.3c-0.4,0.8-0.1,1.5-2.4,2.7c-2.4,1.2,0.4,2,0.9,1.8c0,0,3.3-0.5,4.2-3.6
		C783.4,190.2,781,189.1,780.3,190.3z"/>
	<path class="st0" d="M558.9,215.6h-71.1c0,0,0,0,0,0h-14.5c-0.8,0-1.5,0.7-1.5,1.5c0,0.8,0.7,1.5,1.5,1.5h13.3l1.5,7.4
		c0.1,0.7,0.8,1.2,1.4,1.2c0.1,0,0.2,0,0.3,0c0.8-0.2,1.3-1,1.1-1.8l-1.4-6.7h49.9l2.2,7.5c0.2,0.6,0.8,1.1,1.4,1.1
		c0.1,0,0.3,0,0.4-0.1c0.8-0.2,1.2-1.1,1-1.8l-1.9-6.6h16.4c0.8,0,1.5-0.7,1.5-1.5C560.3,216.3,559.7,215.6,558.9,215.6z"/>
	<path class="st0" d="M463.2,215.6H347.9c-0.8,0-1.5,0.7-1.5,1.5c0,0.8,0.7,1.5,1.5,1.5h26.7l-1.6,6.7c-0.2,0.8,0.3,1.6,1.1,1.8
		c0.1,0,0.2,0,0.3,0c0.7,0,1.3-0.5,1.4-1.1l1.8-7.4h53.9l0.1,7.4c0,0.8,0.7,1.5,1.5,1.5h0c0.8,0,1.5-0.7,1.5-1.5l-0.1-7.3h28.6
		c0.8,0,1.5-0.7,1.5-1.5C464.6,216.3,464,215.6,463.2,215.6z"/>
	<path class="st0" d="M79.2,215.6h-6.5c-0.8,0-1.5,0.7-1.5,1.5c0,0.8,0.7,1.5,1.5,1.5h6.5c0.8,0,1.5-0.7,1.5-1.5
		C80.7,216.3,80,215.6,79.2,215.6z"/>
	<path class="st0" d="M228.1,215.6h-88c-0.8,0-1.5,0.7-1.5,1.5c0,0.8,0.7,1.5,1.5,1.5h9.3l-5.7,6c-0.6,0.6-0.5,1.5,0.1,2.1
		c0.3,0.3,0.7,0.4,1,0.4c0.4,0,0.8-0.2,1.1-0.5l7.5-8c0,0,0-0.1,0.1-0.1h45.2l-4.6,6.2c-0.5,0.7-0.4,1.6,0.3,2.1
		c0.3,0.2,0.6,0.3,0.9,0.3c0.5,0,0.9-0.2,1.2-0.6l5.9-7.9h25.9c0.8,0,1.5-0.7,1.5-1.5C229.5,216.3,228.9,215.6,228.1,215.6z"/>
	<path class="st0" d="M128.1,215.6H87.9c-0.8,0-1.5,0.7-1.5,1.5c0,0.8,0.7,1.5,1.5,1.5h8.7l-6.1,6c-0.6,0.6-0.6,1.5,0,2.1
		c0.3,0.3,0.7,0.4,1.1,0.4c0.4,0,0.7-0.1,1-0.4l8.2-8c0,0,0.1-0.1,0.1-0.1h27.3c0.8,0,1.5-0.7,1.5-1.5
		C129.6,216.3,128.9,215.6,128.1,215.6z"/>
	<path class="st0" d="M65.6,215.6h-27c-0.8,0-1.5,0.7-1.5,1.5c0,0.8,0.7,1.5,1.5,1.5h9.8l-6.6,6c-0.6,0.6-0.7,1.5-0.1,2.1
		c0.3,0.3,0.7,0.5,1.1,0.5c0.4,0,0.7-0.1,1-0.4l8.8-8c0.1,0,0.1-0.1,0.1-0.2h12.9c0.8,0,1.5-0.7,1.5-1.5
		C67,216.3,66.4,215.6,65.6,215.6z"/>
	<path class="st0" d="M802.1,218.2h15.9l8.9,8.5c0.3,0.3,0.7,0.4,1,0.4c0.4,0,0.8-0.2,1.1-0.5c0.6-0.6,0.6-1.5,0-2.1l-6.7-6.4h46.4
		l9.9,8.6c0.3,0.2,0.6,0.4,1,0.4c0.4,0,0.8-0.2,1.1-0.5c0.5-0.6,0.5-1.5-0.1-2.1l-7.3-6.3h6.2c0.8,0,1.5-0.7,1.5-1.5
		c0-0.8-0.7-1.5-1.5-1.5h-10.1c-0.1,0-0.3,0-0.4,0h-50.2c-0.1,0-0.2,0-0.4,0h-16.3c-0.8,0-1.5,0.7-1.5,1.5
		C800.7,217.5,801.3,218.2,802.1,218.2z"/>
	<path class="st0" d="M737.4,218.2h26.2l7.1,8.4c0.3,0.3,0.7,0.5,1.1,0.5c0.3,0,0.7-0.1,1-0.4c0.6-0.5,0.7-1.5,0.2-2.1l-5.5-6.5h25
		c0.8,0,1.5-0.7,1.5-1.5c0-0.8-0.7-1.5-1.5-1.5h-28c-0.1,0-0.3,0-0.4,0h-26.7c-0.8,0-1.5,0.7-1.5,1.5
		C735.9,217.5,736.6,218.2,737.4,218.2z"/>
	<path class="st0" d="M643.5,246.7h272.7l-3.2-16.5L894.3,211l-1.5-7l-37.9-32.7h-60.5c-0.3-0.7-2.4-4.8-9.5-5.6l-194.7-22.6l5.4-1
		c0.1-0.2,11.3-1,19-2.6c6.9-1.4,10.4-3.6,10.4-3.6c3.5,0.5,7.4-0.2,7.4-0.2s98.5-21,100.8-21.6c2.3-0.6,3.5-2.6,3.5-2.6
		c3.7-6.6,0.3-11.2-1.4-13.2c-1.8-1.9-3.6-1.5-3.6-1.5S635,108,629.2,108.8c-5.8,0.8-8.7,2.8-8.7,2.8c-2-0.8-3.9-1.2-5.8-1.4
		l22.2-10.3l-6.5-3.8l43.7-12.1L664.1,76l49.4-5.7l-9.2-8l54.8-2.6l-10.4-7.1l37-3.5l24.6,2.1l29.6-4.3l-99.8-17.3l-7.2,4.9l0.9-5.3
		L671,27.4l-69.5,10.9l-4.1,4.9l-5.8-3l-52.9,26.7l-14.9,15.8l7.2,14.6l9.9,4.9l-7.3,7.3l-0.6,2.1l-32.3-30.1c1.1-1,1.6-4.8,1.6-4.8
		V54.1c-0.7-16.3-30.6-20.4-30.6-20.4L468.4,10c-1.1-6.5-10.6-6.6-10.6-6.6c-11.4,0.1-11.7,6.6-11.7,6.6l-3.2,23.9
		c-35.1,5.2-33.1,20.3-33.1,20.3l0.1,20.7c-0.3,4.7,5.1,8.2,5.1,8.2l-29.5,29.5l-1.1-3.1l-7.3-7.3l9.9-4.9l7.2-14.6l-14.9-15.8
		l-52.8-26.7l-5.9,3l-4.1-4.9l-69.5-10.9l-62.7,1.9l0.9,5.3l-7.2-4.9L78.2,46.9l29.6,4.3l24.6-2.1l37,3.5L159,59.6l54.8,2.6l-9.2,8
		L254,76l-10.1,7.9L287.6,96l-6.5,3.8l22.1,10.3l-82.7-9.5c0,0-42,3.4-73,5.5l-3.8,5.8l6.2,3.9c0,0,43.6,12.3,65.6,22.8l124.1,13
		c-42.5,7-82.6,13.8-117.1,19.8H64.3L30,204l-3.5,8.2l-20,22.9l-3,11.5h269.9c1.1,2.8,2.5,4.3,2.5,4.3l-5.5,6.8
		c-4.9,6.5-3.5,10.4-3.5,10.4l-3.4,7.7l7.4-4.2c9.3,1.1,15-6.5,15-6.5l8.9-11.7h16.8l5.8-6.9h281.8l5.9,6.9h17.9l20.4,30.1l2.1-7.8
		l-24.8-32.5c0,0-2.2-2.7-0.9-3.7c1.5-1.2,2.5,0.3,2.5,0.3l24.6,31.8l2.8-8.9l-9.4-11C641.7,250.3,642.8,248.5,643.5,246.7z
		 M793.2,193.1c2.6-4.6,3.4-8.9,3.4-12.4l54.3-0.1l29.5,25.5l-253.8,0c1.7-11.5-20.7-15.3-20.7-15.3l-9.1-10.5l183.1,20.2
		C779.7,200.7,787.2,203.6,793.2,193.1z M602,197.2c10.2,0.7,18.2,4.2,18,7.9c-0.2,3.7-8.6,6.2-18.8,5.5c-10.2-0.7-18.2-4.2-18-7.9
		C583.4,199,591.9,196.5,602,197.2z M581.3,194.8l-58.7-65.1l28.1,7.4l46.7,53.9h-2.6C584.6,191.2,581.3,194.8,581.3,194.8z
		 M740.3,167.4c1.4,0.1,1-0.8,1-0.8l-0.4-1.1l44.7,5c2.5,0.2,3.5,2.2,3.5,2.2c3,3.8,2.6,11.1,0,16.9c-3.3,7.1-8.3,7.5-8.3,7.5
		l-38.4-4.3c0,0,3.3-5.8,3.1-6l30.2,3.7c2.4,0.2,3.4-2.4,1.9-2.6l-32.1-4c0,0-1.8,0-2.3,1.6l-3.6,7l-2.5-0.4c0,0.1,1.7-3.3,3.1-6.8
		c0.2-0.4,0.8-2.3-1.5-2.4l-154.6-17.1l-2.3-2.7l156.9,17.6c2.4,0.2,2.7-1.5,2.7-1.5l0.5-7.8c0.2-1.7-1.8-2.2-1.8-2.2l-169.5-19.2
		l-2-2.4L740.3,167.4z M598.8,124.4c0,0-16.9,2.5-44.9,6.8l-4.7-4.4c32.4-4.7,47.9-6.7,47.9-6.7C598.1,120.7,599,122.5,598.8,124.4z
		 M599.8,117.1l4.2-1.9c0.5,0.1,0.9,0.2,1.4,0.3c0,0,3.1,1.3,5.9,6.2l0.2,0.6c0,0-3.4-0.5-8.7,0.6
		C602.7,122.9,601.5,119.5,599.8,117.1z M612.6,128.9c-2.3,2-4.1,2.1-4.1,2.1l-3.7-3.5l7.4-1.5C612.3,126,612.8,128.2,612.6,128.9z
		 M624.5,126.4c-0.9,1.4-7.4,3.3-7.4,3.3l-0.4-4.3l7.6-1.9C624.4,123.5,624.6,125.7,624.5,126.4z M735.6,104.5c0,0,0.4,1.8-0.3,3.1
		l-95.1,17.3c0,0-7.3,1.4-10.8,1.4c0,0-0.3-2.3-0.7-3.8L735.6,104.5z M629.7,111.7l102.8-12.4c1.4,0.6,2.7,3.5,2.7,3.5l-107.7,16.9
		c-2-4.5-4.6-6.5-4.6-6.5C625.4,111.8,629.7,111.7,629.7,111.7z M619.1,114c0,0,3.3,2.7,4.2,6.1c-2.8-0.1-7.9,1-7.9,1
		s-1.6-4.5-5.9-7.2C609.5,113.9,612.9,111.7,619.1,114z M539.1,90.8l-5.3-6.9l13-11.5l52.4-25.5l72-12.5l60.1,2.2l48.6,7.6l-48,5.5
		l9,5.5l-49.6,3.5l9.4,7.9l-50,7l12.3,8.6l-46.5,12.3l8.5,5.9l-26.2,11.5c-3.6-0.2-6.6,0.5-6.6,0.5l1,1.7c-1-0.5-2.7-0.4-2.7-0.4
		l-1.6,0.2c-5.5,0.6-11.6,1.3-18.2,2.1l6.4-5.5l-9.9,6c-7.8,1-16.2,2.1-25.3,3.4l-0.4-0.4l1.3-7.2l9.6-8.5l-0.5-5.6L539.1,90.8z
		 M463.9,12.2l2.4,21.1l-3-0.2l-1.7-23.8C462.8,10,463.6,11,463.9,12.2z M450.8,12.2c0.9-2.9,4.4-4.2,7.7-3.9l0.6,24.4
		c-6.5-0.1-10.2,0.5-10.2,0.5L450.8,12.2z M412.9,54.4c0-9.7,19.4-18.4,43.2-18.4c23.8,0,43.1,8.7,43.1,18.4
		c0,6.9-9.9,12.9-24.2,15.8c-3.9-1.5-6.7-2.3-10.1-2.6l-1-13.4c7.8,1.1,16,4.3,16.1,9.3c6.8-2.2,11-5.4,11-9
		c0-6.8-15.5-13.2-34.6-13.2c-19.1,0-34.7,6.4-34.7,13.2c0,3.6,4.2,6.8,11,9c0.7-6,10-8.5,18.4-9.3l-0.5,13.5
		c-3.9,0.4-8.1,1.3-11,2.9C424,68,412.9,61.7,412.9,54.4z M447.5,69.9c1.7-0.2,5.5-1,10.8-1c5.9,0,8.6,0.6,11,1.3l-11.1,2.8
		l14.5,4.7c-3.2,1.5-8.5,2.5-14.5,2.5c-5.2,0-11.4-1.1-14.6-2.2c0,0,14.4-4.9,14.6-4.9C458.1,72.9,447.5,69.9,447.5,69.9z
		 M452.7,67.5l0.4-16.7c0.2-2.2,2.4-3.7,4.8-3.6c0.3,0,0.7,0,1,0.1l0.4,20C457.6,67.3,455.3,67.3,452.7,67.5z M460.7,48.3
		c0.7,0.6,0.9,1.4,1,2.6l0.9,16.6l-1.4-0.1L460.7,48.3z M293.3,100.2l8.5-5.9l-46.5-12.3l12.3-8.6l-50-7l9.4-7.9l-49.6-3.5l9-5.5
		l-48.1-5.5l48.6-7.6l60.1-2.2l72,12.5l52.4,25.5l13,11.5l-5.3,6.9L366.3,98l-0.5,5.6l7.9,7.9l3.5,7.2l-27.5-3.2l-8.6-5.2l5.6,4.8
		l-20.1-2.3L293.3,100.2z M224,126c-1.3-0.2-2.4,0.5-3,1.6c-1.1,1.9-2.3,4.5-4,6.1c-17.5-6.1-45.8-14.6-45.8-14.6l4.7-1l-2.5-1.9
		c0,0,27.7,6.2,40.1,9.8c-14.4-6.3-38.1-13-38.1-13l-2.8-4.4c4.9-0.2,48.6-3.8,48.6-3.8l0.9,2.4c0,0,0.5,1.7,2.7,1.7l147.6,16.7
		l-1.8,1.8L227,111c-4.2-0.7-3.8,2.2-3.8,2.2l-0.3,6.9c-0.1,3.1,2.8,3.2,2.8,3.2l133.9,15.1l-2.3,2.3l-0.1,0.1L224,126z
		 M362.1,144.6l71.2-70.3l3.2,0.6c0,0,0,7.6,21.7,7.6c21.5,0,20.5-8.1,20.5-8.1l4.3-0.9l63.4,59.1l-28-7.6l-40.1-44.2
		c0,0-8.7,3.6-20,3.8c-10.8,0.2-17.5-2.5-20.2-3.9L334.1,195.6c0,0-4.9-3.5-15.6-3.5L362.1,144.6z M543.3,180.7l21.6,25.6l-213.6,0
		L375,178c0.5-0.1,1.1-0.2,1.7-0.2l-2.8,2.9H543.3z M393.8,156.3l3.5-4.7l16.2-2.6l15.3,1.7L393.8,156.3z M458.7,165.4l50.8,5.7
		l-89.5,0.4C433.2,169.4,446.1,167.4,458.7,165.4z M402.3,145.4l1.9-2.2l118.7,13.4l2,2.3L402.3,145.4z M510,141.3l0.5,0.7l1.2,1.4
		l-98.4-11.1l1.6-1.8L510,141.3z M420.7,123.4l19.6-23.3c22.1,5.5,37.4-0.2,37.4-0.2l20.3,26c-4.9,0.8-13,2.1-22.8,3.7L420.7,123.4z
		 M510.1,133.3l-29.8-34.7l-0.1-9.6l33.1,36.8C509.8,127.5,510.1,133.3,510.1,133.3z M314.1,197.9c10.6-0.6,19.3,2.3,19.5,6.3
		c0.2,4-8.2,7.7-18.8,8.3c-10.6,0.5-19.3-2.3-19.5-6.3C295.1,202.2,303.5,198.5,314.1,197.9z M288.1,206.3c-18.4,0-87.6,0-148.1,0
		c65.6-6.6,124.3-13.4,175.5-20.1l-6.2,6.7C292,195.9,288.1,201.7,288.1,206.3z M339.6,160l-5.1,5.6
		c-54.7,8.9-174.6,27.4-220.3,35.8c-5.3,0.6-5.6-3-2-3.9C170,187,289,168.4,339.6,160z M68.6,180.7h101.5
		c-30.3,5.5-51.3,9.5-58.4,11.3c-13.3,3.1-17.8,10.4-11.6,14.3c-34.1,0-59,0-59,0L68.6,180.7z M272.5,235.5l-253.2-0.1l16.4-18.3
		l1.3-4.9l252.9-0.2c0.2,0.3,0.3,0.4,0.3,0.4l-3.1,3.1h-45.5c-0.8,0-1.5,0.7-1.5,1.5c0,0.8,0.7,1.5,1.5,1.5h8.5l-3.9,7.6
		c-0.4,0.7-0.1,1.6,0.6,2c0.2,0.1,0.4,0.2,0.7,0.2c0.5,0,1-0.3,1.3-0.8l4.6-8.9h30.7l-7.3,7.2C274.4,229.3,273.1,232.6,272.5,235.5z
		 M278.5,236.8c0,0,0.8-4.8,2.4-5.9h26c1.5,0.1,3.1,5.7,3.1,5.7h-7.4c0,0-1.1-3.8-6.2-4.3c-5.6-0.5-8.8,4.5-8.8,4.5H278.5z
		 M285.4,239.8l-5.5,6.9c-2.5-2.9-2-6.9-2-6.9H285.4z M283.3,264.6c-4.8,6.1-13.3,5.7-13.3,5.7l-4.2,3.1l2-4.8c0,0-0.9-5.7,4.7-11.6
		l17.9-21.2c2.4-2.9,10.3-3.9,11.5,2.9c0.5,2.2-1.1,4.2-1.1,4.2L283.3,264.6z M310.4,240.8c-0.4,4.3-3.3,6.7-3.3,6.7h-7.6
		c0.1,0.1,2.6-3.3,2.5-3.3c2.1-3,1.5-4.3,1.5-4.3h7V240.8z M306.3,224.6h-19.8l9.2-8.8c0,0,7.6,3.7,16.2,2.8l0.1-0.1L306.3,224.6z
		 M312,227.7l9-10.2c3.5-0.4,7-2,7-2l-13.3,16C314.3,230.6,312,227.7,312,227.7z M316.1,241.3c1.2-3,0-6.5,0-6.5
		s18.8-22.3,19.1-22.9c0.6-0.3,2.2-2,2.2-2c5.3-6.7,0.2-11.9,0.2-11.9L435.9,89l0.2,9.7L316.1,241.3z M326.7,235.5l19.6-23.4
		l223.5,0l19.5,23.1L326.7,235.5z M600.2,241.5L513.6,137c-1.3-6.8,1.9-9,1.9-9l62.3,69.3c-4.9,7,1.6,12,1.6,12l21.2,26
		C599.2,238.5,600.2,241.5,600.2,241.5z M601.8,231.8l-14.5-17.7c3.3,1.4,7.3,2.1,7.3,2.1l9.9,11
		C603.3,228.2,601.8,231.8,601.8,231.8z M603.5,217.2c7.9,1.2,16.3-2.7,16.3-2.7l10.6,10.1l-20.4,0.2L603.5,217.2z M608.7,247.8
		c-3.3-3.5-2.7-7.5-2.7-7.5h8.5c0,0,0.3,1.4,0.9,2.5l3.3,5H608.7z M615,237h-8.6c1.2-3.5,3.5-6,3.5-6l25.8-0.2c1.5,1.9,2.1,6,2.1,6
		h-10.6C622,230.8,615.5,234.9,615,237z M636.1,247.6l-6.2-7.9h8.3C638.2,239.7,639,244.2,636.1,247.6z M632.3,218.2h15.8l3.5,8
		c0.2,0.6,0.8,0.9,1.4,0.9c0.2,0,0.4,0,0.6-0.1c0.7-0.3,1.1-1.2,0.8-1.9l-3-6.9h51.4c0,0,0,0.1,0,0.1l4.9,9c0.3,0.5,0.8,0.8,1.3,0.8
		c0.2,0,0.5-0.1,0.7-0.2c0.7-0.4,1-1.3,0.6-2l-4.2-7.6h13.7c0.8,0,1.5-0.7,1.5-1.5c0-0.8-0.7-1.5-1.5-1.5h-70.5
		c-0.2-0.1-0.4-0.1-0.6,0h-19.4l-3.1-3.1l257.4,0l1.1,3.4l17.8,15.6l0.2,4.4l-258.4-0.1c-1.3-5.9-4.7-10-4.7-10L632.3,218.2z"/>
</g>
</svg>
