<?xml version="1.0" encoding="utf-8"?>
<!-- Generator: Adobe Illustrator 20.1.0, SVG Export Plug-In . SVG Version: 6.00 Build 0)  -->
<svg version="1.1" id="Layer_1" xmlns="http://www.w3.org/2000/svg" xmlns:xlink="http://www.w3.org/1999/xlink" x="0px" y="0px"
	 viewBox="0 0 509 66.6" style="enable-background:new 0 0 509 66.6;" xml:space="preserve">
<style type="text/css">
	.st0{opacity:0.7;}
	.st1{fill-rule:evenodd;clip-rule:evenodd;}
	.st2{font-family:'FiraSans-Hair';}
	.st3{font-size:51.9264px;}
	.st4{letter-spacing:3;}
	.st5{font-family:'ProximaNova-Bold';}
	.st6{letter-spacing:1;}
</style>
<g class="st0">
	
		<ellipse transform="matrix(6.006493e-02 -0.9982 0.9982 6.006493e-02 74.9575 172.1141)" class="st1" cx="128.9" cy="46.3" rx="0.6" ry="1.7"/>
	
		<ellipse transform="matrix(0.9986 -5.249411e-02 5.249411e-02 0.9986 -2.3494 3.672)" class="st1" cx="68.7" cy="46.6" rx="1.9" ry="0.7"/>
	<path class="st1" d="M65.4,53.5l-4.2,5.1c-0.2,0.3-0.9,0.6-1.4,0.6c-0.3,0-0.3,0.5,0,0.5c0.7,0,1.5-0.4,1.9-0.9l3.9-4.9
		C65.9,53.7,65.6,53.3,65.4,53.5z"/>
	<polygon class="st1" points="65.7,14.1 53.1,12.2 42.6,12.6 43.9,12.9 53.1,12.7 64.7,14.5 	"/>
	<polygon class="st1" points="78.9,22.8 77.1,21.7 78.5,23.3 	"/>
	<polygon class="st1" points="79.5,28.1 80.3,27.9 77.7,26 	"/>
	<polygon class="st1" points="78,19.8 80.4,21.9 80.8,21.3 78.6,19.4 69,15 69.6,15.7 	"/>
	<polygon class="st1" points="75,21 69.2,17.4 69.3,17.8 73.7,20.8 72.6,21.1 75.6,24.4 76.5,24.4 73.4,21.4 	"/>
	<polygon class="st1" points="61.7,15.8 67,17.2 67.3,16.7 61.1,15.4 	"/>
	<polygon class="st1" points="71.8,26.2 72.8,26.3 70.5,24.4 71.6,24.3 68.9,22.3 68.9,22.8 70.2,24 69.6,24.4 	"/>
	<polygon class="st1" points="67.5,19.5 61.2,17.4 61.4,17.8 65.4,19.4 64.6,19.7 67.3,20.8 68.4,20.8 66.1,19.8 	"/>
	<polygon class="st1" points="56.6,14.7 50.6,14.2 51.2,14.7 55.6,15.1 55.1,16 58.2,16.4 58.6,15.9 56,15.6 	"/>
	<polygon class="st1" points="59.8,20.3 63,21.4 63.8,21.2 59.7,19.8 	"/>
	<polygon class="st1" points="144.9,12.7 154.2,12.9 155.4,12.6 145,12.2 132.3,14.1 133.3,14.5 	"/>
	<polygon class="st1" points="119.5,23.3 121,21.7 119.1,22.8 	"/>
	<polygon class="st1" points="118.5,28.1 120.4,26 117.7,27.9 	"/>
	<polygon class="st1" points="128.4,15.7 129,15 119.4,19.4 117.3,21.3 117.7,21.9 120,19.8 	"/>
	<polygon class="st1" points="124.3,20.8 128.7,17.8 128.8,17.4 123,21 124.6,21.4 121.5,24.4 122.4,24.4 125.5,21.1 	"/>
	<polygon class="st1" points="136.3,15.8 136.9,15.4 130.8,16.7 131,17.2 	"/>
	<polygon class="st1" points="127.5,24.4 125.2,26.3 126.2,26.2 128.4,24.4 127.8,24 129.2,22.8 129.1,22.3 126.4,24.3 	"/>
	<polygon class="st1" points="130.8,20.8 133.4,19.7 132.6,19.4 136.6,17.8 136.8,17.4 130.5,19.5 131.9,19.8 129.6,20.8 	"/>
	<polygon class="st1" points="142.1,15.6 139.4,15.9 139.8,16.4 143,16 142.4,15.1 146.8,14.7 147.4,14.2 141.4,14.7 	"/>
	<polygon class="st1" points="135,21.4 138.2,20.3 138.3,19.8 134.3,21.2 	"/>
	<path class="st1" d="M160.2,22.6c-1.6,0.3-2.8,0.8-3.4,1.3c1.3,1,0.9,2.7,0.3,3.3c3.8,2,9-2.3,11.2-1.8l1.2-1.1
		c-2.8-1.3-5.2-1.8-7.1-1.9l-0.4,0.4l0.4,0.4c1.4,0,2.6,0.3,3,0.4c-3.2,0.4-1.6,0.2-1.3,0.3c0.4,0.2,2.1,0.2,2.1,0.4
		c-1.2,0-3.4-0.1-4.4,0.4c-0.3,0.2,4.1,0,1.4,0.4l-4,0.4l3.6,0.3c-0.3,0-4.9,0.2-5.1,0c-0.1-0.1,0.7-0.3,0.6-0.5
		c-0.1-0.3-0.8,0-0.7-0.5c0.3-0.1,2.6-0.9,4.3-1.2c0.4-0.1-3.1,0.1-2.6,0L160.2,22.6z"/>
	<path class="st1" d="M159.3,39.6l7.7,1c0.1,0.1,0.2,0.2,0.2,0.6c-0.1,0.5,0.4,0.3,0.4,0.2c0,0,0.3-0.6-0.2-1.1
		c-0.1-0.2-0.3-0.2-0.3-0.2l-7.9-1c0,0-0.2,0-0.2,0.2C159.1,39.5,159.3,39.6,159.3,39.6z"/>
	<path class="st1" d="M166.2,43.4c-0.1,0.2,0,0.3-0.5,0.6c-0.5,0.3,0.1,0.4,0.2,0.4c0,0,0.7-0.1,0.9-0.8
		C166.9,43.4,166.4,43.2,166.2,43.4z"/>
	<path class="st1" d="M119.9,48.7H105c0,0,0,0,0,0h-3c-0.2,0-0.3,0.1-0.3,0.3c0,0.2,0.1,0.3,0.3,0.3h2.8l0.3,1.5
		c0,0.1,0.2,0.2,0.3,0.2c0,0,0,0,0.1,0c0.2,0,0.3-0.2,0.2-0.4l-0.3-1.4h10.4l0.5,1.6c0,0.1,0.2,0.2,0.3,0.2c0,0,0.1,0,0.1,0
		c0.2,0,0.3-0.2,0.2-0.4l-0.4-1.4h3.4c0.2,0,0.3-0.1,0.3-0.3C120.2,48.9,120.1,48.7,119.9,48.7z"/>
	<path class="st1" d="M99.9,48.7H75.8c-0.2,0-0.3,0.1-0.3,0.3c0,0.2,0.1,0.3,0.3,0.3h5.6L81,50.8c0,0.2,0.1,0.3,0.2,0.4
		c0,0,0,0,0.1,0c0.1,0,0.3-0.1,0.3-0.2l0.4-1.5h11.3l0,1.5c0,0.2,0.1,0.3,0.3,0.3h0c0.2,0,0.3-0.1,0.3-0.3l0-1.5h6
		c0.2,0,0.3-0.1,0.3-0.3C100.2,48.9,100.1,48.7,99.9,48.7z"/>
	<path class="st1" d="M19.5,48.7h-1.4c-0.2,0-0.3,0.1-0.3,0.3c0,0.2,0.1,0.3,0.3,0.3h1.4c0.2,0,0.3-0.1,0.3-0.3
		C19.8,48.9,19.7,48.7,19.5,48.7z"/>
	<path class="st1" d="M50.7,48.7H32.3c-0.2,0-0.3,0.1-0.3,0.3c0,0.2,0.1,0.3,0.3,0.3h1.9L33,50.6c-0.1,0.1-0.1,0.3,0,0.4
		c0.1,0.1,0.1,0.1,0.2,0.1c0.1,0,0.2,0,0.2-0.1l1.6-1.7c0,0,0,0,0,0h9.5l-1,1.3c-0.1,0.1-0.1,0.3,0.1,0.4c0.1,0,0.1,0.1,0.2,0.1
		c0.1,0,0.2,0,0.2-0.1l1.2-1.7h5.4c0.2,0,0.3-0.1,0.3-0.3C51,48.9,50.8,48.7,50.7,48.7z"/>
	<path class="st1" d="M29.8,48.7h-8.4c-0.2,0-0.3,0.1-0.3,0.3c0,0.2,0.1,0.3,0.3,0.3h1.8l-1.3,1.3c-0.1,0.1-0.1,0.3,0,0.4
		c0.1,0.1,0.1,0.1,0.2,0.1c0.1,0,0.2,0,0.2-0.1l1.7-1.7c0,0,0,0,0,0h5.7c0.2,0,0.3-0.1,0.3-0.3C30.1,48.9,29.9,48.7,29.8,48.7z"/>
	<path class="st1" d="M16.7,48.7H11c-0.2,0-0.3,0.1-0.3,0.3c0,0.2,0.1,0.3,0.3,0.3h2l-1.4,1.2c-0.1,0.1-0.1,0.3,0,0.4
		c0.1,0.1,0.1,0.1,0.2,0.1c0.1,0,0.1,0,0.2-0.1l1.9-1.7c0,0,0,0,0,0h2.7c0.2,0,0.3-0.1,0.3-0.3C17,48.9,16.8,48.7,16.7,48.7z"/>
	<path class="st1" d="M170.8,49.3h3.3l1.9,1.8c0.1,0.1,0.1,0.1,0.2,0.1c0.1,0,0.2,0,0.2-0.1c0.1-0.1,0.1-0.3,0-0.4l-1.4-1.3h9.7
		l2.1,1.8c0.1,0.1,0.1,0.1,0.2,0.1c0.1,0,0.2,0,0.2-0.1c0.1-0.1,0.1-0.3,0-0.4l-1.5-1.3h1.3c0.2,0,0.3-0.1,0.3-0.3
		c0-0.2-0.1-0.3-0.3-0.3h-2.1c0,0-0.1,0-0.1,0h-10.5c0,0-0.1,0-0.1,0h-3.4c-0.2,0-0.3,0.1-0.3,0.3C170.5,49.1,170.7,49.3,170.8,49.3
		z"/>
	<path class="st1" d="M157.3,49.3h5.5l1.5,1.8c0.1,0.1,0.1,0.1,0.2,0.1c0.1,0,0.1,0,0.2-0.1c0.1-0.1,0.1-0.3,0-0.4l-1.2-1.4h5.2
		c0.2,0,0.3-0.1,0.3-0.3c0-0.2-0.1-0.3-0.3-0.3H163c0,0-0.1,0-0.1,0h-5.6c-0.2,0-0.3,0.1-0.3,0.3C157,49.1,157.1,49.3,157.3,49.3z"
		/>
	<path class="st1" d="M137.6,55.2h57.1l-0.7-3.4l-3.9-4l-0.3-1.5l-7.9-6.8h-12.7c-0.1-0.1-0.5-1-2-1.2l-40.7-4.7l1.1-0.2
		c0,0,2.4-0.2,4-0.6c1.4-0.3,2.2-0.8,2.2-0.8c0.7,0.1,1.6,0,1.6,0s20.6-4.4,21.1-4.5c0.5-0.1,0.7-0.6,0.7-0.6
		c0.8-1.4,0.1-2.3-0.3-2.8c-0.4-0.4-0.7-0.3-0.7-0.3s-20.3,2.3-21.5,2.5c-1.2,0.2-1.8,0.6-1.8,0.6c-0.4-0.2-0.8-0.3-1.2-0.3l4.7-2.2
		l-1.4-0.8l9.2-2.5l-2.1-1.7l10.3-1.2l-1.9-1.7l11.5-0.5l-2.2-1.5l7.7-0.7l5.2,0.4l6.2-0.9l-20.9-3.6l-1.5,1l0.2-1.1l-13.1-0.4
		l-14.6,2.3l-0.9,1l-1.2-0.6l-11.1,5.6l-3.1,3.3l1.5,3.1l2.1,1l-1.5,1.5l-0.1,0.4l-6.8-6.3c0.2-0.2,0.3-1,0.3-1v-4.7
		c-0.1-3.4-6.4-4.3-6.4-4.3l-0.7-5c-0.2-1.4-2.2-1.4-2.2-1.4c-2.4,0-2.4,1.4-2.4,1.4l-0.7,5c-7.4,1.1-6.9,4.3-6.9,4.3l0,4.3
		c-0.1,1,1.1,1.7,1.1,1.7l-6.2,6.2l-0.2-0.7L81.9,25l2.1-1l1.5-3.1l-3.1-3.3L71.3,12l-1.2,0.6l-0.9-1L54.7,9.3L41.5,9.7l0.2,1.1
		l-1.5-1l-20.9,3.6l6.2,0.9l5.2-0.4l7.7,0.7l-2.2,1.5l11.5,0.5l-1.9,1.7l10.3,1.2L54,21.2l9.2,2.5l-1.4,0.8l4.6,2.1l-17.3-2
		c0,0-8.8,0.7-15.3,1.2L33,27l1.3,0.8c0,0,9.1,2.6,13.7,4.8l26,2.7c-8.9,1.5-17.3,2.9-24.5,4.1H16.4l-7.2,6.8L8.5,48l-4.2,4.8
		l-0.6,2.4h56.5c0.2,0.6,0.5,0.9,0.5,0.9l-1.2,1.4c-1,1.4-0.7,2.2-0.7,2.2l-0.7,1.6l1.5-0.9c1.9,0.2,3.1-1.4,3.1-1.4l1.9-2.4h3.5
		l1.2-1.4h59l1.2,1.4h3.7l4.3,6.3l0.4-1.6l-5.2-6.8c0,0-0.5-0.6-0.2-0.8c0.3-0.3,0.5,0.1,0.5,0.1l5.2,6.7l0.6-1.9l-2-2.3
		C137.2,56,137.5,55.6,137.6,55.2z M168.9,44c0.5-1,0.7-1.9,0.7-2.6l11.4,0l6.2,5.3l-53.1,0c0.3-2.4-4.3-3.2-4.3-3.2l-1.9-2.2
		l38.3,4.2C166.1,45.6,167.7,46.2,168.9,44z M128.9,44.9c2.1,0.1,3.8,0.9,3.8,1.7c0,0.8-1.8,1.3-3.9,1.1c-2.1-0.1-3.8-0.9-3.8-1.7
		C125.1,45.3,126.8,44.7,128.9,44.9z M124.6,44.4l-12.3-13.6l5.9,1.6l9.8,11.3h-0.5C125.3,43.6,124.6,44.4,124.6,44.4z M157.9,38.7
		c0.3,0,0.2-0.2,0.2-0.2l-0.1-0.2l9.4,1c0.5,0,0.7,0.5,0.7,0.5c0.6,0.8,0.5,2.3,0,3.5c-0.7,1.5-1.7,1.6-1.7,1.6l-8-0.9
		c0,0,0.7-1.2,0.6-1.2l6.3,0.8c0.5,0.1,0.7-0.5,0.4-0.5l-6.7-0.8c0,0-0.4,0-0.5,0.3l-0.7,1.5l-0.5-0.1c0,0,0.4-0.7,0.7-1.4
		c0-0.1,0.2-0.5-0.3-0.5l-32.4-3.6l-0.5-0.6l32.8,3.7c0.5,0,0.6-0.3,0.6-0.3l0.1-1.6c0-0.4-0.4-0.5-0.4-0.5l-35.5-4l-0.4-0.5
		L157.9,38.7z M128.3,29.6c0,0-3.5,0.5-9.4,1.4l-1-0.9c6.8-1,10-1.4,10-1.4C128.1,28.9,128.3,29.2,128.3,29.6z M128.5,28.1l0.9-0.4
		c0.1,0,0.2,0,0.3,0.1c0,0,0.6,0.3,1.2,1.3l0,0.1c0,0-0.7-0.1-1.8,0.1C129.1,29.3,128.8,28.6,128.5,28.1z M131.2,30.6
		c-0.5,0.4-0.8,0.4-0.8,0.4l-0.8-0.7l1.6-0.3C131.1,30,131.2,30.4,131.2,30.6z M133.6,30.1c-0.2,0.3-1.5,0.7-1.5,0.7l-0.1-0.9
		l1.6-0.4C133.6,29.5,133.7,29.9,133.6,30.1z M156.9,25.5c0,0,0.1,0.4-0.1,0.6L137,29.7c0,0-1.5,0.3-2.3,0.3c0,0-0.1-0.5-0.1-0.8
		L156.9,25.5z M134.7,27l21.5-2.6c0.3,0.1,0.6,0.7,0.6,0.7l-22.5,3.5c-0.4-0.9-1-1.4-1-1.4C133.8,27,134.7,27,134.7,27z M132.5,27.5
		c0,0,0.7,0.6,0.9,1.3c-0.6,0-1.7,0.2-1.7,0.2s-0.3-0.9-1.2-1.5C130.5,27.5,131.2,27,132.5,27.5z M115.8,22.6l-1.1-1.4l2.7-2.4
		l11-5.3l15.1-2.6l12.6,0.5l10.2,1.6L156.1,14l1.9,1.2l-10.4,0.7l2,1.6L139.1,19l2.6,1.8l-9.7,2.6l1.8,1.2l-5.5,2.4
		c-0.8,0-1.4,0.1-1.4,0.1l0.2,0.4c-0.2-0.1-0.6-0.1-0.6-0.1l-0.3,0c-1.2,0.1-2.4,0.3-3.8,0.4l1.3-1.2l-2.1,1.3
		c-1.6,0.2-3.4,0.4-5.3,0.7l-0.1-0.1l0.3-1.5l2-1.8l-0.1-1.2L115.8,22.6z M100,6.2l0.5,4.4l-0.6,0l-0.4-5C99.8,5.7,100,5.9,100,6.2z
		 M97.3,6.2c0.2-0.6,0.9-0.9,1.6-0.8l0.1,5.1c-1.4,0-2.1,0.1-2.1,0.1L97.3,6.2z M89.4,15c0-2,4.1-3.9,9-3.9c5,0,9,1.8,9,3.9
		c0,1.5-2.1,2.7-5.1,3.3c-0.8-0.3-1.4-0.5-2.1-0.5l-0.2-2.8c1.6,0.2,3.4,0.9,3.4,1.9c1.4-0.5,2.3-1.1,2.3-1.9c0-1.4-3.2-2.8-7.2-2.8
		c-4,0-7.3,1.3-7.3,2.8c0,0.7,0.9,1.4,2.3,1.9c0.1-1.3,2.1-1.8,3.9-1.9l-0.1,2.8c-0.8,0.1-1.7,0.3-2.3,0.6
		C91.7,17.8,89.4,16.5,89.4,15z M96.6,18.2c0.4,0,1.1-0.2,2.3-0.2c1.2,0,1.8,0.1,2.3,0.3l-2.3,0.6l3,1c-0.7,0.3-1.8,0.5-3,0.5
		c-1.1,0-2.4-0.2-3.1-0.5c0,0,3-1,3.1-1C98.8,18.9,96.6,18.2,96.6,18.2z M97.7,17.7l0.1-3.5c0-0.5,0.5-0.8,1-0.8c0.1,0,0.1,0,0.2,0
		l0.1,4.2C98.7,17.7,98.2,17.7,97.7,17.7z M99.4,13.7c0.1,0.1,0.2,0.3,0.2,0.5l0.2,3.5l-0.3,0L99.4,13.7z M64.3,24.6l1.8-1.2
		l-9.7-2.6l2.6-1.8l-10.5-1.5l2-1.6L40,15.1l1.9-1.2l-10.1-1.1L42,11.3l12.6-0.5l15.1,2.6l11,5.3l2.7,2.4l-1.1,1.4l-2.6,1.5
		l-0.1,1.2l1.7,1.7l0.7,1.5l-5.8-0.7l-1.8-1.1l1.2,1l-4.2-0.5L64.3,24.6z M49.8,30c-0.3,0-0.5,0.1-0.6,0.3c-0.2,0.4-0.5,0.9-0.8,1.3
		c-3.7-1.3-9.6-3.1-9.6-3.1l1-0.2l-0.5-0.4c0,0,5.8,1.3,8.4,2.1c-3-1.3-8-2.7-8-2.7l-0.6-0.9c1,0,10.2-0.8,10.2-0.8l0.2,0.5
		c0,0,0.1,0.4,0.6,0.4l30.9,3.5l-0.4,0.4l-30.1-3.4c-0.9-0.1-0.8,0.5-0.8,0.5l-0.1,1.4c0,0.6,0.6,0.7,0.6,0.7l28,3.2l-0.5,0.5l0,0
		L49.8,30z M78.7,33.9l14.9-14.7l0.7,0.1c0,0,0,1.6,4.6,1.6c4.5,0,4.3-1.7,4.3-1.7L104,19l13.3,12.4l-5.9-1.6l-8.4-9.3
		c0,0-1.8,0.8-4.2,0.8c-2.3,0-3.7-0.5-4.2-0.8L72.9,44.5c0,0-1-0.7-3.3-0.7L78.7,33.9z M116.6,41.4l4.5,5.4l-44.7,0l5-5.9
		c0.1,0,0.2,0,0.3-0.1l-0.6,0.6H116.6z M85.4,36.3l0.7-1l3.4-0.5l3.2,0.4L85.4,36.3z M98.9,38.2l10.6,1.2l-18.7,0.1
		C93.6,39.1,96.3,38.6,98.9,38.2z M87.2,34l0.4-0.5l24.8,2.8l0.4,0.5L87.2,34z M109.7,33.2l0.1,0.1l0.2,0.3l-20.6-2.3l0.3-0.4
		L109.7,33.2z M91,29.4l4.1-4.9c4.6,1.2,7.8,0,7.8,0l4.3,5.4c-1,0.2-2.7,0.4-4.8,0.8L91,29.4z M109.7,31.5l-6.2-7.3l0-2l6.9,7.7
		C109.6,30.3,109.7,31.5,109.7,31.5z M68.7,45c2.2-0.1,4,0.5,4.1,1.3c0,0.8-1.7,1.6-3.9,1.7c-2.2,0.1-4-0.5-4.1-1.3
		C64.7,45.9,66.5,45.1,68.7,45z M63.2,46.8c-3.8,0-18.3,0-31,0C46,45.4,58.3,44,69,42.6L67.7,44C64.1,44.6,63.2,45.8,63.2,46.8z
		 M74,37.1l-1.1,1.2c-11.4,1.9-36.6,5.7-46.1,7.5c-1.1,0.1-1.2-0.6-0.4-0.8C38.5,42.8,63.4,38.9,74,37.1z M17.3,41.4h21.2
		c-6.3,1.1-10.7,2-12.2,2.4c-2.8,0.7-3.7,2.2-2.4,3c-7.1,0-12.3,0-12.3,0L17.3,41.4z M60,52.9l-53,0l3.4-3.8l0.3-1l52.9,0
		c0,0.1,0.1,0.1,0.1,0.1L63,48.7h-9.5c-0.2,0-0.3,0.1-0.3,0.3c0,0.2,0.1,0.3,0.3,0.3h1.8l-0.8,1.6c-0.1,0.2,0,0.3,0.1,0.4
		c0,0,0.1,0,0.1,0c0.1,0,0.2-0.1,0.3-0.2l1-1.9h6.4l-1.5,1.5C60.4,51.6,60.1,52.3,60,52.9z M61.2,53.2c0,0,0.2-1,0.5-1.2h5.4
		c0.3,0,0.7,1.2,0.7,1.2h-1.5c0,0-0.2-0.8-1.3-0.9c-1.2-0.1-1.8,0.9-1.8,0.9H61.2z M62.7,53.8l-1.1,1.4c-0.5-0.6-0.4-1.4-0.4-1.4
		H62.7z M62.2,59c-1,1.3-2.8,1.2-2.8,1.2l-0.9,0.6l0.4-1c0,0-0.2-1.2,1-2.4l3.7-4.4c0.5-0.6,2.1-0.8,2.4,0.6
		c0.1,0.5-0.2,0.9-0.2,0.9L62.2,59z M67.9,54c-0.1,0.9-0.7,1.4-0.7,1.4h-1.6c0,0,0.5-0.7,0.5-0.7c0.4-0.6,0.3-0.9,0.3-0.9h1.5V54z
		 M67.1,50.6h-4.1l1.9-1.8c0,0,1.6,0.8,3.4,0.6l0,0L67.1,50.6z M68.2,51.3l1.9-2.1c0.7-0.1,1.5-0.4,1.5-0.4l-2.8,3.3
		C68.7,51.9,68.2,51.3,68.2,51.3z M69.1,54.1c0.3-0.6,0-1.4,0-1.4s3.9-4.7,4-4.8c0.1-0.1,0.5-0.4,0.5-0.4c1.1-1.4,0-2.5,0-2.5
		l20.6-22.8l0,2L69.1,54.1z M71.3,52.9l4.1-4.9l46.8,0l4.1,4.8L71.3,52.9z M128.6,54.1l-18.1-21.9c-0.3-1.4,0.4-1.9,0.4-1.9l13,14.5
		c-1,1.5,0.3,2.5,0.3,2.5l4.4,5.4C128.4,53.5,128.6,54.1,128.6,54.1z M128.9,52.1l-3-3.7c0.7,0.3,1.5,0.4,1.5,0.4l2.1,2.3
		C129.2,51.4,128.9,52.1,128.9,52.1z M129.3,49.1c1.7,0.2,3.4-0.6,3.4-0.6l2.2,2.1l-4.3,0L129.3,49.1z M130.3,55.5
		c-0.7-0.7-0.6-1.6-0.6-1.6h1.8c0,0,0.1,0.3,0.2,0.5l0.7,1.1H130.3z M131.7,53.2h-1.8c0.2-0.7,0.7-1.3,0.7-1.3l5.4,0
		c0.3,0.4,0.4,1.3,0.4,1.3h-2.2C133.1,51.9,131.8,52.8,131.7,53.2z M136.1,55.4l-1.3-1.7h1.7C136.5,53.8,136.7,54.7,136.1,55.4z
		 M135.3,49.3h3.3l0.7,1.7c0.1,0.1,0.2,0.2,0.3,0.2c0,0,0.1,0,0.1,0c0.2-0.1,0.2-0.2,0.2-0.4l-0.6-1.4H150c0,0,0,0,0,0l1,1.9
		c0.1,0.1,0.2,0.2,0.3,0.2c0.1,0,0.1,0,0.1,0c0.1-0.1,0.2-0.3,0.1-0.4l-0.9-1.6h2.9c0.2,0,0.3-0.1,0.3-0.3c0-0.2-0.1-0.3-0.3-0.3
		h-14.7c0,0-0.1,0-0.1,0h-4.1L134,48l53.9,0l0.2,0.7l3.7,3.3l0.1,0.9l-54.1,0c-0.3-1.2-1-2.1-1-2.1L135.3,49.3z"/>
</g>
<text transform="matrix(1 0 0 1 228.1886 52.7696)"><tspan x="0" y="0" class="st2 st3 st4">CCM</tspan><tspan x="104.4" y="0" class="st5 st3 st4"> </tspan><tspan x="120.8" y="0" class="st2 st3 st6">Design</tspan></text>
</svg>
