<?xml version="1.0" encoding="utf-8"?>
<!-- Generator: Adobe Illustrator 20.1.0, SVG Export Plug-In . SVG Version: 6.00 Build 0)  -->
<svg version="1.1" id="Layer_1" xmlns="http://www.w3.org/2000/svg" xmlns:xlink="http://www.w3.org/1999/xlink" x="0px" y="0px"
	 viewBox="0 0 213 53" style="enable-background:new 0 0 213 53;" xml:space="preserve">
<g>
	<g>
		<g>
			<g>
				<path d="M21.4,38.2c-2.7,0-5.5-1.2-7.2-3.3c-2-2.6-3.1-5.7-3.1-10.6c0-7.7,3.5-14.6,10.9-14.6c2.4,0,4.9,0.9,6.2,2.2L26,15.4
					c-1.2-1.1-2.5-1.6-4.1-1.6c-4.4,0-5.5,4.9-5.5,9.7c0,4.1,0.4,6.1,1.3,7.7c1.1,1.8,2.5,3,4.3,3c1.7,0,3-0.4,4.5-1.7l2.1,3.4
					C26.7,37.4,24.4,38.2,21.4,38.2"/>
				<path d="M43.5,38.2c-2.7,0-5.5-1.2-7.2-3.3c-2-2.6-3.1-5.7-3.1-10.6c0-7.7,3.4-14.6,10.9-14.6c2.4,0,4.9,0.9,6.2,2.2L48,15.3
					c-1.2-1.1-2.5-1.6-4.1-1.6c-4.4,0-5.5,4.9-5.5,9.7c0,4.1,0.4,6.1,1.3,7.7c1.1,1.8,2.5,3,4.3,3c1.7,0,3-0.4,4.5-1.7l2.1,3.4
					C48.9,37.4,46.6,38.2,43.5,38.2"/>
				<path d="M76,37.8l-0.9-16.7c-0.1-1.8-0.2-5.8-0.2-5.8s-0.6,3.9-1,5.4l-3.9,17h-4.3l-3.6-16.3c-0.5-2.3-1-6.1-1-6.1
					s-0.1,4.5-0.2,6.2l-0.8,16.3h-4.8L57.5,10h6.3l3.4,16c0.4,1.7,0.8,5.5,0.8,5.5s0.4-3.5,0.8-5.5l3.5-16h6.3l2,27.8H76z"/>
				<rect x="97.2" y="5.6" width="2.5" height="38.1"/>
				<path d="M129.5,23.4c0-1.3-0.6-2-1.9-2c-1.1,0-2.4,0.7-3.7,2.1c-1.4,1.4-2.5,3.1-3.4,5.1s-1.4,3.8-1.4,5.5
					c0,1.3,0.4,1.9,1.3,1.9s2-0.7,3.4-2.2c1.3-1.5,2.6-3.4,3.9-5.7C128.9,25.8,129.5,24.2,129.5,23.4 M138,9.1c0,0.2-0.1,0.5-0.2,1
					l-8.2,22.6c-0.5,1.3-0.7,2.1-0.7,2.5s0.1,0.6,0.4,0.6c0.5,0,1.3-0.8,2.5-2.4c0.5-0.6,0.7-0.9,0.8-0.9c0.2,0,0.3,0.1,0.5,0.2
					c0.2,0.2,0.2,0.3,0.2,0.5s-0.4,0.9-1.3,2c-0.9,1.1-1.7,1.9-2.6,2.5c-0.8,0.6-1.6,0.9-2.2,0.9c-1.4,0-2.2-0.7-2.2-2.2
					c0-1,0.4-2.3,1.1-4c-1,1.8-2.3,3.3-3.7,4.5c-1.4,1.2-2.7,1.8-3.9,1.8c-0.9,0-1.7-0.4-2.3-1.1c-0.6-0.7-0.9-1.7-0.9-2.9
					c0-1.9,0.7-4,2-6.2s3-4.2,5-5.8c2-1.6,3.7-2.4,5.2-2.4c0.5,0,1,0.1,1.5,0.3c0.5,0.2,0.9,0.5,1.2,0.8l2.2-6.4
					c0.3-0.8,0.4-1.4,0.4-1.8c0-0.5-0.6-0.8-1.7-1c-0.2,0-0.4-0.2-0.4-0.5s0.1-0.5,0.3-0.5c0.8-0.2,1.9-0.5,3-0.9
					c1.2-0.4,2.1-0.8,2.7-1.2c0.3-0.2,0.5-0.3,0.7-0.3C137.9,8.7,138,8.9,138,9.1"/>
				<path d="M145,23.8c0-1.1-0.5-1.7-1.5-1.7s-1.9,0.7-2.7,2S139.4,27,139,29c1.1,0,2.1-0.2,3-0.7s1.6-1.2,2.1-2
					C144.7,25.3,145,24.5,145,23.8 M147.8,23.1c0,1.8-0.9,3.5-2.7,4.9c-1.8,1.5-3.9,2.2-6.3,2.2c-0.1,0.8-0.1,1.5-0.1,2.2
					c0,1.2,0.2,2,0.5,2.5s0.9,0.8,1.6,0.8c1.7,0,3.2-1,4.6-2.9l0.1-0.1c0.1,0,0.2,0.1,0.3,0.2c0.1,0.1,0.2,0.3,0.2,0.4
					c0,0.3-0.4,1-1.2,2c-0.8,1.1-1.7,1.9-2.6,2.5c-0.9,0.6-1.8,0.9-2.6,0.9c-1.3,0-2.4-0.5-3.2-1.5s-1.3-2.2-1.3-3.6
					c0-1.9,0.5-3.9,1.5-6s2.3-3.9,3.9-5.3c1.6-1.4,3-2.1,4.4-2.1c1,0,1.7,0.3,2.2,0.8C147.6,21.5,147.8,22.2,147.8,23.1"/>
				<path d="M160.7,22.3c0,1.2-0.5,1.8-1.4,1.8c-0.4,0-1-0.4-1.8-1.1s-1.4-1-1.7-1s-0.6,0.1-0.8,0.3c-0.2,0.2-0.3,0.5-0.3,0.9
					c0,0.7,0.5,2.1,1.4,4.2c1,2.3,1.5,3.8,1.5,4.7c0,1.7-0.6,3.2-1.8,4.6c-1.2,1.3-2.7,2-4.5,2c-0.9,0-1.8-0.2-2.6-0.8
					c-0.8-0.5-1.2-1-1.2-1.6c0-0.5,0.2-0.9,0.5-1.2s0.7-0.5,1.2-0.5c0.4,0,0.9,0.3,1.4,1c0.4,0.6,0.8,0.9,1.2,1.1
					c0.3,0.2,0.7,0.3,1.1,0.3c0.5,0,1-0.2,1.3-0.7s0.5-1.1,0.5-2c0-0.6-0.4-1.7-1.1-3.2c-1.1-2.2-1.6-4-1.6-5.3
					c0-1.4,0.6-2.7,1.7-3.9c1.1-1.2,2.4-1.8,3.9-1.8c1,0,1.8,0.2,2.4,0.6C160.4,21.2,160.7,21.7,160.7,22.3"/>
				<path d="M173.3,12.6c0,0.6-0.2,1.1-0.7,1.6c-0.4,0.4-1,0.7-1.6,0.7s-1.2-0.2-1.6-0.7c-0.4-0.4-0.7-1-0.7-1.6s0.2-1.2,0.7-1.6
					c0.4-0.4,1-0.7,1.6-0.7s1.1,0.2,1.6,0.7C173.1,11.4,173.3,12,173.3,12.6 M170.9,21.8c0,0.8-0.3,1.8-0.8,3l-4.4,8.9
					c-0.5,0.9-0.7,1.6-0.7,2c0,0.3,0.1,0.5,0.3,0.5c0.4,0,1.4-0.8,2.7-2.4c0.6-0.8,1-1.1,1.1-1.1c0.2,0,0.3,0.1,0.5,0.2
					c0.1,0.2,0.2,0.3,0.2,0.5s-0.5,0.8-1.6,1.9c-1,1.1-2,1.9-2.9,2.6c-0.9,0.6-1.7,0.9-2.3,0.9c-1.3,0-1.9-0.6-1.9-1.8
					c0-0.7,0.3-1.7,0.9-2.9l4.4-8.8c0.5-0.9,0.7-1.6,0.7-2c0-0.3-0.1-0.4-0.4-0.4c-0.5,0-1.4,0.8-2.8,2.5c-0.6,0.7-0.9,1-1,1
					c-0.2,0-0.3-0.1-0.4-0.2c-0.1-0.1-0.2-0.3-0.2-0.5s0.5-0.8,1.5-1.9s2-1.9,2.9-2.6c0.9-0.6,1.7-0.9,2.3-0.9
					C170.3,20.1,170.9,20.7,170.9,21.8"/>
				<path d="M183.5,23.6c0-1.5-0.5-2.2-1.6-2.2c-0.7,0-1.4,0.4-2.2,1.3s-1.4,2-1.8,3.4c-0.4,1.4-0.7,2.9-0.7,4.4
					c0,0.7,0.1,1.2,0.4,1.6c0.3,0.4,0.7,0.6,1.2,0.6c1.3,0,2.4-0.9,3.3-2.7C183,28.3,183.5,26.1,183.5,23.6 M183.8,43.8
					c0-0.9-0.5-1.7-1.6-2.4c-1-0.7-2.9-1.5-5.7-2.3c-1.2,0.3-2.3,1-3.3,2s-1.6,1.9-1.6,2.8c0,2.5,1.9,3.8,5.8,3.8
					c1.7,0,3.2-0.4,4.4-1.1C183.2,45.9,183.8,44.9,183.8,43.8 M189.4,24.2l-2.6-0.1c0.1,0.5,0.1,0.9,0.1,1.1c0,2.2-0.9,4.2-2.6,6.1
					c-1.8,1.9-3.8,2.8-6,2.8c-0.5,0-0.8,0.1-1.1,0.2c-0.3,0.2-0.4,0.3-0.4,0.6c0,0.2,0.2,0.5,0.6,0.7c0.4,0.2,1.3,0.6,2.6,1
					c2.7,0.9,4.5,1.8,5.5,2.6c0.9,0.8,1.4,1.7,1.4,2.7c0,1.2-0.4,2.3-1.3,3.5c-0.9,1.1-2,2-3.5,2.7c-1.4,0.7-3,1-4.6,1
					c-2.5,0-4.6-0.5-6.1-1.4c-1.6-0.9-2.4-2.1-2.4-3.5c0-0.9,0.6-1.9,1.7-3c1.2-1,2.7-1.9,4.5-2.7c-1.5-0.8-2.2-1.5-2.2-2.1
					c0-0.4,0.2-0.8,0.6-1.2c0.4-0.4,1.3-0.9,2.5-1.5c-1.6-0.9-2.3-2.4-2.3-4.5c0-2.2,0.9-4.3,2.6-6.2c1.7-1.9,3.7-2.8,5.9-2.8
					c1.7,0,3,0.7,3.8,2l3.9-0.1c0.2,0,0.3,0.2,0.3,0.5c0,0.4-0.1,0.8-0.3,1.1C189.8,24,189.6,24.2,189.4,24.2"/>
				<path d="M207.5,22.8c0,0.9-0.3,2-0.8,3.3l-3.2,7.5c-0.5,1.1-0.7,1.8-0.7,2c0,0.3,0.1,0.5,0.4,0.5c0.5,0,1.3-0.7,2.5-2.2
					c0.5-0.7,0.9-1,1-1c0.2,0,0.3,0.1,0.4,0.2c0.1,0.1,0.2,0.3,0.2,0.5s-0.5,0.8-1.4,1.8s-1.9,1.8-2.8,2.4c-0.9,0.6-1.7,0.9-2.3,0.9
					s-1-0.1-1.4-0.4c-0.3-0.3-0.5-0.6-0.5-1.1c0-0.8,0.3-1.8,0.9-3.2l3.3-7.7c0.4-0.9,0.6-1.6,0.6-2.2c0-0.7-0.3-1.1-0.9-1.1
					c-0.7,0-1.9,1-3.3,2.9c-1.5,1.9-3.1,4.6-4.9,7.8l-1.3,3.8c-0.1,0.2-0.3,0.3-0.7,0.5c-0.4,0.1-0.8,0.2-1.3,0.2
					c-0.4,0-0.7-0.1-1.1-0.2c-0.3-0.1-0.5-0.3-0.5-0.4v-0.1l4.2-12.4c0.3-0.9,0.5-1.6,0.5-2c0-0.3-0.1-0.5-0.4-0.5
					c-0.4,0-1.2,0.7-2.3,2.1c-0.6,0.7-0.9,1.1-1,1.1c-0.2,0-0.3-0.1-0.4-0.2c-0.1-0.2-0.2-0.3-0.2-0.5s0.4-0.8,1.3-1.8
					c0.9-1,1.7-1.8,2.6-2.4c0.8-0.6,1.5-0.9,2.1-0.9c1.4,0,2,0.6,2,1.8c0,0.7-0.2,1.7-0.6,2.8l-1.2,3.4c1.5-2.6,3-4.5,4.5-5.9
					s2.8-2.1,4.1-2.1c0.7,0,1.3,0.2,1.8,0.7C207.3,21.4,207.5,22,207.5,22.8"/>
			</g>
		</g>
	</g>
</g>
</svg>
